<svg width="34" height="34" viewBox="0 0 34 34" fill="none" xmlns="http://www.w3.org/2000/svg">
<g clip-path="url(#clip0_2219_7121)">
<path d="M17.3008 0.912109C14.0374 0.912109 10.8473 1.87982 8.13388 3.69286C5.42047 5.5059 3.30562 8.08285 2.05678 11.0978C0.80793 14.1128 0.481175 17.4304 1.11783 20.6311C1.75449 23.8318 3.32596 26.7718 5.63353 29.0794C7.94109 31.3869 10.8811 32.9584 14.0818 33.5951C17.2825 34.2317 20.6001 33.905 23.6151 32.6561C26.63 31.4073 29.207 29.2924 31.02 26.579C32.8331 23.8656 33.8008 20.6755 33.8008 17.4121C33.8008 13.036 32.0624 8.8392 28.9681 5.74485C25.8737 2.6505 21.6769 0.912109 17.3008 0.912109ZM21.9946 11.6501C21.9946 11.9606 21.8643 12.0843 21.5604 12.0843C20.9764 12.0843 20.3924 12.0843 19.8105 12.1082C19.2287 12.1321 18.9117 12.397 18.9117 13.0049C18.8987 13.6562 18.9117 14.2945 18.9117 14.9588H21.4106C21.7666 14.9588 21.8882 15.0804 21.8882 15.4386C21.8882 16.307 21.8882 17.1798 21.8882 18.0569C21.8882 18.4108 21.7753 18.5215 21.4171 18.5237H18.89V25.5883C18.89 25.9661 18.7728 26.0855 18.3993 26.0855H15.6812C15.3534 26.0855 15.2253 25.9574 15.2253 25.6295V18.5345H13.0672C12.7286 18.5345 12.607 18.4108 12.607 18.0699C12.607 17.1914 12.607 16.3136 12.607 15.4365C12.607 15.0978 12.7351 14.9697 13.0694 14.9697H15.2253V13.07C15.1997 12.2167 15.4044 11.3722 15.818 10.6254C16.2479 9.87141 16.9367 9.29901 17.7567 9.01448C18.2889 8.82085 18.8513 8.7238 19.4176 8.7279H21.5517C21.8578 8.7279 21.9859 8.8625 21.9859 9.16211C21.9968 9.99796 21.9968 10.8251 21.9946 11.6501Z" fill="#58C2DF"/>
</g>
<defs>
<clipPath id="clip0_2219_7121">
<rect width="33" height="33" fill="white" transform="translate(0.800781 0.912109)"/>
</clipPath>
</defs>
</svg>
