<svg width="34" height="34" viewBox="0 0 34 34" fill="none" xmlns="http://www.w3.org/2000/svg">
<g clip-path="url(#clip0_2219_7117)">
<path d="M17.3009 20.8773C19.2146 20.8773 20.7659 19.3259 20.7659 17.4123C20.7659 15.4986 19.2146 13.9473 17.3009 13.9473C15.3873 13.9473 13.8359 15.4986 13.8359 17.4123C13.8359 19.3259 15.3873 20.8773 17.3009 20.8773Z" fill="#58C2DF"/>
<path d="M17.3008 0.912109C8.1881 0.912109 0.800781 8.29942 0.800781 17.4121C0.800781 26.5248 8.1881 33.9121 17.3008 33.9121C26.4135 33.9121 33.8008 26.5248 33.8008 17.4121C33.8008 8.29942 26.4135 0.912109 17.3008 0.912109ZM27.495 21.6057C27.4158 23.1744 26.975 24.7213 25.8318 25.8524C24.6775 26.9942 23.1233 27.4196 21.5395 27.498H13.0621C11.4781 27.4196 9.92409 26.9945 8.76982 25.8524C7.62657 24.7213 7.18582 23.1744 7.10662 21.6057V13.2185C7.18582 11.6498 7.62663 10.1029 8.76982 8.97177C9.92409 7.82997 11.4783 7.40453 13.0621 7.32619H21.5394C23.1234 7.40453 24.6775 7.82977 25.8317 8.97177C26.975 10.1029 27.4157 11.6498 27.4949 13.2185L27.495 21.6057Z" fill="#58C2DF"/>
<path d="M21.4285 9.23681C19.3636 9.18018 15.2307 9.18018 13.1658 9.23681C12.0913 9.26631 10.8731 9.53381 10.1075 10.3515C9.31197 11.2016 9.01134 12.2285 8.98085 13.3774C8.92726 15.3938 8.98085 21.446 8.98085 21.446C9.01576 22.5947 9.31197 23.6218 10.1075 24.4718C10.8731 25.2899 12.0913 25.5571 13.1658 25.5866C15.2307 25.6432 19.3636 25.6432 21.4285 25.5866C22.5031 25.5571 23.7212 25.2896 24.4868 24.4718C25.2824 23.6218 25.583 22.5949 25.6135 21.446V13.3774C25.583 12.2285 25.2824 11.2016 24.4868 10.3515C23.721 9.53354 22.5028 9.26631 21.4285 9.23681ZM17.2969 22.7824C16.2347 22.7824 15.1963 22.4675 14.3131 21.8773C13.4299 21.2872 12.7415 20.4484 12.335 19.467C11.9285 18.4856 11.8221 17.4057 12.0294 16.3639C12.2366 15.3221 12.7481 14.3651 13.4992 13.614C14.2503 12.8629 15.2073 12.3514 16.2491 12.1441C17.291 11.9369 18.3708 12.0433 19.3522 12.4498C20.3336 12.8563 21.1724 13.5447 21.7625 14.4279C22.3527 15.3111 22.6677 16.3495 22.6677 17.4117C22.6677 18.8361 22.1018 20.2022 21.0946 21.2094C20.0874 22.2166 18.7213 22.7824 17.2969 22.7824ZM22.6905 13.1496C22.4781 13.1495 22.2704 13.0865 22.0938 12.9684C21.9172 12.8503 21.7796 12.6826 21.6983 12.4863C21.617 12.29 21.5958 12.074 21.6373 11.8657C21.6788 11.6573 21.7811 11.466 21.9313 11.3158C22.0816 11.1656 22.2729 11.0633 22.4813 11.0219C22.6897 10.9804 22.9056 11.0017 23.1019 11.083C23.2981 11.1643 23.4659 11.302 23.5839 11.4787C23.7019 11.6553 23.7649 11.863 23.7649 12.0754C23.7649 12.2165 23.7371 12.3562 23.6831 12.4865C23.6291 12.6169 23.55 12.7353 23.4502 12.835C23.3504 12.9348 23.232 13.0139 23.1016 13.0679C22.9713 13.1218 22.8316 13.1496 22.6905 13.1496Z" fill="#58C2DF"/>
</g>
<defs>
<clipPath id="clip0_2219_7117">
<rect width="33" height="33" fill="white" transform="translate(0.800781 0.912109)"/>
</clipPath>
</defs>
</svg>
