<svg width="34" height="34" viewBox="0 0 34 34" fill="none" xmlns="http://www.w3.org/2000/svg">
<g clip-path="url(#clip0_2219_7137)">
<path d="M17.3008 0.912109C8.18762 0.912109 0.800781 8.29895 0.800781 17.4121C0.800781 26.5242 8.18762 33.9121 17.3008 33.9121C26.4139 33.9121 33.8008 26.5242 33.8008 17.4121C33.8008 8.29895 26.4139 0.912109 17.3008 0.912109Z" fill="#58C2DF"/>
<path d="M25.855 24.5707V18.2419C25.855 14.8512 24.0451 13.2733 21.631 13.2733C19.6829 13.2733 18.8105 14.3448 18.3248 15.0966V13.5322H14.6556C14.7041 14.5686 14.6556 24.5707 14.6556 24.5707H18.3248V18.4059C18.3248 18.0769 18.3485 17.7469 18.4454 17.5118C18.7105 16.8528 19.3138 16.1701 20.3275 16.1701C21.6557 16.1701 22.1868 17.1818 22.1868 18.6657V24.5717L25.855 24.5707ZM10.7894 12.0255C12.0682 12.0255 12.8653 11.1768 12.8653 10.1177C12.8416 9.03491 12.0682 8.21094 10.8132 8.21094C9.55813 8.21094 8.73828 9.03491 8.73828 10.1177C8.73828 11.1778 9.53441 12.0255 10.7668 12.0255H10.7894ZM12.624 24.5707V13.5322H8.95587V24.5707H12.624Z" fill="white"/>
</g>
<defs>
<clipPath id="clip0_2219_7137">
<rect width="33" height="33" fill="white" transform="translate(0.800781 0.912109)"/>
</clipPath>
</defs>
</svg>
