<svg width="34" height="34" viewBox="0 0 34 34" fill="none" xmlns="http://www.w3.org/2000/svg">
<g clip-path="url(#clip0_2219_7131)">
<path d="M17.2807 33.6941C26.283 33.6941 33.5809 26.3963 33.5809 17.3939C33.5809 8.3916 26.283 1.09375 17.2807 1.09375C8.27831 1.09375 0.980469 8.3916 0.980469 17.3939C0.980469 26.3963 8.27831 33.6941 17.2807 33.6941Z" fill="#58C2DF"/>
<path d="M9.16981 26.2686C8.97892 26.2686 8.79273 26.1929 8.65472 26.0535C8.47288 25.8695 8.40261 25.6025 8.47107 25.3526L9.53928 21.4514C8.86662 20.1843 8.51273 18.7622 8.51309 17.3198C8.5149 12.4674 12.4635 8.51953 17.3148 8.51953C19.6686 8.52026 21.88 9.43705 23.5411 11.1008C25.2027 12.7641 26.1169 14.9755 26.1162 17.3271C26.1144 22.1802 22.1661 26.1285 17.3145 26.1285C15.9416 26.1281 14.5829 25.8053 13.364 25.1928L9.35346 26.2447C9.29297 26.261 9.23102 26.2686 9.16981 26.2686ZM13.4517 23.6965C13.5719 23.6965 13.6915 23.7265 13.7987 23.7848C14.8713 24.3698 16.0858 24.6792 17.3119 24.6795C21.3678 24.6795 24.6659 21.3811 24.6677 17.3263C24.6684 15.3616 23.9045 13.5143 22.5164 12.1248C21.1284 10.7349 19.281 9.96916 17.3148 9.96844C13.2622 9.96844 9.96417 13.2665 9.96236 17.3209C9.962 18.6123 10.3014 19.8837 10.9436 20.9964C11.0403 21.1641 11.0657 21.3634 11.015 21.5499L10.2003 24.5249L13.2684 23.72C13.3282 23.7044 13.3901 23.6965 13.4517 23.6965Z" fill="white"/>
<path d="M14.1547 17.4828C14.0514 17.3452 13.3125 16.3643 13.3125 15.349C13.3125 14.3336 13.8453 13.8345 14.0344 13.628C14.2235 13.4216 14.447 13.3701 14.5846 13.3701C14.7223 13.3701 14.8599 13.3716 14.9802 13.3774C15.107 13.3839 15.2769 13.3292 15.4442 13.7316C15.6163 14.1446 16.0285 15.1602 16.0803 15.2635C16.1321 15.3667 16.1661 15.487 16.0977 15.625C16.0288 15.7626 15.9944 15.8485 15.8916 15.9691C15.7883 16.0897 15.6749 16.2382 15.5818 16.3306C15.4786 16.4335 15.371 16.545 15.4913 16.7515C15.6116 16.958 16.0256 17.6335 16.6388 18.1808C17.4267 18.8839 18.0914 19.1016 18.2978 19.2049C18.5039 19.3081 18.6246 19.2911 18.7448 19.1531C18.8651 19.0154 19.2606 18.5507 19.3983 18.3442C19.5359 18.1377 19.6732 18.1722 19.8623 18.241C20.0514 18.3098 21.0656 18.809 21.2717 18.9122C21.4778 19.0154 21.6155 19.0672 21.6673 19.1531C21.7191 19.2393 21.7191 19.6522 21.547 20.134C21.3749 20.6157 20.5509 21.0558 20.1546 21.1149C19.7993 21.1681 19.3494 21.1902 18.8553 21.033C18.5557 20.9381 18.1714 20.811 17.6791 20.5983C15.6094 19.7044 14.2583 17.6205 14.1547 17.4828Z" fill="white"/>
</g>
<defs>
<clipPath id="clip0_2219_7131">
<rect width="33" height="33" fill="white" transform="translate(0.800781 0.912109)"/>
</clipPath>
</defs>
</svg>
