<svg width="34" height="34" viewBox="0 0 34 34" fill="none" xmlns="http://www.w3.org/2000/svg">
<g clip-path="url(#clip0_2219_7125)">
<path d="M17.3008 33.9121C26.4135 33.9121 33.8008 26.5248 33.8008 17.4121C33.8008 8.29941 26.4135 0.912109 17.3008 0.912109C8.18808 0.912109 0.800781 8.29941 0.800781 17.4121C0.800781 26.5248 8.18808 33.9121 17.3008 33.9121Z" fill="#58C2DF"/>
<path d="M27.9908 10.7841C27.1868 11.1352 26.3364 11.3685 25.4658 11.4767C26.3836 10.9325 27.0696 10.0703 27.3937 9.05379C26.5348 9.56363 25.5949 9.9227 24.6148 10.1154C24.0142 9.47313 23.2342 9.02642 22.3763 8.83341C21.5184 8.64039 20.6222 8.71001 19.8044 9.0332C18.9866 9.35639 18.285 9.91819 17.7908 10.6455C17.2966 11.3729 17.0327 12.2321 17.0335 13.1115C17.0304 13.4471 17.0646 13.7821 17.1355 14.1102C15.3921 14.0245 13.6863 13.5721 12.1297 12.7823C10.5731 11.9926 9.20052 10.8834 8.10175 9.52708C7.53697 10.4919 7.362 11.636 7.61259 12.7256C7.86319 13.8151 8.52042 14.7678 9.44998 15.3889C8.75616 15.3702 8.07703 15.1848 7.46998 14.8483V14.8961C7.47193 15.9074 7.82198 16.8873 8.4613 17.6709C9.10062 18.4545 9.99022 18.9942 10.9806 19.1991C10.6058 19.2976 10.2196 19.3458 9.83208 19.3424C9.55307 19.3476 9.27431 19.3228 9.00057 19.2686C9.2843 20.1384 9.83054 20.8989 10.5642 21.4455C11.2978 21.9921 12.1828 22.298 13.0973 22.3211C11.5475 23.5325 9.63685 24.1905 7.66971 24.1904C7.31921 24.1934 6.9689 24.173 6.62109 24.1296C8.62687 25.4228 10.9648 26.1061 13.3514 26.0966C21.4168 26.0966 25.8262 19.4162 25.8262 13.626C25.8262 13.4328 25.8262 13.2461 25.811 13.0594C26.6698 12.4396 27.4084 11.6686 27.9908 10.7841Z" fill="white"/>
</g>
<defs>
<clipPath id="clip0_2219_7125">
<rect width="33" height="33" fill="white" transform="translate(0.800781 0.912109)"/>
</clipPath>
</defs>
</svg>
