<svg width="45" height="36" viewBox="0 0 45 36" fill="none" xmlns="http://www.w3.org/2000/svg">
<path d="M22.4353 25.5524C18.8707 25.5524 15.3163 24.3202 12.6024 21.865C7.18463 16.9455 7.18463 8.93629 12.6024 4.00756C18.0201 -0.921178 26.8403 -0.911983 32.2682 4.00756C37.696 8.9271 37.6859 16.9363 32.2682 21.865C29.5542 24.3202 25.9897 25.5524 22.4353 25.5524ZM22.4353 1.23055C19.134 1.23055 15.8327 2.37078 13.3213 4.65124C8.29856 9.21215 8.29856 16.642 13.3213 21.203C18.3441 25.7639 26.5264 25.7639 31.5492 21.203C36.572 16.642 36.572 9.21215 31.5492 4.65124C29.0378 2.37078 25.7365 1.23055 22.4353 1.23055Z" fill="#026E9E"/>
<path d="M30.698 22.959C30.4651 22.959 30.2524 22.8119 30.2018 22.5912L29.6954 20.4303C29.4018 19.1613 28.4296 16.2096 25.8372 16.2096H24.8954L22.8499 19.0969C22.7587 19.2257 22.5967 19.3084 22.4246 19.3084C22.2524 19.3084 22.0904 19.2257 21.9992 19.0969L19.9537 16.2096H19.0119C16.4094 16.2096 15.4473 19.1613 15.1537 20.4303L14.6575 22.5912C14.5967 22.8395 14.3334 22.9958 14.06 22.9498C13.7866 22.9038 13.6144 22.6556 13.6651 22.4073L14.1613 20.2464C14.8904 17.0923 16.6625 15.29 19.0119 15.29H20.2372C20.4094 15.29 20.5714 15.3728 20.6625 15.5015L22.4347 17.9935L24.2068 15.5015C24.298 15.3728 24.46 15.29 24.6322 15.29H25.8473C28.1967 15.29 29.9689 17.0923 30.698 20.2464L31.2043 22.4073C31.2651 22.6556 31.0828 22.9038 30.8094 22.9498C30.7689 22.959 30.7385 22.959 30.698 22.959Z" fill="#026E9E"/>
<path d="M17.5766 24.7344C17.2931 24.7344 17.0703 24.5321 17.0703 24.2746V19.7137C17.0703 19.4562 17.2931 19.2539 17.5766 19.2539C17.8602 19.2539 18.083 19.4562 18.083 19.7137V24.2746C18.083 24.5229 17.8602 24.7344 17.5766 24.7344Z" fill="#026E9E"/>
<path d="M27.2876 24.7344C27.004 24.7344 26.7812 24.5321 26.7812 24.2746V19.7137C26.7812 19.4562 27.004 19.2539 27.2876 19.2539C27.5711 19.2539 27.7939 19.4562 27.7939 19.7137V24.2746C27.7939 24.5229 27.5711 24.7344 27.2876 24.7344Z" fill="#026E9E"/>
<path d="M20.2407 16.2096C19.9572 16.2096 19.7344 16.0073 19.7344 15.7498V14.3797C19.7344 14.1222 19.9572 13.9199 20.2407 13.9199C20.5242 13.9199 20.747 14.1222 20.747 14.3797V15.7498C20.747 15.9981 20.5242 16.2096 20.2407 16.2096Z" fill="#026E9E"/>
<path d="M24.6235 16.2096C24.34 16.2096 24.1172 16.0073 24.1172 15.7498V14.3797C24.1172 14.1222 24.34 13.9199 24.6235 13.9199C24.9071 13.9199 25.1298 14.1222 25.1298 14.3797V15.7498C25.1298 15.9981 24.9071 16.2096 24.6235 16.2096Z" fill="#026E9E"/>
<path d="M22.4352 15.5661C22.4251 15.5661 22.4251 15.5661 22.4352 15.5661C20.3795 15.5661 18.1415 14.0856 18.0706 10.8488C18.0605 10.5914 18.2833 10.3799 18.5668 10.3799C18.8504 10.3799 19.0833 10.573 19.0833 10.8305C19.1441 13.4511 20.8656 14.6465 22.4352 14.6557C24.0048 14.6557 25.7162 13.4695 25.7871 10.858C25.7972 10.6006 26.02 10.4075 26.3036 10.4075C26.5871 10.4167 26.7998 10.6282 26.7998 10.8764C26.7086 14.0948 24.4706 15.5661 22.4352 15.5661Z" fill="#026E9E"/>
<path d="M26.2962 11.3271C26.2556 11.3271 26.2151 11.3271 26.1746 11.3179C25.9518 11.2719 25.7898 11.088 25.7898 10.8857C25.7392 9.31333 25.3746 8.5777 25.1417 8.27425C23.2379 9.20298 21.7088 8.67885 20.6658 8.32023C20.1594 8.14551 19.9164 8.08115 19.805 8.09954C19.7746 9.64436 19.0658 10.9777 19.0354 11.0421C18.9544 11.1892 18.8025 11.2811 18.6202 11.2995C18.4379 11.3087 18.2759 11.2444 18.1645 11.1064C16.9696 9.60758 16.8886 7.95241 17.9215 6.43517C19.1265 4.66046 21.6683 3.51103 23.7037 3.82367C25.1417 4.03517 26.1443 4.91793 26.5493 6.30643C28.6253 7.86965 26.8126 10.9593 26.7316 11.088C26.6506 11.2352 26.4784 11.3271 26.2962 11.3271ZM23.0151 4.68804C21.4759 4.68804 19.6632 5.61678 18.7822 6.91333C18.3164 7.59379 17.9417 8.59609 18.4784 9.75471C18.6405 9.24896 18.8025 8.58689 18.7924 7.89724C18.7924 7.80528 18.8227 7.71333 18.8734 7.63977C19.4101 6.90413 20.2607 7.19839 21.0202 7.45586C22.043 7.80528 23.3088 8.24666 24.9493 7.30873C25.1012 7.21678 25.3037 7.21678 25.4658 7.29954C25.6075 7.3731 26.1443 7.71333 26.4886 8.83517C26.5898 8.13632 26.4784 7.39149 25.7999 6.94092C25.6987 6.87655 25.6278 6.7754 25.5974 6.67425C25.3139 5.56161 24.605 4.89034 23.5316 4.73402C23.3696 4.69724 23.1974 4.68804 23.0151 4.68804Z" fill="#026E9E"/>
<path d="M22.436 25.5519C22.1525 25.5519 21.9297 25.3496 21.9297 25.0921V18.8484C21.9297 18.591 22.1525 18.3887 22.436 18.3887C22.7196 18.3887 22.9423 18.591 22.9423 18.8484V25.0921C22.9423 25.3496 22.7094 25.5519 22.436 25.5519Z" fill="#026E9E"/>
<path d="M22.4376 22.9774C22.3161 22.9774 22.1844 22.9314 22.0933 22.8487L19.5616 20.6694C19.43 20.559 19.3793 20.3935 19.4199 20.228L19.835 18.6096L18.4983 18.0395C18.2958 17.9567 18.1743 17.7544 18.2148 17.5521L18.5287 15.6763C18.5692 15.428 18.8325 15.2533 19.1059 15.29C19.3793 15.3268 19.5718 15.5659 19.5312 15.8142L19.268 17.3498L20.635 17.9291C20.8477 18.0211 20.9692 18.2418 20.9186 18.4533L20.473 20.182L22.792 22.1774C22.9945 22.3521 23.0047 22.6464 22.8123 22.8303C22.7009 22.9222 22.5692 22.9774 22.4376 22.9774Z" fill="#026E9E"/>
<path d="M22.4363 22.9776C22.3047 22.9776 22.1731 22.9316 22.0718 22.8305C21.8794 22.6466 21.8895 22.3523 22.092 22.1776L24.411 20.1822L23.9655 18.4535C23.9148 18.242 24.0262 18.0213 24.249 17.9293L25.6161 17.35L25.3528 15.8144C25.3123 15.5661 25.5047 15.327 25.7781 15.2903C26.0515 15.2535 26.3148 15.419 26.3553 15.6765L26.6693 17.5523C26.6996 17.7546 26.5882 17.9569 26.3857 18.0397L25.049 18.6098L25.4642 20.2282C25.5047 20.3845 25.4541 20.55 25.3224 20.6696L22.7908 22.8489C22.6794 22.9316 22.5579 22.9776 22.4363 22.9776Z" fill="#026E9E"/>
<path d="M14.8122 32.2465C14.7514 32.2465 14.6805 32.2373 14.6198 32.2097L12.3919 31.373L10.1641 32.2097C10.002 32.2741 9.81976 32.2557 9.67799 32.1546C9.53621 32.0534 9.4552 31.9063 9.46533 31.75L9.64761 29.5707L8.08811 27.9063C7.97672 27.7867 7.93621 27.6212 7.99697 27.4649C8.05773 27.3086 8.18938 27.1982 8.36153 27.1615L10.7008 26.6465L11.9565 24.789C12.0476 24.6511 12.2096 24.5684 12.3919 24.5684C12.5641 24.5684 12.7362 24.6511 12.8274 24.789L14.083 26.6465L16.4223 27.1615C16.5944 27.1982 16.7362 27.3178 16.7868 27.4649C16.8375 27.612 16.8071 27.7867 16.6957 27.9063L15.1261 29.5707L15.3084 31.75C15.3185 31.9063 15.2476 32.0626 15.0957 32.1546C15.0248 32.2097 14.9236 32.2465 14.8122 32.2465ZM12.3919 30.4166C12.4527 30.4166 12.5236 30.4258 12.5843 30.4534L14.2349 31.0787L14.0932 29.4603C14.083 29.3408 14.1236 29.2212 14.2147 29.1293L15.3793 27.8879L13.6375 27.5109C13.5058 27.4833 13.3944 27.4097 13.3236 27.3086L12.3818 25.9201L11.44 27.3086C11.3691 27.4097 11.2577 27.4833 11.1261 27.5109L9.38432 27.8879L10.5489 29.1293C10.64 29.2212 10.6805 29.3408 10.6704 29.4603L10.5286 31.0787L12.1793 30.4534C12.2704 30.4258 12.3312 30.4166 12.3919 30.4166Z" fill="#026E9E"/>
<path d="M24.8457 35.0698C24.785 35.0698 24.7141 35.0606 24.6533 35.033L22.4255 34.1962L20.1976 35.033C20.0356 35.0973 19.8533 35.079 19.7014 34.9778C19.5597 34.8859 19.4786 34.7295 19.4888 34.5732L19.671 32.3939L18.1116 30.7295C18.0002 30.61 17.9597 30.4445 18.0204 30.2882C18.0812 30.1318 18.2128 30.0215 18.385 29.9847L20.7242 29.4698L21.9799 27.6123C22.071 27.4744 22.2331 27.3916 22.4153 27.3916C22.5875 27.3916 22.7597 27.4744 22.8508 27.6123L24.1065 29.4698L26.4457 29.9847C26.6179 30.0215 26.7495 30.141 26.8103 30.2882C26.8609 30.4353 26.8305 30.61 26.709 30.7295L25.1495 32.3939L25.3318 34.5732C25.3419 34.7295 25.271 34.8859 25.1293 34.9778C25.0584 35.033 24.9571 35.0698 24.8457 35.0698ZM22.4356 33.2399C22.4964 33.2399 22.5672 33.2491 22.628 33.2767L24.2786 33.9019L24.1369 32.2836C24.1267 32.164 24.1672 32.0445 24.2584 31.9525L25.4229 30.7111L23.6812 30.3341C23.5495 30.3065 23.4381 30.233 23.3672 30.1318L22.4255 28.7433L21.4837 30.1318C21.4128 30.233 21.3014 30.3065 21.1698 30.3341L19.428 30.7111L20.5926 31.9525C20.6837 32.0445 20.7242 32.164 20.7141 32.2836L20.5824 33.8928L22.2331 33.2675C22.304 33.2491 22.3647 33.2399 22.4356 33.2399Z" fill="#026E9E"/>
<path d="M34.882 32.2465C34.8213 32.2465 34.7504 32.2373 34.6896 32.2097L32.4618 31.373L30.2339 32.2097C30.0719 32.2741 29.8896 32.2557 29.7377 32.1546C29.5959 32.0626 29.5149 31.9063 29.5352 31.75L29.7175 29.5707L28.158 27.9063C28.0466 27.7867 28.0061 27.6212 28.0567 27.4649C28.1073 27.3178 28.2491 27.1982 28.4213 27.1615L30.7605 26.6465L32.0162 24.789C32.1073 24.6511 32.2694 24.5684 32.4516 24.5684C32.6339 24.5684 32.796 24.6511 32.8871 24.789L34.1428 26.6465L36.482 27.1615C36.6542 27.1982 36.7858 27.3178 36.8466 27.4649C36.8972 27.612 36.8668 27.7867 36.7453 27.9063L35.1959 29.5707L35.3782 31.75C35.3884 31.9063 35.3175 32.0626 35.1757 32.1546C35.0947 32.2097 34.9934 32.2465 34.882 32.2465ZM32.4719 30.4166C32.5327 30.4166 32.6035 30.4258 32.6643 30.4534L34.3149 31.0787L34.1732 29.4603C34.163 29.3408 34.2035 29.2212 34.2947 29.1293L35.4592 27.8879L33.7175 27.5109C33.5858 27.4833 33.4744 27.4097 33.4035 27.3086L32.4618 25.9201L31.52 27.3086C31.4491 27.4097 31.3377 27.4833 31.2061 27.5109L29.4643 27.8879L30.6289 29.1293C30.72 29.2212 30.7605 29.3408 30.7504 29.4603L30.6086 31.0787L32.2592 30.4534C32.3403 30.4258 32.401 30.4166 32.4719 30.4166Z" fill="#026E9E"/>
<path d="M2.33608 25.0654C2.23481 25.0654 2.12342 25.0379 2.04241 24.9735C1.90064 24.8815 1.81962 24.7252 1.83988 24.5689L2.02216 22.3896L0.462662 20.7344C0.35127 20.6149 0.310763 20.4494 0.361396 20.293C0.412029 20.1367 0.553801 20.0264 0.725953 19.9896L3.06519 19.4746L4.32089 17.6172C4.41203 17.4792 4.57405 17.3965 4.75633 17.3965C4.93861 17.3965 5.09051 17.4792 5.19178 17.6172L6.44747 19.4746L8.78671 19.9896C8.95887 20.0264 9.10064 20.1459 9.15127 20.293C9.2019 20.4402 9.17152 20.6149 9.06013 20.7344L7.49051 22.3988L7.67279 24.5781C7.68292 24.7344 7.61203 24.8907 7.46013 24.9827C7.30823 25.0746 7.13608 25.093 6.97405 25.0379L4.74621 24.2011L2.51836 25.0379C2.46773 25.0563 2.40697 25.0654 2.33608 25.0654ZM4.75633 23.2448C4.82722 23.2448 4.88798 23.254 4.94874 23.2815L6.59937 23.9068L6.4576 22.2884C6.44747 22.1689 6.48798 22.0494 6.57912 21.9574L7.74367 20.716L6.0019 20.3298C5.87026 20.3022 5.75886 20.2287 5.68798 20.1275L4.74621 18.739L3.80443 20.1275C3.73355 20.2287 3.62216 20.3022 3.49051 20.3298L1.74874 20.7068L2.9133 21.9482C3.00443 22.0402 3.04494 22.1597 3.03481 22.2792L2.89304 23.8976L4.54367 23.2723C4.62469 23.254 4.69557 23.2448 4.75633 23.2448Z" fill="#026E9E"/>
<path d="M37.6994 25.0649C37.5981 25.0649 37.4867 25.0373 37.4057 24.9729C37.2639 24.881 37.1829 24.7246 37.2032 24.5683L37.3854 22.389L35.8259 20.7246C35.7146 20.6051 35.674 20.4396 35.7247 20.2833C35.7753 20.1361 35.9171 20.0166 36.0892 19.9798L38.4285 19.4649L39.6842 17.6074C39.7753 17.4695 39.9373 17.3867 40.1196 17.3867C40.3019 17.3867 40.4639 17.4695 40.5551 17.6074L41.8108 19.4649L44.15 19.9798C44.3221 20.0166 44.4538 20.1361 44.5146 20.2833C44.5652 20.4304 44.5348 20.6051 44.4133 20.7246L42.8437 22.3982L43.0259 24.5775C43.0361 24.7338 42.9652 24.8902 42.8234 24.9821C42.6816 25.0741 42.4994 25.0925 42.3272 25.0373L40.0994 24.2005L37.8715 25.0373C37.831 25.0557 37.7601 25.0649 37.6994 25.0649ZM37.1221 20.7063L38.2867 21.9476C38.3778 22.0396 38.4183 22.1591 38.4082 22.2787L38.2665 23.8971L39.9171 23.2718C40.0386 23.2258 40.1804 23.2258 40.3019 23.2718L41.9525 23.8971L41.8108 22.2787C41.8006 22.1591 41.8411 22.0396 41.9323 21.9476L43.0968 20.7063L41.3551 20.3292C41.2234 20.3017 41.112 20.2281 41.0411 20.1269L40.0994 18.7384L39.1576 20.1269C39.0867 20.2281 38.9753 20.3017 38.8437 20.3292L37.1221 20.7063Z" fill="#026E9E"/>
<path d="M2.63914 13.3865C2.3556 13.3865 2.13281 13.1842 2.13281 12.9267C2.13281 8.84393 3.6518 4.81635 6.40623 1.58876C6.57838 1.38646 6.89231 1.34968 7.11509 1.506C7.33788 1.66232 7.37838 1.94738 7.20623 2.14968C4.58345 5.22095 3.14547 9.04623 3.14547 12.9267C3.14547 13.1842 2.92269 13.3865 2.63914 13.3865Z" fill="#026E9E"/>
<path d="M2.63954 13.3865C2.48764 13.3865 2.34587 13.3221 2.2446 13.2118L0.259791 10.9957C0.087639 10.8026 0.118019 10.5083 0.330677 10.352C0.543335 10.1957 0.867386 10.2233 1.03954 10.4164L2.62941 12.2003L4.21928 10.4164C4.39144 10.2233 4.71549 10.1865 4.92815 10.352C5.15093 10.5083 5.18131 10.8026 4.99903 10.9957L3.01422 13.221C2.93321 13.3221 2.79144 13.3865 2.63954 13.3865Z" fill="#026E9E"/>
<path d="M42.2245 13.3865C41.941 13.3865 41.7182 13.1842 41.7182 12.9267C41.7182 9.04623 40.2802 5.22095 37.6574 2.14968C37.4853 1.94738 37.5258 1.66232 37.7485 1.506C37.9713 1.34968 38.2853 1.38646 38.4574 1.58876C41.2118 4.81635 42.7308 8.84393 42.7308 12.9267C42.7308 13.1842 42.508 13.3865 42.2245 13.3865Z" fill="#026E9E"/>
<path d="M42.2232 13.3865C42.0713 13.3865 41.9295 13.3221 41.8282 13.2118L39.8535 10.9957C39.6814 10.8026 39.7118 10.5083 39.9244 10.352C40.1371 10.1957 40.4611 10.2233 40.6333 10.4164L42.2232 12.2003L43.813 10.4164C43.9852 10.2233 44.3092 10.1865 44.5219 10.352C44.7346 10.5083 44.7751 10.8026 44.5928 10.9957L42.608 13.221C42.527 13.3221 42.3751 13.3865 42.2232 13.3865Z" fill="#026E9E"/>
</svg>
