<svg width="34" height="36" viewBox="0 0 34 36" fill="none" xmlns="http://www.w3.org/2000/svg">
<g clip-path="url(#clip0_2451_83315)">
<path d="M1.04738 29.0256L4.95171 29.938C5.04805 29.9603 5.14438 29.9718 5.24015 29.9718C5.49175 29.9718 5.73881 29.8958 5.95585 29.7473C6.25561 29.5434 6.46301 29.2265 6.53895 28.8566L6.67211 28.2109L7.71591 28.1572C7.58048 28.4034 7.50681 28.6846 7.52098 28.9773C7.54195 29.419 7.74538 29.824 8.07801 30.0883L8.19021 30.1776C8.43841 30.3743 8.72968 30.4702 9.01981 30.4702C9.09461 30.4702 9.16828 30.4582 9.24195 30.4455C9.26291 30.7297 9.36038 31.0152 9.54625 31.2674C9.80181 31.6138 10.1843 31.8117 10.5974 31.8117H10.6093C10.6728 31.8117 10.7328 31.7972 10.794 31.7876C10.8263 32.0471 10.9221 32.3047 11.0921 32.5346C11.3477 32.881 11.7307 33.0796 12.1438 33.0796H12.1557C12.2317 33.079 12.3042 33.0645 12.3767 33.0506C12.4181 33.2811 12.5065 33.508 12.6493 33.7138C12.9054 34.0825 13.2919 34.2925 13.7118 34.2925H13.7237C13.773 34.2925 13.82 34.2792 13.8682 34.2726C13.8977 34.5387 13.994 34.803 14.168 35.0384C14.4235 35.3847 14.806 35.5827 15.2191 35.5827H15.231C15.6487 35.579 16.0334 35.3733 16.2862 35.0184L17.0506 33.9443L18.0377 34.6654C18.3182 34.867 18.6475 34.9738 18.9897 34.9738C19.3241 34.9738 19.6442 34.8724 19.9145 34.6811C20.233 34.4566 20.4568 34.1326 20.5747 33.7609C20.8331 33.9322 21.1283 34.0264 21.4434 34.0264C21.8542 34.0264 22.2458 33.8646 22.5439 33.5738C22.7632 33.3614 22.9128 33.091 22.9989 32.7971C23.1683 32.8653 23.3474 32.904 23.5282 32.904C23.9288 32.904 24.3045 32.738 24.589 32.4345C24.8502 32.1527 24.9964 31.7755 25.014 31.3833C25.4123 31.3404 25.7841 31.1624 26.0731 30.854C26.7497 30.1251 26.7485 28.9441 26.0708 28.223L26.0578 28.2091C26.6035 28.1989 27.1526 28.083 27.6762 27.8501L27.6852 27.8465L27.8246 28.1699C27.9731 28.5145 28.2383 28.777 28.5721 28.9085C28.7234 28.9683 28.8798 28.9978 29.0356 28.9978C29.2249 28.9978 29.4136 28.9544 29.5904 28.8675L33.2227 27.0915C33.8902 26.7657 34.1843 25.9221 33.8783 25.2106L29.706 15.5313C29.3994 14.8204 28.6078 14.506 27.9397 14.8343L24.3073 16.6096C23.9838 16.7677 23.7373 17.0502 23.6137 17.4056C23.4896 17.761 23.5038 18.1466 23.6517 18.4906L23.8466 18.9432C22.7586 19.2123 21.644 19.1598 20.6478 18.7766C19.1082 18.1859 17.5068 18.076 16.438 18.0893C16.438 18.0887 16.3882 18.0881 16.2414 18.105L16.0827 18.1225C15.5512 18.178 14.1646 18.3518 12.7802 18.7561C11.372 19.1689 9.94291 19.1755 8.61295 18.7869L8.68151 18.4538C8.83905 17.6898 8.38401 16.9319 7.66605 16.7641L3.76171 15.8517C3.41265 15.7709 3.05735 15.8384 2.75815 16.0424C2.45838 16.2464 2.25098 16.5632 2.17505 16.9331L0.0307792 27.3359C-0.125621 28.0999 0.329413 28.8572 1.04625 29.025L1.04738 29.0256ZM8.86795 29.2102L8.75518 29.1209C8.67131 29.054 8.65431 28.9634 8.65205 28.9158C8.64978 28.8675 8.65771 28.7764 8.73478 28.7009L9.61255 27.8416C9.66185 27.7927 9.72361 27.7686 9.78595 27.7686C9.84318 27.7686 9.89985 27.7891 9.94745 27.8302C10.0211 27.8935 10.0381 27.975 10.0415 28.0178C10.0455 28.0607 10.0415 28.144 9.98145 28.2206L9.21645 29.1698C9.12975 29.2784 8.97618 29.2965 8.86851 29.2109L8.86795 29.2102ZM10.6002 30.6048C10.5832 30.6109 10.4931 30.5964 10.4087 30.4823C10.3492 30.4021 10.3498 30.2898 10.411 30.2108C10.4722 30.1317 11.2185 29.1535 11.2185 29.1535C11.2281 29.1451 11.2355 29.1336 11.2445 29.1246C11.2842 29.0787 11.338 29.0534 11.3936 29.0534C11.4378 29.0534 11.4831 29.0684 11.5205 29.1004C11.6066 29.1734 11.6231 29.3092 11.5562 29.4027L10.7612 30.5191C10.7079 30.5934 10.6371 30.6048 10.6002 30.6048ZM12.1467 31.8727C12.0928 31.8823 12.039 31.8624 11.9551 31.7502C11.8956 31.6699 11.8962 31.5577 11.9574 31.4786C12.0186 31.3996 12.7802 30.4009 12.7802 30.4009C12.821 30.3477 12.8805 30.3206 12.94 30.3206C12.9848 30.3206 13.0295 30.3357 13.0675 30.3677C13.1548 30.4419 13.1706 30.5746 13.1026 30.6694L12.3082 31.7864C12.2549 31.8606 12.1841 31.8721 12.1467 31.8727ZM13.7146 33.0856C13.684 33.0808 13.6138 33.0711 13.5344 32.9559C13.4608 32.8496 13.4619 32.6915 13.5361 32.5877L14.3606 31.44C14.4054 31.3772 14.4564 31.3597 14.491 31.3555C14.5261 31.3525 14.5726 31.3573 14.6219 31.402C14.7244 31.4943 14.7426 31.6826 14.661 31.8045L13.8659 32.9933C13.8149 33.0693 13.7554 33.0856 13.7141 33.0862L13.7146 33.0856ZM16.1791 33.1737L15.3846 34.2901C15.3313 34.3643 15.2605 34.3764 15.2231 34.3764C15.1738 34.3746 15.1149 34.3661 15.0316 34.2539C14.9726 34.1736 14.9726 34.0614 15.0344 33.9817L15.8578 32.904C15.928 32.8122 16.0572 32.7965 16.1439 32.8708C16.2301 32.9438 16.2465 33.0796 16.1791 33.1731V33.1737ZM24.6785 17.8262C24.6893 17.7954 24.7165 17.7393 24.7822 17.7073L28.4145 15.932C28.4417 15.9193 28.4701 15.9127 28.4973 15.9127C28.5726 15.9127 28.6452 15.9585 28.678 16.0358L32.8498 25.7145C32.8957 25.8207 32.8516 25.9468 32.7518 25.9951C32.6521 26.0434 29.1195 27.771 29.1195 27.771C29.0555 27.8024 28.9971 27.7879 28.967 27.7771C28.9381 27.7656 28.8855 27.7366 28.856 27.6666L24.6842 17.9873C24.6536 17.9179 24.6677 17.8564 24.6779 17.825L24.6785 17.8262ZM24.3306 20.0608L27.2126 26.747C26.0821 27.2352 24.8066 27.0203 23.8721 26.1791L17.8887 20.8163L17.645 20.5978C17.5827 20.5423 17.5124 20.5049 17.4393 20.482C17.4155 20.4747 17.3917 20.4777 17.3679 20.4741C17.3169 20.4657 17.2659 20.4572 17.2149 20.4639C17.2093 20.4645 17.2036 20.4615 17.1974 20.4627C17.173 20.4663 17.1526 20.4826 17.1288 20.4898C17.084 20.5031 17.0404 20.5164 16.9996 20.5411C16.9696 20.5592 16.9463 20.5846 16.9203 20.6081C16.8959 20.6298 16.867 20.6443 16.846 20.6709C16.8375 20.6811 16.8358 20.6944 16.8285 20.7052C16.8217 20.7149 16.8115 20.7197 16.8052 20.73L15.2928 23.1969C15.1744 23.3888 14.976 23.504 14.763 23.504C14.7097 23.504 14.644 23.492 14.5731 23.4702C14.3963 23.4117 14.2575 23.2796 14.1827 23.0979C14.1073 22.9145 14.1107 22.7141 14.1918 22.5349L15.3081 20.068C15.4883 19.6703 15.8351 19.3909 16.2074 19.3246L16.4471 19.2986C17.428 19.2902 18.886 19.3843 20.2659 19.9147C21.5369 20.4035 22.9615 20.4512 24.3306 20.0626V20.0608ZM10.6133 20.2816C11.4321 20.2816 12.2623 20.1615 13.0834 19.9208C13.4783 19.8055 13.871 19.712 14.2456 19.6335L13.1701 22.0117C12.9479 22.5065 12.9389 23.0786 13.1451 23.5813C13.3508 24.0821 13.7498 24.4617 14.2507 24.6265C14.4354 24.6826 14.6032 24.7103 14.7635 24.7103C15.3597 24.7103 15.9116 24.3923 16.2408 23.8571L17.4042 21.9598L24.8972 28.6792L25.2712 29.0781C25.5098 29.3315 25.5087 29.7485 25.2712 30.005C25.0582 30.2325 24.6859 30.2524 24.4439 30.0406L19.9446 26.0337C19.7032 25.8189 19.3467 25.8551 19.1461 26.1091C18.9455 26.365 18.9773 26.7458 19.2175 26.9594L23.7061 30.956L23.7616 31.0073C23.8687 31.1033 23.8897 31.2246 23.892 31.2885C23.8948 31.3531 23.8846 31.4786 23.786 31.5848C23.6608 31.7188 23.4415 31.7284 23.3021 31.615L18.7245 27.7777C18.478 27.5707 18.1222 27.6165 17.9289 27.8784C17.7351 28.1403 17.7771 28.5193 18.023 28.7257L21.7539 31.8527C21.7539 31.8527 21.7568 31.857 21.759 31.8588C21.9183 31.9915 21.9477 32.1671 21.9506 32.2601C21.954 32.3536 21.937 32.5334 21.7823 32.6825C21.6304 32.8297 21.4032 32.9414 21.1255 32.7048L17.5498 29.652C17.305 29.4426 16.9492 29.486 16.7531 29.7449C16.557 30.005 16.5967 30.3852 16.8404 30.5934L19.332 32.7211C19.332 32.7211 19.3337 32.7235 19.3348 32.7247C19.4725 32.8412 19.5468 33.0174 19.5388 33.2075C19.5303 33.3994 19.4402 33.5696 19.2895 33.6758C19.0209 33.8652 18.8254 33.7747 18.6769 33.6685L17.2988 32.662C17.2263 32.3808 17.0772 32.1207 16.85 31.9276C16.565 31.6862 16.2125 31.5896 15.8736 31.6283L15.8419 31.6047C15.8362 31.1835 15.673 30.7684 15.3557 30.4817C15.0775 30.2307 14.7233 30.116 14.3703 30.1565C14.3221 30.1619 14.2762 30.1776 14.2297 30.1884C14.1606 29.8958 14.0104 29.6236 13.7747 29.4239C13.4676 29.1632 13.0834 29.0769 12.7207 29.1415C12.6878 28.7667 12.5224 28.4059 12.2277 28.156C11.9183 27.8935 11.5301 27.8078 11.1658 27.8754C11.1244 27.488 10.9482 27.1392 10.662 26.893C10.1577 26.4579 9.43065 26.4646 8.92801 26.8876L6.92485 26.9908L8.37268 19.9684C9.10085 20.1754 9.85225 20.2828 10.6138 20.2828L10.6133 20.2816ZM1.13975 27.5948L3.28401 17.1932C3.29931 17.1184 3.34521 17.0779 3.37128 17.0598C3.39111 17.0459 3.42908 17.026 3.47781 17.026C3.49085 17.026 3.50558 17.0272 3.52031 17.0309L7.42465 17.9433C7.53175 17.9686 7.60031 18.0815 7.57708 18.1955L7.41105 19.0005V19.0011L5.43281 28.5971C5.40901 28.7106 5.30475 28.7836 5.19595 28.7589L1.29161 27.8465C1.18451 27.8211 1.11595 27.7077 1.13918 27.5942L1.13975 27.5948Z" fill="#026E9E"/>
<path d="M11.4531 6.89242C11.4531 9.94647 16.0352 16.0353 16.5582 16.7196C16.6653 16.8602 16.8274 16.9422 16.9974 16.9422C17.1674 16.9422 17.3295 16.8602 17.4366 16.7196C17.9596 16.0353 22.5417 9.94647 22.5417 6.89242C22.5417 3.63682 20.054 0.988281 16.9974 0.988281C13.9408 0.988281 11.4531 3.63682 11.4531 6.89242ZM21.4083 6.89242C21.4083 8.90432 18.5427 13.2491 16.9974 15.3679C15.4515 13.2491 12.5865 8.90492 12.5865 6.89242C12.5865 4.30242 14.5653 2.19518 16.9974 2.19518C19.4295 2.19518 21.4083 4.30242 21.4083 6.89242Z" fill="#026E9E"/>
<path d="M13.6992 6.83075C13.6992 8.76963 15.1799 10.347 17.0006 10.347C18.8213 10.347 20.302 8.76963 20.302 6.83075C20.302 4.89187 18.8213 3.31445 17.0006 3.31445C15.1799 3.31445 13.6992 4.89187 13.6992 6.83075ZM19.1687 6.83075C19.1687 8.10402 18.1957 9.14014 17.0006 9.14014C15.8055 9.14014 14.8326 8.10402 14.8326 6.83075C14.8326 5.55747 15.8055 4.52135 17.0006 4.52135C18.1957 4.52135 19.1687 5.55747 19.1687 6.83075Z" fill="#026E9E"/>
</g>
<defs>
<clipPath id="clip0_2451_83315">
<rect width="34" height="35" fill="white" transform="translate(0 0.851562)"/>
</clipPath>
</defs>
</svg>
