<svg width="35" height="36" viewBox="0 0 35 36" fill="none" xmlns="http://www.w3.org/2000/svg">
<path d="M15.4482 2.2207C16.4805 2.2207 17.3463 2.92149 17.5664 3.86133H21.1611C21.4207 3.86133 21.6367 4.06522 21.6367 4.32422C21.6366 4.58315 21.4206 4.78711 21.1611 4.78711H17.5674C17.3489 5.72725 16.482 6.42871 15.4482 6.42871C14.4131 6.42867 13.5451 5.72727 13.3262 4.78711H12.1689C10.9232 4.78713 9.75171 5.25585 8.87012 6.10645C7.9913 6.95802 7.50781 8.08657 7.50781 9.28418C7.50791 11.7608 9.59559 13.7812 12.1689 13.7812H13.332C13.5628 12.855 14.4243 12.168 15.4482 12.168C16.4707 12.168 17.3302 12.8551 17.5605 13.7812H21.252C21.4828 12.855 22.3442 12.168 23.3682 12.168C24.3906 12.168 25.2501 12.8551 25.4805 13.7812H25.7871C28.8808 13.7812 31.4043 16.2106 31.4043 19.2041V21.7783C31.4043 24.7718 28.8808 27.2012 25.7871 27.2012H25.4863C25.2673 28.1407 24.4014 28.8418 23.3682 28.8418C22.3335 28.8418 21.4656 28.1409 21.2461 27.2012H16.626C16.3664 27.2012 16.1494 26.9973 16.1494 26.7383C16.1496 26.4794 16.3665 26.2764 16.626 26.2764H21.2461C21.4658 25.3354 22.3335 24.6328 23.3682 24.6328C24.4013 24.6328 25.2671 25.3356 25.4863 26.2764H25.7871C28.3629 26.2764 30.4521 24.2549 30.4521 21.7783V19.2041C30.4521 16.7279 28.3628 14.707 25.7871 14.707H25.4922C25.2842 15.6607 24.4117 16.376 23.3682 16.376C22.3231 16.376 21.4487 15.6609 21.2402 14.707H17.5723C17.3643 15.6607 16.4918 16.376 15.4482 16.376C14.4032 16.3759 13.5288 15.6609 13.3203 14.707H12.1689C9.0775 14.707 6.55673 12.2775 6.55664 9.28418C6.55664 7.83803 7.14058 6.47593 8.19922 5.4502L8.40234 5.26367C9.43807 4.35732 10.765 3.86133 12.1689 3.86133H13.3262C13.5466 2.92127 14.4145 2.22071 15.4482 2.2207ZM23.3682 25.5586C22.6884 25.5586 22.1415 26.0911 22.1406 26.7383V26.7402L22.1465 26.8594C22.2093 27.4494 22.7304 27.917 23.3682 27.917C24.0463 27.917 24.5919 27.385 24.5918 26.7393C24.5918 26.0913 24.0459 25.5587 23.3682 25.5586ZM15.4482 13.0928C14.7681 13.0929 14.2209 13.6258 14.2207 14.2734C14.2207 14.9188 14.7678 15.4511 15.4482 15.4512C16.1263 15.4512 16.6729 14.9191 16.6729 14.2734C16.6727 13.6255 16.126 13.0928 15.4482 13.0928ZM23.3682 13.0928C22.688 13.0928 22.1408 13.6258 22.1406 14.2734C22.1406 14.9189 22.6876 15.4512 23.3682 15.4512C24.0463 15.4511 24.5918 14.9191 24.5918 14.2734C24.5916 13.6255 24.0459 13.0928 23.3682 13.0928ZM15.4482 3.14551C14.768 3.14559 14.2207 3.67905 14.2207 4.32715C14.2208 4.97238 14.7678 5.50382 15.4482 5.50391C16.1263 5.50391 16.6727 4.97268 16.6729 4.32715C16.6729 3.67875 16.126 3.14551 15.4482 3.14551Z" fill="#026E9E" stroke="#026E9E" stroke-width="0.2"/>
<path d="M26.4854 0.303711C26.7447 0.303809 26.9608 0.506816 26.9609 0.765625V0.842773H32.3838C32.5282 0.842833 32.6653 0.906894 32.7559 1.01758L34.7451 3.45312L34.791 3.51953C34.8811 3.68031 34.8654 3.88096 34.7451 4.02832L32.7559 6.46387C32.6653 6.57454 32.5281 6.63861 32.3838 6.63867H26.9609V11.7295C26.9609 11.9884 26.7448 12.1923 26.4854 12.1924C26.2258 12.1924 26.0098 11.9885 26.0098 11.7295V0.765625C26.0099 0.506754 26.2259 0.303711 26.4854 0.303711ZM26.9609 5.71289H32.1543L33.7656 3.74023L32.1543 1.76855H26.9609V5.71289Z" fill="#026E9E" stroke="#026E9E" stroke-width="0.2"/>
<path d="M7.46582 16.1973C11.4968 16.1973 14.7822 19.362 14.7822 23.2598C14.7822 23.97 14.5502 24.844 14.1738 25.7959C13.7967 26.7498 13.2711 27.7909 12.6797 28.8369C11.4968 30.9288 10.0429 33.0497 8.95801 34.5557C8.23439 35.5607 6.69811 35.5601 5.97461 34.5566H5.97363C4.88872 33.0505 3.43578 30.9289 2.25293 28.8369C1.66151 27.7909 1.13594 26.7498 0.758789 25.7959C0.382453 24.844 0.150391 23.97 0.150391 23.2598C0.150424 19.3621 3.43504 16.1975 7.46582 16.1973ZM7.46582 17.1221C3.95304 17.1223 1.1016 19.879 1.10156 23.2598C1.10156 23.9054 1.34302 24.7523 1.74023 25.7041C2.13636 26.6532 2.6831 27.697 3.28418 28.7334C4.48636 30.8063 5.90219 32.843 6.75391 34.0254C7.10044 34.5058 7.83264 34.5056 8.17871 34.0254C9.03042 32.8432 10.4463 30.8063 11.6484 28.7334C12.2495 27.697 12.7963 26.6532 13.1924 25.7041C13.5896 24.7523 13.8311 23.9054 13.8311 23.2598C13.831 19.8789 10.9788 17.1221 7.46582 17.1221Z" fill="#026E9E" stroke="#026E9E" stroke-width="0.2"/>
<path d="M7.46484 19.8096C9.43161 19.8096 11.0381 21.3542 11.0381 23.2607C11.0379 25.1668 9.43145 26.7119 7.46484 26.7119C5.49843 26.7117 3.89272 25.1666 3.89258 23.2607C3.89258 21.3544 5.49834 19.8098 7.46484 19.8096ZM7.46484 20.7344C6.01633 20.7346 4.84375 21.8712 4.84375 23.2607C4.84389 24.6497 6.01634 25.7859 7.46484 25.7861C8.91355 25.7861 10.0868 24.6498 10.0869 23.2607C10.0869 21.8712 8.91355 20.7344 7.46484 20.7344Z" fill="#026E9E" stroke="#026E9E" stroke-width="0.2"/>
</svg>
