<svg width="31" height="35" viewBox="0 0 31 35" fill="none" xmlns="http://www.w3.org/2000/svg">
<g clip-path="url(#clip0_2451_83274)">
<path d="M6.42188 10.9062V11.7031" stroke="#026E9E" stroke-miterlimit="10" stroke-linecap="round" stroke-linejoin="round"/>
<path d="M13.0567 12.3645C13.0567 11.3922 12.3418 11.3008 11.46 11.3008C10.5782 11.3008 9.86328 11.3922 9.86328 12.3645C9.86328 13.3369 10.5782 14.1252 11.46 14.1252C12.3419 14.1251 13.0567 13.3369 13.0567 12.3645Z" stroke="#026E9E" stroke-miterlimit="10" stroke-linecap="round" stroke-linejoin="round"/>
<path d="M16.4922 10.9062V11.7031" stroke="#026E9E" stroke-miterlimit="10" stroke-linecap="round" stroke-linejoin="round"/>
<path d="M7.41406 7.15057V3.53906" stroke="#026E9E" stroke-miterlimit="10" stroke-linecap="round" stroke-linejoin="round"/>
<path d="M10.1094 3.55371V7.15061" stroke="#026E9E" stroke-miterlimit="10" stroke-linecap="round" stroke-linejoin="round"/>
<path d="M12.8047 7.15057V3.53906" stroke="#026E9E" stroke-miterlimit="10" stroke-linecap="round" stroke-linejoin="round"/>
<path d="M15.5 3.55371V7.15061" stroke="#026E9E" stroke-miterlimit="10" stroke-linecap="round" stroke-linejoin="round"/>
<path d="M15.5012 0.8125H7.41423C6.66983 0.8125 6.06641 1.4071 6.06641 2.14062C6.06641 2.87415 6.66983 3.46875 7.41423 3.46875H15.5012C16.2456 3.46875 16.849 2.87415 16.849 2.14062C16.849 1.4071 16.2456 0.8125 15.5012 0.8125Z" stroke="#026E9E" stroke-miterlimit="10" stroke-linecap="round" stroke-linejoin="round"/>
<path d="M8.09035 31.2598V31.8244C8.09035 32.9246 7.18522 33.8165 6.06861 33.8165C4.95201 33.8165 4.04688 32.9246 4.04688 31.8244V31.2598" stroke="#026E9E" stroke-miterlimit="10" stroke-linecap="round" stroke-linejoin="round"/>
<path d="M0.675781 11.2383C0.675781 9.03778 2.48611 7.25391 4.71926 7.25391H18.1975C20.4307 7.25391 22.241 9.03778 22.241 11.2383V16.1336" stroke="#026E9E" stroke-miterlimit="10" stroke-linecap="round" stroke-linejoin="round"/>
<path d="M14.8765 31.1602H4.71926C2.48611 31.1602 0.675781 29.3763 0.675781 27.1758V13.5625" stroke="#026E9E" stroke-miterlimit="10" stroke-linecap="round" stroke-linejoin="round"/>
<path d="M6.06658 16.5508C6.81098 16.5508 7.4144 17.1454 7.4144 17.8789V25.8477C7.4144 26.5812 6.81098 27.1758 6.06658 27.1758C5.32217 27.1758 4.71875 26.5812 4.71875 25.8477V17.8789C4.71875 17.1454 5.32217 16.5508 6.06658 16.5508Z" stroke="#026E9E" stroke-miterlimit="10" stroke-linecap="round" stroke-linejoin="round"/>
<path d="M12.4942 26.6961C12.2469 26.9892 11.8742 27.1758 11.4572 27.1758C10.7128 27.1758 10.1094 26.5812 10.1094 25.8477V17.8789C10.1094 17.1454 10.7128 16.5508 11.4572 16.5508C12.2016 16.5508 12.805 17.1454 12.805 17.8789V22.1953" stroke="#026E9E" stroke-miterlimit="10" stroke-linecap="round" stroke-linejoin="round"/>
<path d="M21.3554 33.8166C26.3108 33.8166 30.3279 29.8582 30.3279 24.9752C30.3279 20.0922 26.3108 16.1338 21.3554 16.1338C16.4 16.1338 12.3828 20.0922 12.3828 24.9752C12.3828 29.8582 16.4 33.8166 21.3554 33.8166Z" stroke="#026E9E" stroke-miterlimit="10" stroke-linecap="round" stroke-linejoin="round"/>
<path d="M23.4688 26.5835C23.7714 26.2579 24.0423 25.8958 24.275 25.4987C25.3051 23.7405 25.3579 21.6818 24.603 19.9011C24.3705 19.3528 23.7924 19.0238 23.1943 19.0997C21.2519 19.3458 19.4688 20.4202 18.4387 22.1784C17.4085 23.9366 17.3558 25.9954 18.1107 27.7761C18.3431 28.3243 18.9213 28.6533 19.5194 28.5774C20.2343 28.4869 20.9277 28.2841 21.5698 27.9763" stroke="#026E9E" stroke-miterlimit="10" stroke-linecap="round" stroke-linejoin="round"/>
<path d="M21.9372 22.3965C19.0722 25.6146 18.3675 28.8828 18.9911 31.2601" stroke="#026E9E" stroke-miterlimit="10" stroke-linecap="round" stroke-linejoin="round"/>
<path d="M22.2811 24.5732H20.375" stroke="#026E9E" stroke-miterlimit="10" stroke-linecap="round" stroke-linejoin="round"/>
</g>
<defs>
<clipPath id="clip0_2451_83274">
<rect width="31" height="34" fill="white" transform="translate(0 0.314453)"/>
</clipPath>
</defs>
</svg>
