<svg width="35" height="36" viewBox="0 0 35 36" fill="none" xmlns="http://www.w3.org/2000/svg">
<g clip-path="url(#clip0_2451_83310)">
<path d="M34.6472 20.5714C33.8523 19.0461 31.9639 18.4512 30.4385 19.2468L28.3153 20.3533C28.3045 20.3338 28.2936 20.3135 28.2806 20.2939L26.9951 18.3048C26.9501 18.2352 26.9458 18.1649 26.982 18.0903C27.1509 17.7396 27.3016 17.3765 27.4298 17.012C27.4574 16.9338 27.5103 16.8874 27.5907 16.87L29.9052 16.3729C30.4117 16.2642 30.7661 15.8265 30.7661 15.3077V11.7838C30.7661 11.2657 30.4125 10.828 29.9052 10.7185L27.5907 10.2214C27.5096 10.2041 27.4567 10.1577 27.4298 10.0794C27.3016 9.7142 27.1516 9.35188 26.9827 9.00116C26.9465 8.92652 26.9509 8.85623 26.9965 8.78666L28.282 6.79753C28.5632 6.36203 28.5038 5.80261 28.1371 5.43594L25.6451 2.94391C25.2784 2.57724 24.719 2.51782 24.2835 2.79898L22.2943 4.08449C22.2248 4.12942 22.1545 4.13377 22.0798 4.09753C21.7298 3.92869 21.3668 3.77797 21.0016 3.65043C20.9233 3.6229 20.8769 3.57 20.8596 3.48884L20.3625 1.17435C20.2538 0.667824 19.8161 0.313477 19.2972 0.313477H15.7733C15.2552 0.313477 14.8168 0.6671 14.7081 1.17435L14.211 3.48884C14.1936 3.57 14.1472 3.6229 14.069 3.64971C13.7038 3.77797 13.3407 3.92869 12.9907 4.09681C12.9161 4.13304 12.8458 4.12869 12.7762 4.08377L10.7871 2.79826C10.3516 2.5171 9.79216 2.57652 9.42549 2.94319L6.93346 5.43594C6.5668 5.80261 6.50738 6.36203 6.78854 6.79753L8.07405 8.78666C8.11897 8.85623 8.12332 8.92652 8.08709 9.00116C7.91825 9.35188 7.76752 9.7142 7.63999 10.0794C7.61245 10.1577 7.55955 10.2041 7.47839 10.2214L5.1639 10.7185C4.65738 10.8272 4.30303 11.2649 4.30303 11.7838V15.3077C4.30303 15.8258 4.65665 16.2642 5.1639 16.3729L7.47839 16.87C7.55955 16.8874 7.61245 16.9338 7.63926 17.012C7.76752 17.378 7.91825 17.7403 8.08636 18.0903C8.1226 18.1649 8.11825 18.2352 8.07332 18.3048L6.78781 20.2939C6.50665 20.7294 6.56607 21.2888 6.93274 21.6555L6.9552 21.678L5.17477 22.6062L4.62404 21.5497C4.33999 21.0048 3.66535 20.7925 3.12115 21.0765L0.669696 22.3541C0.406653 22.491 0.211725 22.7236 0.122595 23.0077C0.0327399 23.2917 0.0595515 23.5939 0.196508 23.857L5.81752 34.6439C6.01607 35.0251 6.4052 35.2432 6.80738 35.2432C6.98057 35.2432 7.15665 35.2026 7.32042 35.1171L9.77187 33.8396C10.0349 33.7026 10.2298 33.47 10.319 33.1859C10.4081 32.9019 10.382 32.5997 10.2451 32.3367L9.69434 31.2801L10.2081 31.012C10.4182 30.9026 10.6509 30.9222 10.982 30.9932L16.4654 32.17C16.9153 32.2664 17.4023 32.3555 17.9059 32.3555C18.4277 32.3555 18.969 32.2599 19.5067 31.9801L33.3211 24.7809C34.0574 24.3968 34.6016 23.7468 34.8523 22.9504C35.1045 22.1526 35.0313 21.3084 34.6472 20.5714ZM7.54796 21.0403C7.4726 20.9649 7.461 20.8548 7.51897 20.7656L8.80448 18.7765C9.01535 18.4504 9.03999 18.062 8.87042 17.712C8.71607 17.3917 8.57767 17.0591 8.46028 16.7236C8.33202 16.3577 8.04071 16.1004 7.661 16.0193L5.34651 15.5222C5.24289 15.4997 5.17332 15.4135 5.17332 15.3077V11.7838C5.17332 11.678 5.24289 11.591 5.34723 11.5693L7.66173 11.0722C8.04144 10.991 8.33274 10.7338 8.461 10.3678C8.57839 10.0338 8.71607 9.70116 8.87115 9.38014C9.03999 9.03014 9.01607 8.64174 8.8052 8.31565L7.5197 6.32652C7.46245 6.23739 7.47404 6.12724 7.54868 6.05188L10.0407 3.55985C10.1168 3.48377 10.2248 3.47217 10.3153 3.53087L12.3045 4.81638C12.6306 5.02724 13.019 5.05188 13.369 4.88304C13.69 4.72869 14.0219 4.59029 14.3574 4.4729C14.7233 4.34464 14.9806 4.05333 15.0617 3.67362L15.5588 1.35913C15.5813 1.25551 15.6675 1.18522 15.7733 1.18522H19.2972C19.4038 1.18522 19.49 1.25478 19.5117 1.35913L20.0088 3.67362C20.09 4.05333 20.3472 4.34464 20.7132 4.4729C21.048 4.59029 21.3806 4.72797 21.7009 4.88304C22.0509 5.05188 22.4393 5.02797 22.7654 4.8171L24.7545 3.53159C24.8436 3.47362 24.9538 3.48594 25.0291 3.56058L27.5211 6.05261C27.5965 6.12797 27.6081 6.23811 27.5501 6.32724L26.2646 8.31637C26.0538 8.64319 26.0291 9.03087 26.198 9.38087C26.353 9.70188 26.4907 10.0345 26.6081 10.3693C26.7364 10.7352 27.0277 10.9925 27.4074 11.0736L29.7219 11.5707C29.8255 11.5932 29.8958 11.6794 29.8958 11.7852V15.3091C29.8958 15.4157 29.8262 15.5019 29.7226 15.5236L27.4081 16.0207C27.0284 16.1019 26.7371 16.3591 26.6088 16.7251C26.4914 17.0591 26.3538 17.3917 26.1987 17.7128C26.0298 18.0628 26.0538 18.4512 26.2654 18.7772L27.5443 20.7555L21.9654 23.6628C21.9878 23.533 22.0023 23.4012 22.0081 23.2678C22.0436 22.441 21.7523 21.6751 21.2487 21.0932C22.532 20.462 23.632 19.5156 24.4545 18.3272C25.4298 16.9185 25.9451 15.2649 25.9451 13.5461C25.9451 8.9084 22.1726 5.13594 17.5349 5.13594C12.8972 5.13594 9.12477 8.9084 9.12477 13.5461C9.12477 15.9077 10.1081 18.1258 11.8067 19.7041L11.6153 19.6961C11.0755 19.6729 10.6023 19.778 10.1233 20.0272L7.7639 21.257L7.54796 21.0403ZM13.2748 19.7671C11.219 18.357 9.99434 16.0403 9.99434 13.5454C9.99434 9.38739 13.3769 6.00478 17.5349 6.00478C21.6929 6.00478 25.0755 9.38739 25.0755 13.5454C25.0755 16.5838 23.2943 19.278 20.5182 20.4722C20.0813 20.2041 19.5726 20.0396 19.0255 20.0156L13.2748 19.7671ZM9.48999 32.9243C9.47042 32.9874 9.42767 33.0381 9.37042 33.0678L6.91897 34.3454C6.80158 34.407 6.65013 34.3591 6.58854 34.2417L0.968247 23.4548C0.906653 23.3374 0.954479 23.1859 1.07187 23.1243L3.52332 21.8468C3.5581 21.8287 3.59651 21.82 3.63419 21.82C3.72332 21.82 3.811 21.8678 3.85375 21.9504L9.47477 32.7374C9.50448 32.7954 9.51028 32.8613 9.48999 32.9243ZM34.024 22.6881C33.8429 23.2635 33.4509 23.7323 32.9204 24.0091L19.1059 31.2084C18.3827 31.5852 17.6298 31.5301 16.6487 31.32L11.1653 30.1432C10.7349 30.0504 10.2719 29.999 9.80665 30.241L9.29288 30.5091L5.57622 23.3772L10.5248 20.7983C10.8675 20.62 11.1922 20.5475 11.5777 20.5642L18.9871 20.8845C20.2269 20.9381 21.1914 21.9903 21.1385 23.2301C21.1125 23.828 20.8538 24.3816 20.4088 24.7888C19.9639 25.1961 19.3893 25.4062 18.7929 25.3809L13.8067 25.1656C13.5661 25.1555 13.3639 25.3417 13.3538 25.5816C13.3436 25.8214 13.5291 26.0243 13.7697 26.0345L18.7559 26.2497C18.8016 26.2519 18.8472 26.2526 18.8929 26.2526C19.6726 26.2526 20.4153 25.9635 20.9972 25.4294C21.1733 25.2678 21.3277 25.0888 21.4603 24.8975L21.4639 24.9041L30.8407 20.0178C31.9407 19.4446 33.303 19.8729 33.8762 20.9736C34.1523 21.5041 34.2052 22.1128 34.024 22.6881ZM17.5349 11.7816C18.8059 11.7816 19.84 10.7475 19.84 9.47652C19.84 8.2055 18.8059 7.17145 17.5349 7.17145C16.2639 7.17145 15.2298 8.2055 15.2298 9.47652C15.2298 10.7475 16.2639 11.7816 17.5349 11.7816ZM17.5349 8.04101C18.3262 8.04101 18.9704 8.68521 18.9704 9.47652C18.9704 10.2678 18.3262 10.912 17.5349 10.912C16.7436 10.912 16.0994 10.2678 16.0994 9.47652C16.0994 8.68449 16.7436 8.04101 17.5349 8.04101ZM19.3545 18.8178L19.1262 17.9932H20.5407C21.2349 17.9932 21.7994 17.4287 21.7994 16.7345V16.5374C21.7994 14.1859 19.8864 12.2736 17.5356 12.2736C15.1849 12.2736 13.2719 14.1867 13.2719 16.5374V16.7345C13.2719 17.4287 13.8364 17.9932 14.5306 17.9932H15.9451L15.7168 18.8178C15.6682 18.9925 15.7335 19.1787 15.8806 19.2852C16.0269 19.3917 16.2248 19.3961 16.3755 19.2961L17.5349 18.5301L18.6958 19.2968C18.7682 19.3446 18.8523 19.3685 18.9356 19.3685C19.0255 19.3685 19.1153 19.341 19.1914 19.2852C19.3371 19.1787 19.4023 18.9925 19.3545 18.8178ZM14.1407 16.7345V16.5374C14.1407 14.6657 15.6632 13.1432 17.5349 13.1432C19.4067 13.1432 20.9291 14.6657 20.9291 16.5374V16.7345C20.9291 16.949 20.7545 17.1236 20.54 17.1236H19.4269L20.0711 16.6106C20.2132 16.4975 20.2697 16.3084 20.2139 16.1359C20.1581 15.9635 20.0009 15.8439 19.8197 15.8359L18.4298 15.7743L17.9414 14.4722C17.8777 14.3026 17.7154 14.1903 17.5342 14.1903C17.353 14.1903 17.1907 14.3026 17.1269 14.4722L16.6385 15.7743L15.2487 15.8359C15.0675 15.8439 14.9103 15.9635 14.8545 16.1359C14.7987 16.3084 14.8552 16.4975 14.9972 16.6106L15.6414 17.1236H14.5284C14.3146 17.1236 14.1407 16.949 14.1407 16.7345ZM18.069 17.4323L18.2074 17.9323L17.7748 17.6468C17.7023 17.599 17.6182 17.5751 17.5349 17.5751C17.4516 17.5751 17.3682 17.599 17.2951 17.6468L16.8625 17.9323L17.0009 17.4323C17.0472 17.2642 16.9893 17.0852 16.853 16.9765L16.4472 16.6533L16.9654 16.6301C17.1393 16.6222 17.2922 16.5113 17.353 16.3483L17.5349 15.8628L17.7168 16.3483C17.7777 16.5113 17.9306 16.6222 18.1045 16.6301L18.6226 16.6533L18.2168 16.9765C18.0806 17.0845 18.0226 17.2642 18.069 17.4323Z" fill="#026E9E"/>
</g>
<defs>
<clipPath id="clip0_2451_83310">
<rect width="35" height="35" fill="white" transform="translate(0 0.314453)"/>
</clipPath>
</defs>
</svg>
