<svg width="34" height="36" viewBox="0 0 34 36" fill="none" xmlns="http://www.w3.org/2000/svg">
<g clip-path="url(#clip0_2451_83298)">
<path d="M9.87109 0.338867C10.189 0.338901 10.4936 0.46744 10.7178 0.696289C10.942 0.925237 11.0674 1.2357 11.0674 1.55859V2.11816C11.0674 2.29235 11 2.4601 10.8789 2.58398C10.7575 2.70798 10.5916 2.77832 10.4189 2.77832H9.9707V10.4189H12.3389C12.8749 10.4196 13.3882 10.6371 13.7666 11.0234C14.1449 11.4098 14.3578 11.9331 14.3584 12.4785V14.5381H13.6094V12.4785L13.6035 12.3496C13.5742 12.0517 13.445 11.7717 13.2363 11.5586C12.998 11.3152 12.675 11.1792 12.3389 11.1787H1.91992L1.79395 11.1846C1.50365 11.2143 1.2301 11.3456 1.02148 11.5586C0.782976 11.8022 0.648863 12.1332 0.648438 12.4785V27.5986C0.648913 27.9437 0.783259 28.2741 1.02148 28.5176C1.25994 28.7611 1.58361 28.898 1.91992 28.8984H7.22949V29.6582H3.37305C3.33407 30.1473 3.21951 30.5529 3.03223 30.8438C2.8309 31.1564 2.54472 31.3389 2.19336 31.3389C1.82124 31.3388 1.52287 31.1338 1.32031 30.7871C1.12647 30.4554 1.01765 29.9897 1.00098 29.4287C0.679489 29.2611 0.40731 29.0096 0.213867 28.6982C0.00951813 28.3692 -0.0990682 27.9879 -0.0996094 27.5986V12.4785C-0.0990001 11.9331 0.113009 11.4097 0.491211 11.0234C0.869522 10.6371 1.38302 10.4196 1.91895 10.4189H4.28711V2.77832H3.83887C3.66622 2.77832 3.50131 2.70798 3.37988 2.58398C3.25854 2.46006 3.19043 2.29252 3.19043 2.11816V1.55859C3.19043 1.2357 3.31584 0.925237 3.54004 0.696289C3.76421 0.467422 4.06881 0.338969 4.38672 0.338867H9.87109ZM1.76562 29.6504C1.79237 29.9301 1.84706 30.1593 1.92285 30.3213C2.01167 30.5111 2.11005 30.578 2.19336 30.5781C2.27612 30.5781 2.37448 30.5127 2.46289 30.3271C2.5393 30.1666 2.59389 29.938 2.62109 29.6582H1.91895C1.86787 29.6578 1.81649 29.6548 1.76562 29.6504ZM5.03516 10.4189H9.22266V2.77832H5.03516V10.4189ZM4.38672 1.09863C4.26862 1.09873 4.15448 1.14647 4.07031 1.23242C3.98611 1.31852 3.93848 1.43603 3.93848 1.55859V2.01855H10.3193V1.55859C10.3193 1.43597 10.2718 1.31853 10.1875 1.23242C10.1033 1.14641 9.98928 1.09867 9.87109 1.09863H4.38672Z" fill="#026E9E" stroke="#026E9E" stroke-width="0.2"/>
<path d="M9.97266 18.8184V19.5781H3.01758C2.9722 19.5782 2.92826 19.5965 2.89551 19.6299C2.86264 19.6634 2.84379 19.7095 2.84375 19.7578V26.4775C2.84375 26.5259 2.8626 26.5728 2.89551 26.6064C2.92824 26.6397 2.97229 26.6581 3.01758 26.6582H4.7627V27.418H3.01758C2.77235 27.4179 2.538 27.318 2.36523 27.1416C2.19246 26.9652 2.0957 26.7262 2.0957 26.4775V19.7578C2.09574 19.5092 2.19249 19.2702 2.36523 19.0938C2.53798 18.9175 2.77249 18.8184 3.01758 18.8184H9.97266Z" fill="#026E9E" stroke="#026E9E" stroke-width="0.2"/>
<path d="M24.0518 5.37109C24.2964 5.35789 24.5359 5.44405 24.7178 5.61035L33.6904 13.8477C33.7804 13.9303 33.8532 14.0303 33.9053 14.1416C33.9573 14.2528 33.9877 14.3732 33.9941 14.4961C34.0005 14.6191 33.9826 14.7422 33.9424 14.8584C33.9022 14.9746 33.8406 15.082 33.7598 15.1738L29.3604 20.1709C29.2943 20.2458 29.2011 20.2913 29.1016 20.2969C29.0022 20.3023 28.9047 20.2674 28.8311 20.2002L28.7119 20.1035C28.4253 19.8923 28.075 19.7867 27.7197 19.8076C27.3138 19.8316 26.9327 20.0186 26.6602 20.3281C26.3876 20.6378 26.2458 21.0453 26.2656 21.4619C26.2855 21.8786 26.4659 22.2697 26.7666 22.5508H26.7656C26.802 22.5841 26.8315 22.6242 26.8525 22.6689C26.8736 22.7139 26.8861 22.7629 26.8887 22.8125C26.8913 22.8621 26.8844 22.9121 26.8682 22.959C26.852 23.0057 26.8266 23.0489 26.7939 23.0859L16.3447 34.9551C16.1812 35.1401 15.9518 35.2523 15.707 35.2656C15.4625 35.2789 15.223 35.1925 15.041 35.0264V35.0254L6.06836 26.7891C5.9784 26.7065 5.90558 26.6063 5.85352 26.4951C5.80151 26.384 5.7711 26.2635 5.76465 26.1406C5.75826 26.0178 5.77535 25.8944 5.81543 25.7783C5.85562 25.6622 5.91822 25.5547 5.99902 25.4629L16.4482 13.5938C16.5141 13.519 16.6068 13.4735 16.7061 13.4678H16.707C16.7564 13.4648 16.806 13.4715 16.8525 13.4883C16.899 13.505 16.9413 13.5318 16.9775 13.5654C17.1285 13.704 17.305 13.8109 17.4961 13.8799C17.6871 13.9488 17.8896 13.9787 18.0918 13.9678C18.2941 13.9568 18.4928 13.9047 18.6758 13.8154C18.8585 13.7262 19.0225 13.6013 19.1582 13.4473C19.2939 13.2931 19.399 13.1127 19.4668 12.917C19.5345 12.7212 19.5645 12.5131 19.5537 12.3057C19.5429 12.0983 19.4919 11.8952 19.4043 11.708C19.3167 11.5207 19.1939 11.3525 19.043 11.2139C18.9694 11.1463 18.9251 11.0521 18.9199 10.9521C18.9147 10.8522 18.9486 10.7537 19.0146 10.6787L23.4141 5.68164C23.5776 5.49652 23.807 5.38443 24.0518 5.37109ZM24.0264 6.14648C24.0062 6.15637 23.9878 6.17021 23.9727 6.1875L23.9717 6.18848L19.7979 10.9277C20.1276 11.3486 20.3077 11.8719 20.3027 12.4121C20.2975 12.9811 20.0891 13.5288 19.7168 13.9531C19.3435 14.3772 18.8309 14.6479 18.2754 14.7139C17.7493 14.7764 17.2208 14.6493 16.7764 14.3594L6.55664 25.9697C6.52585 26.005 6.50935 26.0517 6.51172 26.0996C6.51423 26.1479 6.53588 26.1929 6.57031 26.2246L15.542 34.4619C15.5764 34.4934 15.6216 34.5093 15.667 34.5068C15.7123 34.5043 15.7551 34.4834 15.7861 34.4482L26.0078 22.8369C25.7077 22.456 25.5318 21.9883 25.5078 21.499C25.4849 21.0623 25.582 20.6273 25.7891 20.2441C25.9962 19.861 26.3048 19.5446 26.6797 19.3311C27.0546 19.1175 27.4811 19.0157 27.9102 19.0371C28.309 19.0571 28.6947 19.184 29.0303 19.4023L33.2012 14.667C33.2323 14.6316 33.2486 14.5844 33.2461 14.5361C33.2435 14.488 33.2229 14.4428 33.1885 14.4111V14.4121L24.2168 6.1748C24.182 6.14336 24.1365 6.12766 24.0908 6.12988C24.0686 6.13105 24.0466 6.1366 24.0264 6.14648Z" fill="#026E9E" stroke="#026E9E" stroke-width="0.2"/>
<path d="M20.8519 14.4731L21.815 15.3575L21.3162 15.924L20.353 15.0396L20.8519 14.4731Z" fill="#026E9E" stroke="#026E9E" stroke-width="0.2"/>
<path d="M22.6878 16.1586L23.651 17.043L23.1521 17.6096L22.1889 16.7252L22.6878 16.1586Z" fill="#026E9E" stroke="#026E9E" stroke-width="0.2"/>
<path d="M24.7269 18.0307L25.69 18.9151L25.1912 19.4816L24.228 18.5972L24.7269 18.0307Z" fill="#026E9E" stroke="#026E9E" stroke-width="0.2"/>
<path d="M11.6172 13.7783V14.5381H3.24902C3.29787 15.1356 3.2897 15.6119 3.21973 15.96C3.1494 16.3096 3.01022 16.5622 2.76953 16.6475L2.76855 16.6484C2.71473 16.667 2.65942 16.6802 2.60352 16.6895L2.43359 16.7031C2.24792 16.7017 2.06484 16.6579 1.89844 16.5742V16.5732C1.62563 16.4437 1.41372 16.211 1.30762 15.9248L1.30664 15.9229C1.2239 15.6791 1.33139 15.4112 1.55859 15.1377C1.7848 14.8654 2.14867 14.563 2.64258 14.2324V13.7783H11.6172ZM2.53125 15.2471C2.35085 15.389 2.18996 15.555 2.05273 15.7412C2.09848 15.8049 2.15795 15.8568 2.22754 15.8916C2.29556 15.9255 2.37042 15.9418 2.44531 15.9404C2.50329 15.7137 2.53305 15.4811 2.53125 15.2471Z" fill="#026E9E" stroke="#026E9E" stroke-width="0.2"/>
<path d="M15.5947 20.2969C15.7347 20.2656 15.8796 20.2693 16.0186 20.3047L16.0195 20.3037C16.168 20.3356 16.4958 20.4198 17.791 21.6094C18.039 21.4505 18.2972 21.3089 18.5645 21.1865L18.5713 21.1836C18.9096 21.0595 19.2715 21.0159 19.6289 21.0557C19.9759 21.0943 20.31 21.2108 20.6074 21.3965C21.1561 21.3673 21.7903 21.594 22.0107 22.1514L22.0117 22.1553C22.1083 22.4004 22.1685 22.7623 21.9639 23.1592C21.7608 23.5529 21.3059 23.9638 20.416 24.3301L19.3369 24.7725C19.2142 27.108 18.9993 27.4595 18.9092 27.5938C18.8338 27.7173 18.7313 27.822 18.6094 27.8984C18.486 27.9758 18.3458 28.022 18.2012 28.0342L18.1934 28.0352H18.1543C18.0284 28.0334 17.904 28.0028 17.791 27.9463C17.6783 27.8899 17.5791 27.8088 17.501 27.709V27.708C17.4287 27.6211 17.2593 27.3934 16.7744 25.835C16.329 26.0282 15.6383 26.3271 14.9951 26.5957C14.6481 26.7406 14.3144 26.8772 14.041 26.9844C13.77 27.0906 13.5513 27.1707 13.4385 27.1992L13.4375 27.1982C13.2662 27.262 13.0779 27.2582 12.9102 27.1846C12.7384 27.1091 12.6029 26.9684 12.5322 26.793V26.792L12.2939 26.1904C12.2691 26.1264 12.2128 25.9482 12.1113 25.625C11.9997 25.2692 11.8491 24.789 11.7891 24.6357L11.7539 24.5361C11.7259 24.4342 11.7202 24.3267 11.7383 24.2217C11.7624 24.0814 11.8282 23.9511 11.9258 23.8486L11.9287 23.8447C12.0328 23.7458 12.1638 23.6805 12.3047 23.6572C12.4458 23.634 12.591 23.6541 12.7207 23.7148L12.7256 23.7178C13.1003 23.9194 13.4638 24.1418 13.8154 24.3828C14.4825 23.892 15.1019 23.4458 15.6611 23.0498C14.9624 21.6025 14.9333 21.3329 14.9258 21.2129C14.9134 21.0786 14.9321 20.943 14.9805 20.8174C15.0289 20.6917 15.106 20.5793 15.2051 20.4893L15.208 20.4863L15.2695 20.5605L15.2725 20.5635L15.209 20.4863C15.3213 20.3936 15.4533 20.3285 15.5947 20.2969ZM15.7695 21.0381C15.7447 21.0417 15.7211 21.0507 15.6992 21.0635C15.6897 21.0751 15.6815 21.0879 15.6768 21.1025C15.6712 21.1198 15.6686 21.1381 15.6709 21.1562L15.6719 21.1611L15.6875 21.2266C15.7022 21.2767 15.7309 21.3608 15.7842 21.4961C15.8895 21.7635 16.0904 22.2247 16.4736 23.0059C16.5135 23.0874 16.5231 23.1805 16.501 23.2686C16.4787 23.3569 16.4259 23.4351 16.3516 23.4873C15.674 23.9639 14.8984 24.5245 14.0459 25.1533C13.9845 25.1985 13.9102 25.2239 13.834 25.2256C13.7579 25.2272 13.6834 25.2045 13.6201 25.1621L13.6182 25.1611C13.2648 24.9126 12.8995 24.6823 12.5244 24.4697C12.6016 24.6908 12.7207 25.0619 12.8242 25.3926C12.8948 25.6181 12.9724 25.8641 12.9883 25.9053L13.2129 26.4736C13.2278 26.4687 13.2425 26.4628 13.2578 26.459L13.2627 26.458C13.2859 26.4534 13.3396 26.4369 13.4248 26.4062C13.5076 26.3765 13.6146 26.3356 13.7402 26.2861C13.9917 26.1871 14.3176 26.0534 14.6748 25.9043C15.3889 25.6062 16.2293 25.2454 16.8613 24.9697C16.9098 24.9486 16.9628 24.9386 17.0156 24.9395C17.0683 24.9404 17.1203 24.952 17.168 24.9746C17.2156 24.9972 17.2577 25.0302 17.292 25.0703C17.3263 25.1105 17.3519 25.1573 17.3672 25.208C17.6345 26.094 17.8116 26.5966 17.9229 26.8799C17.9791 27.0231 18.0173 27.1089 18.042 27.1582L18.0771 27.2197L18.0791 27.2227C18.09 27.2374 18.1045 27.2493 18.1201 27.2578C18.1327 27.2647 18.1463 27.2675 18.1602 27.2695C18.1834 27.2632 18.2058 27.2537 18.2256 27.2393C18.2498 27.2215 18.2705 27.1979 18.2852 27.1709L18.2891 27.1631L18.373 27.2188L18.29 27.1631C18.3038 27.1422 18.3283 27.0802 18.3574 26.9561C18.3855 26.8364 18.4158 26.6704 18.4453 26.4521C18.5043 26.0154 18.5615 25.3749 18.6025 24.4912C18.6059 24.419 18.6297 24.3493 18.6709 24.29C18.7019 24.2455 18.7417 24.208 18.7881 24.1807L18.8359 24.1562L20.1338 23.6221C20.4134 23.5068 20.7708 23.3334 21.0273 23.1191C21.2877 22.9016 21.4102 22.6741 21.3164 22.4365L21.3154 22.4355C21.2773 22.3386 21.1771 22.2578 21.0293 22.207C20.8832 22.1569 20.7067 22.1417 20.5488 22.1641C20.4952 22.1717 20.4405 22.1683 20.3887 22.1523C20.3406 22.1376 20.2972 22.1115 20.2588 22.0791V22.0801C20.054 21.9379 19.8194 21.8473 19.5742 21.8145C19.3304 21.7818 19.082 21.8064 18.8496 21.8887C18.5381 22.0373 18.2379 22.2096 17.9512 22.4033L17.9492 22.4053C17.8798 22.4496 17.7978 22.4695 17.7158 22.4619C17.6338 22.4543 17.5564 22.4196 17.4961 22.3633C16.8489 21.7586 16.4462 21.4288 16.2002 21.25C16.0773 21.1607 15.9947 21.1097 15.9414 21.0811C15.9149 21.0668 15.8961 21.0586 15.8838 21.0537C15.8718 21.0489 15.8662 21.0479 15.8662 21.0479L15.8564 21.0459V21.0449C15.8283 21.0361 15.7986 21.0338 15.7695 21.0381Z" fill="#026E9E" stroke="#026E9E" stroke-width="0.2"/>
</g>
<defs>
<clipPath id="clip0_2451_83298">
<rect width="34" height="35" fill="white" transform="translate(0 0.314453)"/>
</clipPath>
</defs>
</svg>
