<svg width="85" height="81" viewBox="0 0 85 81" fill="none" xmlns="http://www.w3.org/2000/svg">
<path d="M44.2839 1.93066H41.2539C20.129 1.93066 3.00391 19.0558 3.00391 40.1807C3.00391 61.3056 20.129 78.4307 41.2539 78.4307H44.2839C65.4088 78.4307 82.5339 61.3056 82.5339 40.1807C82.5339 19.0558 65.4088 1.93066 44.2839 1.93066Z" stroke="white" stroke-width="1.5" stroke-miterlimit="10"/>
<path d="M41.8252 20.8604C49.1152 20.8604 55.0352 26.7704 55.0352 34.0704C55.0352 41.3604 48.9552 49.6604 41.8252 52.0204C34.6952 49.6604 28.6152 41.3604 28.6152 34.0704C28.6152 26.7804 34.5252 20.8604 41.8252 20.8604Z" stroke="white" stroke-width="1.5" stroke-miterlimit="10"/>
<path d="M41.825 20.8604C44.975 20.8604 47.525 26.7704 47.525 34.0704C47.525 41.3604 44.905 49.6604 41.825 52.0204C38.745 49.6604 36.125 41.3604 36.125 34.0704C36.125 26.7804 38.675 20.8604 41.825 20.8604Z" stroke="white" stroke-width="1.5" stroke-miterlimit="10"/>
<path d="M46.8362 49.3V57.12C46.8362 58.44 45.7662 59.5 44.4562 59.5H39.2062C37.8862 59.5 36.8262 58.43 36.8262 57.12V49.29" stroke="white" stroke-width="1.5" stroke-miterlimit="10"/>
<path d="M36.8145 55.3408H46.8344" stroke="white" stroke-width="1.5" stroke-miterlimit="10"/>
<path d="M75.8145 34.3307C75.8145 32.8907 74.6445 31.7207 73.2045 31.7207H71.5745V30.4007C71.5745 28.5307 70.0545 27.0107 68.1845 27.0107C66.3145 27.0107 64.7945 28.5307 64.7945 30.4007V31.4807H61.7545C60.3145 31.4807 59.1445 32.6507 59.1445 34.0907V34.3307C59.1445 35.7707 60.3145 36.9407 61.7545 36.9407H73.2045C74.6445 36.9407 75.8145 35.7707 75.8145 34.3307Z" stroke="white" stroke-width="1.5" stroke-miterlimit="10"/>
<path d="M26.3946 46.1501C26.3946 44.7101 25.2246 43.5401 23.7846 43.5401H22.1546V42.2201C22.1546 40.3501 20.6346 38.8301 18.7646 38.8301C16.8946 38.8301 15.3746 40.3501 15.3746 42.2201V43.3001H12.3346C10.8946 43.3001 9.72461 44.4701 9.72461 45.9101V46.1501C9.72461 47.5901 10.8946 48.7601 12.3346 48.7601H23.7846C25.2246 48.7601 26.3946 47.5901 26.3946 46.1501Z" stroke="white" stroke-width="1.5" stroke-miterlimit="10"/>
</svg>
