<?xml version="1.0" encoding="UTF-8"?>
<svg id="Layer_1" data-name="Layer 1" xmlns="http://www.w3.org/2000/svg" viewBox="0 0 83.53 80.69">
  <defs>
    <style>
      .cls-1 {
        fill: none;
        stroke: #fff;
        stroke-miterlimit: 10;
        stroke-width: 1.5px;
      }
    </style>
  </defs>
  <rect class="cls-1" x="2.43" y="1.79" width="79.53" height="76.5" rx="38.25" ry="38.25"/>
  <g>
    <g>
      <path class="cls-1" d="M41.25,20.72c7.29,0,13.21,5.91,13.21,13.21,0,7.29-6.08,15.59-13.21,17.95-7.13-2.36-13.21-10.66-13.21-17.95s5.91-13.21,13.21-13.21Z"/>
      <path class="cls-1" d="M41.25,20.72c3.15,0,5.7,5.91,5.7,13.21,0,7.29-2.62,15.59-5.7,17.95-3.08-2.36-5.7-10.66-5.7-17.95s2.55-13.21,5.7-13.21Z"/>
      <path class="cls-1" d="M46.26,49.16v7.82c0,1.32-1.07,2.38-2.38,2.38h-5.25c-1.32,0-2.38-1.07-2.38-2.38v-7.83"/>
      <line class="cls-1" x1="36.24" y1="55.2" x2="46.26" y2="55.2"/>
    </g>
    <path class="cls-1" d="M75.24,34.19h0c0-1.44-1.17-2.61-2.61-2.61h-1.63v-1.32c0-1.87-1.52-3.39-3.39-3.39h0c-1.87,0-3.39,1.52-3.39,3.39v1.08h-3.04c-1.44,0-2.61,1.17-2.61,2.61v.24c0,1.44,1.17,2.61,2.61,2.61h11.45c1.44,0,2.61-1.17,2.61-2.61Z"/>
    <path class="cls-1" d="M25.82,46.01h0c0-1.44-1.17-2.61-2.61-2.61h-1.63v-1.32c0-1.87-1.52-3.39-3.39-3.39h0c-1.87,0-3.39,1.52-3.39,3.39v1.08h-3.04c-1.44,0-2.61,1.17-2.61,2.61v.24c0,1.44,1.17,2.61,2.61,2.61h11.45c1.44,0,2.61-1.17,2.61-2.61Z"/>
  </g>
</svg>