<?xml version="1.0" encoding="UTF-8"?>
<svg id="Layer_1" data-name="Layer 1" xmlns="http://www.w3.org/2000/svg" viewBox="0 0 83.53 80.69">
  <defs>
    <style>
      .cls-1 {
        fill: #fff;
      }

      .cls-2 {
        fill: none;
        stroke: #fff;
        stroke-miterlimit: 10;
        stroke-width: 1.5px;
      }
    </style>
  </defs>
  <rect class="cls-2" x="1.88" y="2.59" width="79.53" height="76.5" rx="38.25" ry="38.25"/>
  <g>
    <path class="cls-1" d="M52.33,23.54c.4-.29.71-.7.87-1.21h0c.19-.61.14-1.26-.16-1.83-.29-.57-.79-.99-1.4-1.18-.61-.19-1.26-.14-1.83.16-.57.29-.99.79-1.18,1.4-.16.51-.14,1.03.02,1.49-6.93-1.48-14.18.89-18.9,6.31-.16.18-.22.44-.15.67.07.23.25.42.48.49l14.81,4.71-6.13,19.29h-11.55c-.4,0-.72.32-.72.72s.32.72.72.72h30.69c.4,0,.72-.32.72-.72s-.32-.72-.72-.72h-15.32l5.78-18.19,14.81,4.71c.07.02.15.03.22.03.16,0,.33-.06.46-.16.19-.15.29-.39.26-.63-.72-7.15-5.27-13.26-11.78-16.06ZM61.65,35.34l-27.43-8.72c.58-.4,1.18-.77,1.8-1.1l24.79,7.88c.31.63.59,1.27.84,1.94ZM50,21.32c.08-.24.24-.44.47-.56.14-.07.29-.11.44-.11.1,0,.19.02.29.05.24.08.44.24.56.47.12.23.14.48.06.73-.16.5-.69.78-1.2.62-.5-.16-.78-.7-.62-1.2ZM50.08,24.24c4.05,1.29,7.42,3.91,9.66,7.31l-21.77-6.92c3.8-1.48,8.06-1.68,12.11-.39ZM41.05,53.84h-.78l5.99-18.85.71.22-5.92,18.63ZM31.6,28.81c.39-.39.8-.76,1.22-1.12l29.35,9.33c.14.53.26,1.07.35,1.61l-30.91-9.83Z"/>
    <path class="cls-1" d="M21.77,34.42c.13.23.38.36.63.36.12,0,.25-.03.36-.1.35-.2.46-.64.26-.99-.64-1.1-1.83-1.79-3.1-1.79-.93,0-1.81.37-2.47.99-.66-.63-1.54-.99-2.47-.99-1.27,0-2.46.69-3.1,1.79-.2.35-.08.79.26.99.35.2.79.08.99-.26.38-.66,1.09-1.07,1.85-1.07s1.46.41,1.85,1.07c.13.22.37.36.63.36s.5-.14.63-.36c.38-.66,1.09-1.07,1.85-1.07s1.46.41,1.85,1.07Z"/>
    <path class="cls-1" d="M29.45,40.18c.13.23.38.36.63.36.12,0,.25-.03.36-.1.35-.2.46-.64.26-.99-.64-1.1-1.83-1.79-3.1-1.79-.93,0-1.81.37-2.47.99-.66-.63-1.54-.99-2.47-.99-1.27,0-2.46.69-3.1,1.79-.2.35-.08.79.26.99.35.2.79.08.99-.26.38-.66,1.09-1.07,1.85-1.07s1.46.41,1.85,1.07c.13.22.37.36.63.36s.5-.14.63-.36c.38-.66,1.09-1.07,1.85-1.07s1.46.41,1.85,1.07Z"/>
  </g>
</svg>