<svg width="50" height="50" viewBox="0 0 50 50" fill="none" xmlns="http://www.w3.org/2000/svg">
<g clip-path="url(#clip0_2470_1616)">
<path d="M25.7038 0.991211H23.8901C11.245 0.991211 0.994141 11.6029 0.994141 24.693C0.994141 37.7832 11.245 48.3949 23.8901 48.3949H25.7038C38.3489 48.3949 48.5998 37.7832 48.5998 24.693C48.5998 11.6029 38.3489 0.991211 25.7038 0.991211Z" stroke="white" stroke-width="1.5" stroke-miterlimit="10"/>
<path d="M20.1191 29.8054V27.0479C20.1191 25.9015 19.6762 24.7985 18.892 23.9806L14.3368 19.265C13.6065 18.509 13.6065 17.2821 14.3368 16.5261C14.7019 16.1481 15.1808 15.9561 15.6596 15.9561C16.1385 15.9561 16.6174 16.1481 16.9825 16.5261L20.0174 19.6678C21.2864 20.9815 23.0043 21.7188 24.8001 21.7188C25.698 21.7188 26.5779 21.533 27.386 21.1859C28.1941 20.8389 28.9423 20.3246 29.5768 19.6678L32.6176 16.5261C33.3479 15.7702 34.5331 15.7702 35.2634 16.5261C35.6285 16.9041 35.8081 17.3999 35.8081 17.8956C35.8081 18.3913 35.6285 18.887 35.2634 19.265L30.7081 23.9806C29.924 24.7923 29.481 25.9015 29.481 27.0479V29.8054" stroke="white" stroke-width="1.5" stroke-miterlimit="10"/>
<path d="M24.7993 18.2981C26.4952 18.2981 27.87 16.8749 27.87 15.1193C27.87 13.3636 26.4952 11.9404 24.7993 11.9404C23.1033 11.9404 21.7285 13.3636 21.7285 15.1193C21.7285 16.8749 23.1033 18.2981 24.7993 18.2981Z" stroke="white" stroke-width="1.5" stroke-miterlimit="10"/>
<path d="M24.7987 25.0898L26.2772 29.8054H31.0719L27.1931 32.724L28.6776 37.4458L24.7987 34.5272L20.9199 37.4458L22.3984 32.724L18.5195 29.8054H23.3142L24.7987 25.0898Z" stroke="white" stroke-width="1.5" stroke-miterlimit="10"/>
</g>
<defs>
<clipPath id="clip0_2470_1616">
<rect width="50" height="50" fill="white"/>
</clipPath>
</defs>
</svg>
