<svg width="50" height="50" viewBox="0 0 50 50" fill="none" xmlns="http://www.w3.org/2000/svg">
<g clip-path="url(#clip0_2470_1604)">
<path d="M25.8894 1.2207H24.0757C11.4306 1.2207 1.17969 11.8324 1.17969 24.9225C1.17969 38.0127 11.4306 48.6243 24.0757 48.6243H25.8894C38.5345 48.6243 48.7853 38.0127 48.7853 24.9225C48.7853 11.8324 38.5345 1.2207 25.8894 1.2207Z" stroke="white" stroke-width="1.5" stroke-miterlimit="10"/>
<path d="M37.8548 19.0609C37.6393 18.8192 37.3041 18.6767 36.9509 18.6767H36.2386C36.2386 18.6767 36.2086 18.6767 36.1907 18.6767H29.3967C29.7678 18.5094 30.127 18.2925 30.4562 18.0261C31.4559 17.2205 32.671 15.1881 31.6833 13.1866C31.2463 12.3067 30.3784 11.749 29.3548 11.6932C28.002 11.6188 26.7031 12.4244 25.7812 13.8992C25.3562 14.5746 25.057 15.3244 24.8834 16.1175C24.7098 15.3244 24.4105 14.5746 23.9855 13.8992C23.0637 12.4244 21.7647 11.6188 20.4119 11.6932C19.3883 11.749 18.5204 12.3067 18.0834 13.1866C17.0957 15.1881 18.3109 17.2143 19.3105 18.0261C19.6457 18.2925 20.0049 18.5094 20.37 18.6767H12.5166C12.1634 18.6767 11.8282 18.8192 11.6127 19.0609C11.4511 19.2406 11.3732 19.4699 11.3912 19.693L11.7144 23.7207C11.7504 24.1979 12.1993 24.5573 12.75 24.5573H13.4204L14.1507 36.7707C14.1806 37.3036 14.6715 37.7187 15.2581 37.7187H34.4129C34.9995 37.7187 35.4903 37.3036 35.5203 36.7707L36.2505 24.5573H36.7174C37.2681 24.5573 37.7171 24.1979 37.753 23.7207L38.0762 19.693C38.0942 19.4699 38.0164 19.2406 37.8548 19.0609ZM19.7295 17.4684C19.1728 17.016 17.7961 15.3244 18.694 13.5088C19.0172 12.852 19.6757 12.4368 20.4478 12.3996C20.4897 12.3996 20.5316 12.3996 20.5795 12.3996C21.633 12.3996 22.6626 13.0812 23.4168 14.2896C24.3446 15.7767 24.4584 17.3569 24.3626 18.4846C23.7161 18.6271 21.3098 18.7511 19.7295 17.4746V17.4684ZM18.1672 19.3831H19.2088C19.3943 19.5442 19.5081 19.7797 19.5081 20.04C19.5081 20.5109 19.1369 20.8951 18.682 20.8951C18.2271 20.8951 17.8559 20.5109 17.8559 20.04C17.8559 19.7797 17.9757 19.5442 18.1612 19.3831H18.1672ZM12.75 23.8508C12.5465 23.8508 12.4028 23.7517 12.3908 23.6588L12.0676 19.631C12.0676 19.5938 12.0975 19.5566 12.1155 19.5318C12.1813 19.4575 12.325 19.3769 12.5166 19.3769H17.5207C17.413 19.5752 17.3472 19.7983 17.3472 20.0338C17.3472 20.7959 17.9457 21.4156 18.682 21.4156C19.4183 21.4156 20.0168 20.7959 20.0168 20.0338C20.0168 19.7983 19.951 19.5752 19.8433 19.3769H22.6027L22.6686 23.8508H12.75ZM15.2581 37.0185C15.0127 37.0185 14.8391 36.8698 14.8331 36.7335L14.1088 24.5634H22.6866L22.8721 37.0185H15.2581ZM26.1165 37.0185H23.5545L23.2911 19.3831H26.3858L26.1224 37.0185H26.1165ZM25.4101 18.4784C25.3203 17.3507 25.4281 15.7705 26.3559 14.2834C27.14 13.0255 28.2235 12.3376 29.3249 12.3996C30.103 12.443 30.7555 12.8582 31.0787 13.5088C31.9766 15.3244 30.5939 17.0222 30.0432 17.4684C28.4629 18.7511 26.0566 18.621 25.4101 18.4784ZM34.8379 36.7273C34.8319 36.8636 34.6583 37.0123 34.4129 37.0123H26.7988L26.9844 24.5573H35.5622L34.8379 36.7273ZM37.0706 23.6649C37.0646 23.7579 36.921 23.857 36.7115 23.857H26.9904L27.0562 19.3831H34.9336C34.4967 19.9904 34.4608 20.8455 34.9217 21.4838C35.2569 21.9485 35.7717 22.1964 36.2924 22.1964C36.6097 22.1964 36.9269 22.0972 37.2143 21.9113L37.0706 23.6649ZM37.2921 20.9013C37.2143 21.0748 37.1005 21.2359 36.9509 21.3536C36.46 21.7316 35.7657 21.6263 35.4065 21.1182C35.0414 20.61 35.1432 19.8912 35.634 19.5195C35.7058 19.4637 35.7836 19.4203 35.8674 19.3831H36.9509C37.1424 19.3831 37.2861 19.4699 37.3519 19.538C37.3699 19.5566 37.3998 19.6 37.3998 19.6372L37.2981 20.9075L37.2921 20.9013Z" fill="white" stroke="white" stroke-width="0.3" stroke-miterlimit="10"/>
<path d="M30.6832 20.9941C30.0846 20.9941 29.5938 21.5023 29.5938 22.1219C29.5938 22.7416 30.0846 23.2497 30.6832 23.2497C31.2818 23.2497 31.7726 22.7416 31.7726 22.1219C31.7726 21.5023 31.2818 20.9941 30.6832 20.9941ZM30.6832 22.7168C30.3659 22.7168 30.1026 22.4503 30.1026 22.1157C30.1026 21.7811 30.3599 21.5147 30.6832 21.5147C31.0064 21.5147 31.2638 21.7811 31.2638 22.1157C31.2638 22.4503 31.0064 22.7168 30.6832 22.7168Z" fill="white" stroke="white" stroke-width="0.3" stroke-miterlimit="10"/>
<path d="M14.6402 20.8086C14.0416 20.8086 13.5508 21.3167 13.5508 21.9364C13.5508 22.556 14.0416 23.0641 14.6402 23.0641C15.2388 23.0641 15.7296 22.556 15.7296 21.9364C15.7296 21.3167 15.2388 20.8086 14.6402 20.8086ZM14.6402 22.5374C14.323 22.5374 14.0596 22.271 14.0596 21.9364C14.0596 21.6018 14.317 21.3353 14.6402 21.3353C14.9634 21.3353 15.2208 21.6018 15.2208 21.9364C15.2208 22.271 14.9634 22.5374 14.6402 22.5374Z" fill="white" stroke="white" stroke-width="0.3" stroke-miterlimit="10"/>
</g>
<defs>
<clipPath id="clip0_2470_1604">
<rect width="50" height="50" fill="white"/>
</clipPath>
</defs>
</svg>
