<svg width="23" height="23" viewBox="0 0 23 23" fill="none" xmlns="http://www.w3.org/2000/svg">
<g clip-path="url(#clip0_2913_844)">
<path d="M12.0344 0.510742H11.2001C5.38337 0.510742 0.667969 5.39211 0.667969 11.4136C0.667969 17.4351 5.38337 22.3164 11.2001 22.3164H12.0344C17.8512 22.3164 22.5666 17.4351 22.5666 11.4136C22.5666 5.39211 17.8512 0.510742 12.0344 0.510742Z" stroke="#2571B8" stroke-width="0.8" stroke-miterlimit="10"/>
<path d="M11.36 5.90625C13.3673 5.90625 14.9974 7.59085 14.9974 9.67165C14.9974 11.7496 13.3233 14.1154 11.36 14.7881C9.39678 14.1154 7.72266 11.7496 7.72266 9.67165C7.72266 7.5937 9.34998 5.90625 11.36 5.90625Z" stroke="#2571B8" stroke-width="0.8" stroke-miterlimit="10"/>
<path d="M11.3586 5.90625C12.2259 5.90625 12.9281 7.59085 12.9281 9.67165C12.9281 11.7496 12.2066 14.1154 11.3586 14.7881C10.5105 14.1154 9.78906 11.7496 9.78906 9.67165C9.78906 7.5937 10.4912 5.90625 11.3586 5.90625Z" stroke="#2571B8" stroke-width="0.8" stroke-miterlimit="10"/>
<path d="M12.7406 14.0126V16.2416C12.7406 16.6179 12.446 16.92 12.0853 16.92H10.6397C10.2762 16.92 9.98438 16.615 9.98438 16.2416V14.0098" stroke="#2571B8" stroke-width="0.8" stroke-miterlimit="10"/>
<path d="M9.98047 15.7344H12.7395" stroke="#2571B8" stroke-width="0.8" stroke-miterlimit="10"/>
<path d="M20.719 9.74568C20.719 9.33522 20.3968 9.00172 20.0003 9.00172H19.5515V8.62547C19.5515 8.09244 19.133 7.65918 18.6181 7.65918C18.1032 7.65918 17.6846 8.09244 17.6846 8.62547V8.93331H16.8476C16.4511 8.93331 16.1289 9.26681 16.1289 9.67727V9.74568C16.1289 10.1561 16.4511 10.4896 16.8476 10.4896H20.0003C20.3968 10.4896 20.719 10.1561 20.719 9.74568Z" stroke="#2571B8" stroke-width="0.8" stroke-miterlimit="10"/>
<path d="M7.10962 13.1148C7.10962 12.7044 6.78746 12.3709 6.39095 12.3709H5.94213V11.9946C5.94213 11.4616 5.5236 11.0283 5.0087 11.0283C4.49379 11.0283 4.07526 11.4616 4.07526 11.9946V12.3025H3.2382C2.84169 12.3025 2.51953 12.636 2.51953 13.0464V13.1148C2.51953 13.5253 2.84169 13.8588 3.2382 13.8588H6.39095C6.78746 13.8588 7.10962 13.5253 7.10962 13.1148Z" stroke="#2571B8" stroke-width="0.8" stroke-miterlimit="10"/>
</g>
<defs>
<clipPath id="clip0_2913_844">
<rect width="23" height="23" fill="white"/>
</clipPath>
</defs>
</svg>
