<svg width="23" height="23" viewBox="0 0 23 23" fill="none" xmlns="http://www.w3.org/2000/svg">
<g clip-path="url(#clip0_2913_832)">
<path d="M11.5 0C5.14894 0 0 5.14894 0 11.5C0 17.8511 5.14894 23 11.5 23C17.8511 23 23 17.8511 23 11.5C23 5.14894 17.8511 0 11.5 0ZM11.5 21.9268C5.74146 21.9268 1.07318 17.2585 1.07318 11.5C1.07318 5.74146 5.74146 1.07318 11.5 1.07318C17.2585 1.07318 21.9268 5.74146 21.9268 11.5C21.9268 17.2585 17.2585 21.9268 11.5 21.9268Z" fill="#026E9E"/>
<path d="M10.1941 16.5184C9.79537 16.4105 9.41427 16.2457 9.0625 16.0292C8.69871 15.8027 8.36641 15.5292 8.07422 15.2157L9.02971 14.0563C9.36482 14.4615 9.73618 14.7653 10.1438 14.9677C10.5578 15.1727 11.0142 15.2773 11.4762 15.2732C12.1371 15.2732 12.6312 15.144 12.9586 14.8855C13.2859 14.6271 13.4488 14.2348 13.4473 13.7086V13.7009C13.4473 13.3658 13.3683 13.1003 13.2101 12.9045C13.0477 12.706 12.8355 12.5543 12.5952 12.4647C12.2823 12.35 11.9598 12.2634 11.6316 12.2059C11.6191 12.2017 11.6061 12.1994 11.5929 12.1992C11.5799 12.199 11.567 12.1966 11.5548 12.192L11.4811 12.1781C11.4555 12.1736 11.4312 12.1691 11.4079 12.1642C10.7838 12.048 10.2785 11.9175 9.89221 11.7729C9.50588 11.6282 9.17525 11.3663 8.90033 10.9872C8.62541 10.6078 8.4881 10.0687 8.4884 9.37002V9.36283C8.4884 8.68331 8.61178 8.11865 8.85855 7.66883C9.10616 7.2188 9.49518 6.86293 9.96543 6.65629C10.4569 6.43048 11.0728 6.31758 11.8131 6.31758C12.1381 6.3175 12.4622 6.35138 12.7802 6.41865C13.1054 6.48845 13.4226 6.59141 13.7267 6.72592C14.0507 6.86988 14.3615 7.04168 14.6557 7.23938L13.7968 8.41992C13.4843 8.2036 13.145 8.02875 12.7874 7.89973C12.4741 7.78736 12.1441 7.72874 11.8113 7.72633C11.1967 7.72633 10.7357 7.85316 10.4281 8.10682C10.1206 8.36048 9.96693 8.74111 9.96723 9.24873V9.25592C9.96723 9.60511 10.0557 9.87868 10.2327 10.0766C10.4138 10.2772 10.6435 10.4276 10.8998 10.5133C11.2607 10.6316 11.628 10.7295 11.9999 10.8066L12.0556 10.8205C12.0741 10.825 12.0952 10.83 12.1185 10.8345L12.185 10.8484L12.2515 10.8623C12.8007 10.9836 13.2604 11.1314 13.6306 11.3057C14.0008 11.48 14.3089 11.7612 14.5551 12.1493C14.8019 12.5363 14.9253 13.0624 14.9253 13.7279V13.7418C14.9253 14.3986 14.7971 14.9445 14.5407 15.3797C14.2844 15.8148 13.9015 16.1408 13.3921 16.3576C12.883 16.5741 12.2439 16.6824 11.4748 16.6824C11.0425 16.6847 10.6119 16.6295 10.1941 16.5184ZM10.8962 5.18555H12.3211V6.77803H10.8962V5.18555ZM10.8962 16.1308H12.3211V17.814H10.8962V16.1308Z" fill="#026E9E"/>
</g>
<defs>
<clipPath id="clip0_2913_832">
<rect width="23" height="23" fill="white"/>
</clipPath>
</defs>
</svg>
