<svg width="22" height="23" viewBox="0 0 22 23" fill="none" xmlns="http://www.w3.org/2000/svg">
<g clip-path="url(#clip0_2913_838)">
<path d="M21.5083 4.04581C21.4216 3.64343 21.1925 3.284 20.8615 3.03098C20.5305 2.77797 20.1188 2.64766 19.6992 2.66307C17.7639 2.74427 12.9831 3.31606 8.94171 6.73273C8.5694 4.22813 7.23244 1.95807 5.20517 0.388379C4.84589 0.112004 4.39111 -0.0170172 3.93662 0.0284926C3.48214 0.0740024 3.06343 0.290491 2.76869 0.632356C0.955122 2.71793 -2.60122 8.39613 3.24481 16.2471C2.82651 17.8609 2.54788 19.5063 2.41189 21.166C1.73466 21.4889 1.02444 21.8005 0.271114 22.0945C0.219364 22.1147 0.172181 22.1446 0.13226 22.1827C0.0923377 22.2207 0.0604587 22.2661 0.0384425 22.3162C0.0164264 22.3663 0.00470429 22.4202 0.0039456 22.4748C0.0031869 22.5293 0.0134064 22.5835 0.0340207 22.6341C0.0546349 22.6848 0.0852402 22.731 0.124089 22.7701C0.162938 22.8092 0.20927 22.8405 0.260439 22.862C0.311608 22.8836 0.366612 22.8951 0.422312 22.8958C0.478011 22.8965 0.533314 22.8865 0.585064 22.8663C1.96576 22.3295 3.3068 21.6996 4.59855 20.9811C5.88604 21.3792 7.23057 21.5718 8.58055 21.5515C20.0771 21.5222 23.3195 11.238 21.5083 4.04581ZM3.41438 1.17101C3.56729 0.992828 3.78489 0.879765 4.02128 0.855667C4.25767 0.831568 4.49438 0.898318 4.68149 1.04184C5.6776 1.81576 6.50134 2.78126 7.10193 3.87885C7.70253 4.97643 8.06725 6.18285 8.17363 7.42375C7.13962 8.42729 6.24226 9.5574 5.50382 10.786C5.42598 8.76768 5.13549 6.76259 4.63697 4.80268C4.62223 4.75008 4.59705 4.70084 4.56288 4.65777C4.52871 4.6147 4.48621 4.57864 4.43782 4.55165C4.38942 4.52466 4.33606 4.50728 4.2808 4.50049C4.22554 4.49369 4.16946 4.49763 4.11575 4.51206C4.06204 4.5265 4.01176 4.55115 3.96778 4.58462C3.9238 4.61808 3.88699 4.6597 3.85943 4.70711C3.83188 4.75451 3.81412 4.80676 3.80719 4.86088C3.80025 4.915 3.80427 4.96993 3.81901 5.02253C4.4144 7.40989 4.7029 9.86075 4.6778 12.3182C4.22426 13.2559 3.84333 14.2257 3.53823 15.2193C-1.404 8.12631 1.77305 3.05863 3.41438 1.17101ZM17.0465 17.8063C14.7056 19.7869 11.687 20.828 8.59546 20.7208C7.58437 20.7185 6.57631 20.6123 5.58783 20.4041C12.5357 16.1709 14.53 10.9573 14.627 10.6932C14.6624 10.5902 14.6552 10.4777 14.6069 10.3799C14.5586 10.2821 14.4731 10.2066 14.3687 10.1698C14.2643 10.133 14.1493 10.1377 14.0484 10.1829C13.9475 10.2282 13.8687 10.3103 13.8289 10.4118C13.804 10.4787 11.4939 16.4798 3.30977 20.7196C3.45488 19.2166 3.72323 17.7275 4.11223 16.2666C4.9711 13.0662 6.5499 10.0868 8.91107 7.87482C12.8611 4.16425 17.797 3.57449 19.7357 3.49296C19.955 3.48514 20.1702 3.55376 20.3427 3.68662C20.5153 3.81948 20.6342 4.00798 20.6783 4.2186C21.2507 6.85429 22.0421 13.4547 17.0465 17.8063Z" fill="#026E9E"/>
</g>
<defs>
<clipPath id="clip0_2913_838">
<rect width="22" height="23" fill="white"/>
</clipPath>
</defs>
</svg>
