<svg width="21" height="22" viewBox="0 0 21 22" fill="none" xmlns="http://www.w3.org/2000/svg">
<path d="M10.6974 0.945312C11.7615 0.945342 12.7739 1.18694 13.6808 1.61914C13.4116 1.84739 13.1713 2.10837 12.965 2.39551C12.264 2.1058 11.4979 1.94534 10.6974 1.94531C7.66883 1.94534 5.12382 4.22243 4.7892 7.23242L4.49916 9.84668C4.46642 10.1413 4.44848 10.3018 4.42494 10.46C4.2762 11.4586 3.95094 12.4232 3.464 13.3076C3.38693 13.4476 3.3039 13.5858 3.1515 13.8398L2.48451 14.9512C2.10969 15.5759 1.85674 16.0006 1.71693 16.3271C1.57791 16.6521 1.6064 16.7572 1.62611 16.8008C1.6384 16.8279 1.65316 16.8544 1.67006 16.8789C1.69735 16.9183 1.77283 16.997 2.12318 17.0449C2.4752 17.0931 2.96958 17.0947 3.69838 17.0947H17.6964C18.4253 17.0947 18.9196 17.0931 19.2716 17.0449C19.6212 16.997 19.6964 16.9183 19.7238 16.8789C19.7407 16.8544 19.7554 16.8279 19.7677 16.8008C19.7874 16.7573 19.8171 16.6527 19.6779 16.3271C19.5381 16.0006 19.2852 15.576 18.9103 14.9512L18.2433 13.8398C18.0908 13.5857 18.0079 13.4476 17.9308 13.3076C17.4438 12.4231 17.1176 11.4587 16.9689 10.46C16.9453 10.3018 16.9284 10.1413 16.8956 9.84668L16.8224 9.19629C17.1635 9.16821 17.4928 9.10002 17.8068 8.99707L17.8888 9.73633C17.9223 10.0379 17.938 10.1769 17.9581 10.3125C18.0894 11.1937 18.3771 12.0447 18.8068 12.8252C18.8729 12.9452 18.9447 13.0651 19.1007 13.3252L19.7677 14.4365C20.1267 15.0349 20.4236 15.5291 20.5968 15.9336C20.7703 16.339 20.8756 16.7798 20.6788 17.2139C20.6419 17.2953 20.5978 17.3737 20.547 17.4473C20.276 17.839 19.8441 17.9763 19.4074 18.0361C18.9713 18.0958 18.3945 18.0947 17.6964 18.0947H3.69838C3.00028 18.0947 2.42346 18.0958 1.98744 18.0361C1.55051 17.9763 1.11883 17.8392 0.847791 17.4473C0.796947 17.3737 0.752907 17.2953 0.715955 17.2139C0.519253 16.7799 0.623536 16.339 0.79701 15.9336C0.970159 15.5291 1.26801 15.035 1.62709 14.4365L2.29408 13.3252C2.45002 13.0653 2.52196 12.9452 2.58803 12.8252C3.01765 12.0448 3.30445 11.1936 3.43568 10.3125C3.45587 10.1769 3.47151 10.0379 3.50502 9.73633L3.79603 7.12207C4.18693 3.60564 7.15928 0.945344 10.6974 0.945312ZM15.4552 2.83301C16.5747 3.88622 17.3468 5.31036 17.5724 6.92676C17.2807 7.08694 16.9518 7.18558 16.6007 7.20605C16.4282 5.71367 15.7135 4.40271 14.6652 3.46289C14.8775 3.19836 15.1474 2.98325 15.4552 2.83301Z" fill="black"/>
<path d="M7.35307 18.0623C7.55024 18.9208 7.98469 19.6794 8.58905 20.2204C9.19342 20.7614 9.93392 21.0547 10.6957 21.0547C11.4575 21.0547 12.198 20.7614 12.8023 20.2204C13.4067 19.6794 13.8412 18.9208 14.0383 18.0623" stroke="black" stroke-linecap="round"/>
<circle cx="16.4633" cy="4.90566" r="2.30703" fill="#2571B8"/>
</svg>
