<svg width="13" height="15" viewBox="0 0 13 15" fill="none" xmlns="http://www.w3.org/2000/svg">
<path d="M6.92285 0.606445C10.278 0.606445 12.9979 3.3265 12.998 6.68164C12.998 10.9749 8.67725 13.5823 7.32324 14.2939C7.07128 14.4262 6.77442 14.4262 6.52246 14.2939C5.16845 13.5823 0.847656 10.9749 0.847656 6.68164C0.847783 3.32651 3.56769 0.606457 6.92285 0.606445ZM6.92383 4.07812C5.48598 4.07821 4.32039 5.24379 4.32031 6.68164C4.32031 8.11955 5.48593 9.28508 6.92383 9.28516C8.36179 9.28516 9.52734 8.1196 9.52734 6.68164C9.52726 5.24374 8.36174 4.07812 6.92383 4.07812Z" fill="#026E9E"/>
</svg>
