<svg width="13" height="13" viewBox="0 0 13 13" fill="none" xmlns="http://www.w3.org/2000/svg">
<rect x="0.871094" y="2.54102" width="11.5254" height="9.60449" rx="2" stroke="#2A2828" stroke-width="0.8"/>
<path d="M0.871094 5.10221C0.871094 4.58056 0.871094 4.31974 0.919466 4.10381C1.08868 3.34847 1.67855 2.7586 2.43389 2.58939C2.64982 2.54102 2.91064 2.54102 3.43229 2.54102H9.83529C10.3569 2.54102 10.6178 2.54102 10.8337 2.58939C11.589 2.7586 12.1789 3.34847 12.3481 4.10381C12.3965 4.31974 12.3965 4.58056 12.3965 5.10221V5.10221H0.871094V5.10221Z" stroke="#2A2828" stroke-width="0.8"/>
<path d="M3.43359 0.620117L3.43359 2.54102" stroke="#2A2828" stroke-width="0.8" stroke-linecap="round"/>
<path d="M9.83594 0.620117L9.83594 2.54102" stroke="#2A2828" stroke-width="0.8" stroke-linecap="round"/>
<rect x="3.43359" y="8.12402" width="2.5612" height="1.2806" rx="0.5" stroke="#2A2828" stroke-width="0.8"/>
<rect x="7.27344" y="8.12402" width="2.5612" height="1.2806" rx="0.5" stroke="#2A2828" stroke-width="0.8"/>
</svg>
