<svg width="17" height="17" viewBox="0 0 17 17" fill="none" xmlns="http://www.w3.org/2000/svg">
<path fill-rule="evenodd" clip-rule="evenodd" d="M8.53571 0.157715C3.99283 0.157715 0.305298 3.7181 0.305298 8.10433C0.305298 12.4906 3.99283 16.0509 8.53571 16.0509C13.0786 16.0509 16.7661 12.4906 16.7661 8.10433C16.7661 3.7181 13.0786 0.157715 8.53571 0.157715ZM8.53571 0.724786C12.7538 0.724786 16.1788 4.0317 16.1788 8.10433C16.1788 12.177 12.7538 15.4839 8.53571 15.4839C4.31763 15.4839 0.892603 12.177 0.892603 8.10433C0.892603 4.0317 4.31763 0.724786 8.53571 0.724786Z" fill="white"/>
<path fill-rule="evenodd" clip-rule="evenodd" d="M8.33703 3.60254V9.44781L5.48206 12.2038L5.89848 12.6058L8.83933 9.76639C8.89403 9.71301 8.9252 9.64089 8.9252 9.56536V3.60254H8.33703Z" fill="white"/>
<path fill-rule="evenodd" clip-rule="evenodd" d="M8.63109 8.61328C8.14409 8.61328 7.74884 8.9949 7.74884 9.46511C7.74884 9.93532 8.14409 10.3169 8.63109 10.3169C9.1181 10.3169 9.51335 9.93532 9.51335 9.46511C9.51335 8.9949 9.1181 8.61328 8.63109 8.61328ZM8.63109 9.18117C8.79343 9.18117 8.92518 9.30838 8.92518 9.46511C8.92518 9.62185 8.79343 9.74906 8.63109 9.74906C8.46876 9.74906 8.33701 9.62185 8.33701 9.46511C8.33701 9.30838 8.46876 9.18117 8.63109 9.18117Z" fill="white"/>
</svg>
