<svg width="37" height="37" viewBox="0 0 37 37" fill="none" xmlns="http://www.w3.org/2000/svg">
<circle cx="18.1406" cy="18.6992" r="17.5" fill="white" fill-opacity="0.01" stroke="#2571B8"/>
<g clip-path="url(#clip0_2223_8928)">
<path fill-rule="evenodd" clip-rule="evenodd" d="M18.0259 9.06689C12.6386 9.06689 8.26562 13.4399 8.26562 18.8272C8.26562 24.2145 12.6386 28.5875 18.0259 28.5875C23.4132 28.5875 27.7862 24.2145 27.7862 18.8272C27.7862 13.4399 23.4132 9.06689 18.0259 9.06689ZM18.0259 9.76339C23.0281 9.76339 27.0898 13.8251 27.0898 18.8272C27.0898 23.8294 23.0281 27.891 18.0259 27.891C13.0238 27.891 8.9621 23.8294 8.9621 18.8272C8.9621 13.8251 13.0238 9.76339 18.0259 9.76339Z" fill="#2571B8"/>
<path fill-rule="evenodd" clip-rule="evenodd" d="M17.7919 13.2979V20.4772L14.4062 23.8622L14.9001 24.356L18.3876 20.8685C18.4525 20.8029 18.4894 20.7144 18.4894 20.6216V13.2979H17.7919Z" fill="#2571B8"/>
<path fill-rule="evenodd" clip-rule="evenodd" d="M18.14 19.4526C17.5625 19.4526 17.0938 19.9214 17.0938 20.4989C17.0938 21.0764 17.5625 21.5451 18.14 21.5451C18.7175 21.5451 19.1862 21.0764 19.1862 20.4989C19.1862 19.9214 18.7175 19.4526 18.14 19.4526ZM18.14 20.1501C18.3325 20.1501 18.4887 20.3064 18.4887 20.4989C18.4887 20.6914 18.3325 20.8476 18.14 20.8476C17.9475 20.8476 17.7912 20.6914 17.7912 20.4989C17.7912 20.3064 17.9475 20.1501 18.14 20.1501Z" fill="#2571B8"/>
</g>
<defs>
<clipPath id="clip0_2223_8928">
<rect width="20.16" height="20.88" fill="white" transform="translate(8.0625 8.25879)"/>
</clipPath>
</defs>
</svg>
