<svg width="37" height="19" viewBox="0 0 37 19" fill="none" xmlns="http://www.w3.org/2000/svg">
<path d="M27.9755 10.2123C27.9883 10.0744 27.9954 9.93797 27.9954 9.80154C27.9954 7.2278 25.8932 5.13158 23.3121 5.13158C22.4284 5.13158 21.5833 5.37602 20.8507 5.83222C20.396 3.17463 17.9532 1.185 15.0927 1.34275C12.3705 1.47776 10.2156 3.46313 9.8621 6.01128C9.37039 5.83648 8.863 5.74837 8.34706 5.74837C5.76453 5.74837 3.6623 7.84317 3.6623 10.4197C3.6623 10.4752 3.66515 10.5292 3.66943 10.5874C2.36105 10.9413 0.484013 11.696 0.488289 14.3635C0.489714 16.3446 2.14157 18.0457 4.3906 18.1523L27.9099 18.0429C29.6459 17.4673 30.9485 15.6781 30.8516 13.7439C30.7704 12.0939 29.6159 10.7054 27.9755 10.2123Z" fill="#D3D3D3"/>
<path d="M9.93362 17.4602H9.92792C7.61618 17.3508 5.80612 15.5857 5.8047 13.4411C5.80042 10.7864 7.56202 9.90527 8.97871 9.49171C8.98013 6.79149 11.185 4.59436 13.8944 4.59436C14.3433 4.59436 14.7894 4.65832 15.2241 4.78622C15.7073 2.23807 17.9363 0.323757 20.6272 0.190168C20.7369 0.184483 20.8467 0.181641 20.955 0.181641C23.663 0.181641 25.969 2.00073 26.5591 4.55031C27.2631 4.17654 28.0513 3.98042 28.858 3.98042C31.5688 3.98042 33.7736 6.17897 33.7736 8.8806C33.7736 8.96161 33.7708 9.04404 33.7665 9.12789C35.4297 9.6992 36.5457 11.1275 36.6298 12.8116C36.731 14.8069 35.4283 16.7112 33.5313 17.3408L33.4957 17.3522H33.4586L9.93362 17.4602ZM13.8929 5.05624C11.4372 5.05624 9.44048 7.04872 9.44048 9.49597C9.44048 9.54429 9.44333 9.59261 9.44761 9.64519L9.46329 9.83563L9.27801 9.88537C7.87272 10.2677 6.2622 11.0166 6.26647 13.4411C6.2679 15.3384 7.8827 16.9002 9.94359 16.9997L33.4202 16.8903C35.0777 16.3218 36.2578 14.5852 36.1694 12.8329C36.0925 11.2866 35.0278 9.98201 33.4572 9.51018L33.2762 9.45618L33.2933 9.26858C33.3061 9.13784 33.3118 9.00709 33.3118 8.87918C33.3118 6.43193 31.3151 4.43946 28.8594 4.43946C28.0285 4.43946 27.2189 4.66969 26.5191 5.10456L26.227 5.28647L26.1685 4.94824C25.7253 2.35603 23.3751 0.502824 20.6514 0.649205C18.0874 0.775688 15.9781 2.65589 15.6374 5.11878L15.5975 5.40017L15.3296 5.30495C14.8635 5.14009 14.3789 5.05624 13.8929 5.05624Z" fill="#D3D3D3"/>
</svg>
