<svg width="22" height="22" viewBox="0 0 22 22" fill="none" xmlns="http://www.w3.org/2000/svg">
<g clip-path="url(#clip0_1468_391)">
<path d="M20.3632 5.11134C20.3632 4.05281 19.4676 3.19166 18.3667 3.19166H14.9189V2.82099C14.9189 1.58216 13.8707 0.574219 12.5822 0.574219H9.17952C7.89101 0.574219 6.84275 1.58216 6.84275 2.82103V3.1917H3.39486C2.29404 3.1917 1.39844 4.05285 1.39844 5.11138C1.39844 5.95628 1.96933 6.67493 2.7595 6.93075V19.1802C2.7595 20.4191 3.80776 21.427 5.09623 21.427H16.6654C17.9539 21.427 19.0021 20.4191 19.0021 19.1802V6.93075C19.7923 6.67493 20.3632 5.95628 20.3632 5.11134ZM8.11347 2.82103C8.11347 2.25588 8.59172 1.79606 9.17952 1.79606H12.5822C13.17 1.79606 13.6482 2.25588 13.6482 2.82103V3.1917H8.11347V2.82103ZM16.6654 20.2052H5.09627C4.50848 20.2052 4.03027 19.7454 4.03027 19.1802V7.03098H17.7314V19.1802C17.7314 19.7454 17.2532 20.2052 16.6654 20.2052ZM18.3667 5.80913H3.39486C2.99471 5.80913 2.66916 5.4961 2.66916 5.11134C2.66916 4.72654 2.99471 4.4135 3.39486 4.4135H18.3667C18.7669 4.4135 19.0925 4.72654 19.0925 5.11134C19.0925 5.49614 18.767 5.80913 18.3667 5.80913Z" fill="#4A4A4A"/>
<path d="M7.13927 8.42676C6.78838 8.42676 6.50391 8.70029 6.50391 9.03768V18.1988C6.50391 18.5362 6.78838 18.8098 7.13927 18.8098C7.49015 18.8098 7.77463 18.5362 7.77463 18.1988V9.03768C7.77463 8.70029 7.49015 8.42676 7.13927 8.42676Z" fill="#4A4A4A"/>
<path d="M10.8815 8.42676C10.5306 8.42676 10.2461 8.70029 10.2461 9.03768V18.1988C10.2461 18.5362 10.5306 18.8098 10.8815 18.8098C11.2323 18.8098 11.5168 18.5362 11.5168 18.1988V9.03768C11.5168 8.70029 11.2323 8.42676 10.8815 8.42676Z" fill="#4A4A4A"/>
<path d="M14.6236 8.42676C14.2728 8.42676 13.9883 8.70029 13.9883 9.03768V18.1988C13.9883 18.5362 14.2728 18.8098 14.6236 18.8098C14.9745 18.8098 15.259 18.5362 15.259 18.1988V9.03768C15.259 8.70029 14.9745 8.42676 14.6236 8.42676Z" fill="#4A4A4A"/>
</g>
<defs>
<clipPath id="clip0_1468_391">
<rect width="21.6869" height="20.8528" fill="white" transform="translate(0.0390625 0.574219)"/>
</clipPath>
</defs>
</svg>
