<svg width="26" height="26" viewBox="0 0 26 26" fill="none" xmlns="http://www.w3.org/2000/svg">
<path d="M22.8525 6.81738C24.0877 6.81738 25.0994 7.78078 25.0996 8.97461V22.5332C25.0994 23.611 24.2739 24.4985 23.2051 24.6611V24.6904H3.14746C1.91232 24.6904 0.900631 23.727 0.900391 22.5332V8.97461C0.900559 7.78078 1.91228 6.81734 3.14746 6.81738C4.30541 6.81742 5.26383 7.66432 5.37988 8.75391H7.03711V9.68066H5.39453V22.6328H4.43652V22.5332C4.43652 21.8582 3.86243 21.3008 3.14746 21.3008C2.43246 21.3008 1.8584 21.8582 1.8584 22.5332C1.85864 23.2081 2.43261 23.7646 3.14746 23.7646H22.8525C23.5674 23.7646 24.1414 23.2081 24.1416 22.5332C24.1416 21.8582 23.5675 21.3008 22.8525 21.3008C22.1376 21.3008 21.5635 21.8582 21.5635 22.5332V22.6328H20.6055V9.67969H18.9629V8.75391H20.6201C20.7361 7.6643 21.6945 6.81742 22.8525 6.81738ZM3.14746 7.74316C2.43978 7.74316 1.87006 8.28846 1.8584 8.9541V20.7666C1.86358 20.7631 1.86882 20.7593 1.87402 20.7559L1.9082 20.7334L1.99609 20.6807C2.01575 20.6694 2.03564 20.6587 2.05469 20.6484C2.06234 20.6443 2.07532 20.6373 2.08594 20.6318C2.11015 20.6193 2.13427 20.607 2.1582 20.5957H2.15918C2.16083 20.5949 2.16268 20.5934 2.16602 20.5918C2.16893 20.5904 2.17313 20.588 2.17773 20.5859C2.20888 20.5716 2.24043 20.5579 2.27246 20.5449C2.27685 20.5431 2.28131 20.5421 2.28418 20.541C2.28751 20.5398 2.28947 20.5387 2.29102 20.5381L2.37012 20.5078C2.38094 20.504 2.39546 20.4997 2.40332 20.4971C2.42405 20.4901 2.44626 20.4824 2.46875 20.4756H2.46973C2.48281 20.4717 2.49654 20.4681 2.50781 20.4648L2.57031 20.4473L2.61133 20.4375C2.63184 20.4327 2.6532 20.4281 2.67383 20.4238C2.68803 20.4209 2.70258 20.4177 2.7168 20.415C2.73768 20.4111 2.75856 20.4076 2.7793 20.4043C2.79246 20.4022 2.80741 20.3995 2.82227 20.3975C2.84448 20.3943 2.86665 20.392 2.8877 20.3896C2.89946 20.3883 2.91516 20.3861 2.92969 20.3848C2.95422 20.3825 2.97866 20.3813 3.00195 20.3799L3.03809 20.3779C3.07421 20.3762 3.11069 20.375 3.14746 20.375C3.62649 20.375 4.07112 20.52 4.43652 20.7666V8.97461C4.43635 8.29971 3.86232 7.7432 3.14746 7.74316ZM22.8525 7.74316C22.1377 7.74318 21.5636 8.2997 21.5635 8.97461V20.7656C21.9287 20.5192 22.3736 20.375 22.8525 20.375C22.8893 20.375 22.926 20.3763 22.9619 20.3779H22.9629C22.973 20.3784 22.9915 20.3795 22.9971 20.3799C23.0208 20.3813 23.0457 20.3825 23.0703 20.3848V20.3857C23.0843 20.3871 23.1015 20.3885 23.1123 20.3896C23.1333 20.392 23.1555 20.3943 23.1777 20.3975C23.1924 20.3995 23.2069 20.4021 23.2207 20.4043C23.2411 20.4076 23.2622 20.4111 23.2832 20.415C23.2974 20.4177 23.312 20.4209 23.3262 20.4238L23.3887 20.4375L23.4297 20.4473C23.4503 20.4525 23.4705 20.4582 23.4902 20.4639H23.4912C23.5033 20.4672 23.5175 20.4714 23.5312 20.4756L23.5967 20.4971C23.6058 20.5001 23.6185 20.5038 23.6299 20.5078C23.6566 20.5173 23.6833 20.5279 23.709 20.5381L23.7158 20.541C23.7186 20.5421 23.7231 20.5431 23.7275 20.5449C23.7594 20.5579 23.7905 20.5718 23.8213 20.5859C23.827 20.5885 23.8396 20.5946 23.8418 20.5957C23.8657 20.607 23.8906 20.6192 23.915 20.6318C23.9257 20.6374 23.9385 20.6442 23.9463 20.6484H23.9453L24.0049 20.6807L24.0381 20.7012L24.0918 20.7334L24.126 20.7559C24.1311 20.7593 24.1365 20.7632 24.1416 20.7666V8.97461C24.1414 8.29969 23.5674 7.74316 22.8525 7.74316Z" fill="white" stroke="white" stroke-width="0.2"/>
<path d="M17.044 19.5063H8.95978C8.6115 19.5063 8.32819 19.2348 8.32819 18.901C8.32819 18.5673 8.6115 18.2958 8.95978 18.2958H11.9914C12.7575 18.2958 13.3808 17.6984 13.3808 16.9642V15.0273H12.623V16.9642C12.623 17.298 12.3397 17.5695 11.9914 17.5695H8.95978C8.19361 17.5695 7.57031 18.1668 7.57031 18.901C7.57031 19.6353 8.19361 20.2326 8.95978 20.2326H17.044C17.3923 20.2326 17.6756 20.5041 17.6756 20.8379C17.6756 21.1717 17.3923 21.4432 17.044 21.4432H14.0124C13.2462 21.4432 12.6229 22.0405 12.6229 22.7748V23.259H13.3808V22.7748C13.3808 22.441 13.6641 22.1695 14.0124 22.1695H17.044C17.8102 22.1695 18.4335 21.5721 18.4335 20.8379C18.4335 20.1037 17.8102 19.5063 17.044 19.5063Z" fill="white"/>
<path d="M11.2344 14.6641H10.4766V15.3904H11.2344V14.6641Z" fill="white"/>
<path d="M9.71491 14.6641H8.95703V15.3904H9.71491V14.6641Z" fill="white"/>
<path d="M8.19928 14.6641H7.44141V15.3904H8.19928V14.6641Z" fill="white"/>
<path d="M18.3047 14.6641H17.5469V15.3904H18.3047V14.6641Z" fill="white"/>
<path d="M15.2735 14.6641H14.5156V15.3904H15.2735V14.6641Z" fill="white"/>
<path d="M16.7891 14.6641H16.0312V15.3904H16.7891V14.6641Z" fill="white"/>
<path d="M13.002 1.49121C16.048 1.49124 18.5331 3.86657 18.5332 6.7959C18.5332 9.15761 16.9136 11.2199 14.5752 11.8828L13.0879 14.3525L13.002 14.4951L12.916 14.3525L11.4277 11.8828C9.08981 11.2197 7.4707 9.15738 7.4707 6.7959C7.47082 3.86655 9.95586 1.49121 13.002 1.49121ZM13.002 2.41699C10.4761 2.41699 8.42882 4.38547 8.42871 6.7959C8.42871 8.79454 9.83797 10.5409 11.8623 11.0381L12.0166 11.0762L12.0566 11.0859L12.0781 11.1211L13.002 12.6533L13.9258 11.1211L13.9473 11.0859L13.9873 11.0762L14.1416 11.0381C16.1659 10.5409 17.5752 8.79454 17.5752 6.7959C17.5751 4.38549 15.5278 2.41702 13.002 2.41699Z" fill="white" stroke="white" stroke-width="0.2"/>
<path d="M13.0003 4.25391C11.5376 4.25391 10.3477 5.39425 10.3477 6.79599C10.3477 8.19773 11.5376 9.33807 13.0003 9.33807C14.463 9.33807 15.6529 8.19773 15.6529 6.79599C15.6529 5.39425 14.463 4.25391 13.0003 4.25391ZM13.0003 8.61182C11.9555 8.61182 11.1055 7.7973 11.1055 6.79604C11.1055 5.79477 11.9555 4.98025 13.0003 4.98025C14.0451 4.98025 14.895 5.79477 14.895 6.79604C14.895 7.79725 14.0451 8.61182 13.0003 8.61182Z" fill="white"/>
</svg>
