<svg width="34" height="33" viewBox="0 0 34 33" fill="none" xmlns="http://www.w3.org/2000/svg">
<g clip-path="url(#clip0_1590_164)">
<path d="M0.195312 16.436C0.195312 22.5064 0.195312 25.5417 1.54663 27.8025C2.4319 29.2835 3.70517 30.5135 5.2385 31.3686C7.57904 32.6738 10.7213 32.6738 17.0059 32.6738C23.2906 32.6738 26.4328 32.6738 28.7734 31.3686C30.3067 30.5135 31.5799 29.2835 32.4653 27.8025C33.8165 25.5417 33.8165 22.5064 33.8165 16.436C33.8165 10.3655 33.8165 7.33028 32.4653 5.06949C31.5799 3.58843 30.3067 2.35841 28.7734 1.50333C26.4328 0.198128 23.2906 0.198128 17.0059 0.198128C10.7213 0.198128 7.57904 0.198128 5.2385 1.50333C3.70517 2.35841 2.4319 3.58843 1.54663 5.06949C0.195312 7.33028 0.195312 10.3655 0.195312 16.436Z" fill="#F5F5F5"/>
<path fill-rule="evenodd" clip-rule="evenodd" d="M2.87553 23.328C2.71933 21.6632 2.71691 19.516 2.71691 16.436C2.71691 13.3558 2.71933 11.2087 2.87553 9.54399C3.02859 7.91273 3.31324 6.98523 3.7304 6.28732C4.39434 5.17649 5.3493 4.25402 6.49929 3.61279C7.22181 3.20976 8.18199 2.93485 9.87081 2.78693C11.5943 2.63608 13.8172 2.63381 17.0059 2.63381C20.1946 2.63381 22.4176 2.63608 24.141 2.78693C25.8298 2.93485 26.79 3.20976 27.5126 3.61279C28.6626 4.25402 29.6176 5.17649 30.2814 6.28732C30.6987 6.98523 30.9833 7.91273 31.1363 9.54399C31.2926 11.2087 31.295 13.3558 31.295 16.436C31.295 19.516 31.2926 21.6632 31.1363 23.328C30.9833 24.9593 30.6987 25.8867 30.2814 26.5846C29.6176 27.6954 28.6626 28.6179 27.5126 29.2592C26.79 29.6621 25.8298 29.9371 24.141 30.0849C22.4176 30.2358 20.1946 30.2382 17.0059 30.2382C13.8172 30.2382 11.5943 30.2358 9.87081 30.0849C8.18199 29.9371 7.22181 29.6621 6.49929 29.2592C5.3493 28.6179 4.39434 27.6954 3.7304 26.5846C3.31324 25.8867 3.02859 24.9593 2.87553 23.328ZM1.54663 27.8025C0.195312 25.5417 0.195312 22.5064 0.195312 16.436C0.195312 10.3655 0.195312 7.33028 1.54663 5.06948C2.4319 3.58843 3.70517 2.35841 5.2385 1.50333C7.57904 0.198128 10.7213 0.198128 17.0059 0.198128C23.2906 0.198128 26.4328 0.198128 28.7734 1.50333C30.3067 2.35841 31.5799 3.58843 32.4653 5.06948C33.8165 7.33028 33.8165 10.3655 33.8165 16.436C33.8165 22.5064 33.8165 25.5417 32.4653 27.8025C31.5799 29.2835 30.3067 30.5135 28.7734 31.3686C26.4328 32.6738 23.2906 32.6738 17.0059 32.6738C10.7213 32.6738 7.57904 32.6738 5.2385 31.3686C3.70517 30.5135 2.4319 29.2835 1.54663 27.8025Z" fill="#2571B8"/>
<path fill-rule="evenodd" clip-rule="evenodd" d="M9.38881 12.3263C9.88117 11.8507 10.6795 11.8507 11.1718 12.3263L17.0046 17.9603L22.8373 12.3263C23.3297 11.8507 24.1279 11.8507 24.6203 12.3263C25.1127 12.8019 25.1127 13.5729 24.6203 14.0485L17.896 20.5437C17.4037 21.0193 16.6054 21.0193 16.1131 20.5437L9.38881 14.0485C8.89644 13.5729 8.89644 12.8019 9.38881 12.3263Z" fill="#2571B8"/>
</g>
<defs>
<clipPath id="clip0_1590_164">
<rect width="33.6212" height="32.3281" fill="white" transform="matrix(1 0 0 -1 0.195312 32.6641)"/>
</clipPath>
</defs>
</svg>
