<svg width="22" height="22" viewBox="0 0 22 22" fill="none" xmlns="http://www.w3.org/2000/svg">
<path d="M17.4873 20.417H4.97558C3.25084 20.417 1.84766 19.0138 1.84766 17.289V4.77734C1.84766 3.0526 3.25084 1.64941 4.97558 1.64941H10.6058C10.9514 1.64941 11.2314 1.92926 11.2314 2.275C11.2314 2.62074 10.9514 2.90058 10.6058 2.90058H4.97558C3.94065 2.90058 3.09883 3.74241 3.09883 4.77734V17.289C3.09883 18.324 3.94065 19.1658 4.97558 19.1658H17.4873C18.5222 19.1658 19.364 18.324 19.364 17.289V11.6588C19.364 11.313 19.6441 11.0332 19.9896 11.0332C20.3351 11.0332 20.6152 11.313 20.6152 11.6588V17.289C20.6152 19.0138 19.212 20.417 17.4873 20.417ZM20.6152 5.05906C20.6152 5.87336 20.3226 6.5809 19.7907 7.11244L12.6659 14.2368C12.3116 14.5911 11.8399 14.7867 11.3386 14.7867H8.1035C7.75797 14.7867 7.47792 14.5068 7.47792 14.1611V10.9256C7.47792 10.4247 7.6731 9.95301 8.02781 9.59872L15.1526 2.47414C15.6843 1.94198 16.3912 1.64941 17.143 1.64941H17.206C17.9577 1.64941 18.6646 1.94198 19.1964 2.47414L19.7905 3.06803C20.3226 3.59957 20.6152 4.3069 20.6152 5.05906ZM17.2283 7.90547L14.3596 5.03654L8.91238 10.4833C8.79603 10.6001 8.72909 10.7613 8.72909 10.9256V13.5355H11.3386C11.5056 13.5355 11.6631 13.4703 11.7813 13.3522L17.2283 7.90547ZM19.364 5.1212C19.364 4.64096 19.2016 4.24768 18.9061 3.95261L18.312 3.35872C18.0161 3.06303 17.6234 2.90058 17.206 2.90058H17.143C16.7255 2.90058 16.3329 3.06303 16.0372 3.35872L15.2441 4.15175L18.1131 7.02068L18.9061 6.22765C19.2016 5.93258 19.364 5.53909 19.364 5.1212Z" fill="#4A4A4A"/>
</svg>
