<svg width="22" height="22" viewBox="0 0 22 22" fill="none" xmlns="http://www.w3.org/2000/svg">
<path d="M17.4873 20.3847H4.97558C3.25084 20.3847 1.84766 18.9815 1.84766 17.2568V4.74511C1.84766 3.02037 3.25084 1.61719 4.97558 1.61719H10.6058C10.9514 1.61719 11.2314 1.89703 11.2314 2.24277C11.2314 2.58851 10.9514 2.86836 10.6058 2.86836H4.97558C3.94065 2.86836 3.09883 3.71019 3.09883 4.74511V17.2568C3.09883 18.2917 3.94065 19.1336 4.97558 19.1336H17.4873C18.5222 19.1336 19.364 18.2917 19.364 17.2568V11.6265C19.364 11.2808 19.6441 11.001 19.9896 11.001C20.3351 11.001 20.6152 11.2808 20.6152 11.6265V17.2568C20.6152 18.9815 19.212 20.3847 17.4873 20.3847ZM20.6152 5.02683C20.6152 5.84114 20.3226 6.54867 19.7907 7.08021L12.6659 14.2046C12.3116 14.5589 11.8399 14.7545 11.3386 14.7545H8.1035C7.75797 14.7545 7.47792 14.4746 7.47792 14.1289V10.8934C7.47792 10.3925 7.6731 9.92078 8.02781 9.56649L15.1526 2.44192C15.6843 1.90975 16.3912 1.61719 17.143 1.61719H17.206C17.9577 1.61719 18.6646 1.90975 19.1964 2.44192L19.7905 3.03581C20.3226 3.56734 20.6152 4.27467 20.6152 5.02683ZM17.2283 7.87324L14.3596 5.00431L8.91238 10.4511C8.79603 10.5678 8.72909 10.729 8.72909 10.8934V13.5033H11.3386C11.5056 13.5033 11.6631 13.438 11.7813 13.32L17.2283 7.87324ZM19.364 5.08897C19.364 4.60873 19.2016 4.21545 18.9061 3.92038L18.312 3.32649C18.0161 3.0308 17.6234 2.86836 17.206 2.86836H17.143C16.7255 2.86836 16.3329 3.0308 16.0372 3.32649L15.2441 4.11953L18.1131 6.98846L18.9061 6.19542C19.2016 5.90036 19.364 5.50686 19.364 5.08897Z" fill="#00A0DE"/>
</svg>
