<svg width="37" height="37" viewBox="0 0 37 37" fill="none" xmlns="http://www.w3.org/2000/svg">
<circle cx="18.1406" cy="18.6992" r="17.5" fill="white" fill-opacity="0.01" stroke="#2571B8"/>
<g clip-path="url(#clip0_2223_8909)">
<path d="M26.8569 13.518C26.8417 13.5023 26.8251 13.488 26.8073 13.475C26.3166 13.0566 25.6837 12.8258 25.0283 12.8262H11.2555C10.6 12.8258 9.96711 13.0566 9.47638 13.4751C9.45864 13.488 9.44206 13.5024 9.42682 13.5181C9.1542 13.7603 8.93666 14.0544 8.7879 14.3816C8.63914 14.7089 8.5624 15.0623 8.5625 15.4195V22.0513C8.56239 22.3994 8.6353 22.744 8.77685 23.0644C8.9184 23.3847 9.12568 23.6742 9.38626 23.9155C9.40093 23.9315 9.41696 23.9462 9.43417 23.9595C9.93013 24.4004 10.5805 24.6451 11.2555 24.6447H25.0283C25.7033 24.6451 26.3536 24.4005 26.8496 23.9596C26.8668 23.9462 26.8828 23.9315 26.8975 23.9155C27.1581 23.6742 27.3654 23.3847 27.5069 23.0644C27.6485 22.744 27.7214 22.3994 27.7213 22.0513V15.4195C27.7214 15.0623 27.6447 14.7089 27.4959 14.3816C27.3471 14.0543 27.1296 13.7603 26.8569 13.518ZM20.9576 18.4923L26.5246 14.2971C26.7852 14.6174 26.9266 15.0126 26.9263 15.4195V22.0513C26.9267 22.4381 26.7989 22.8149 26.5615 23.1269L20.9576 18.4923ZM25.0283 13.5917C25.3315 13.5915 25.6302 13.6617 25.8992 13.7963L18.6042 19.2936C18.4724 19.3934 18.3095 19.4476 18.1418 19.4476C17.9741 19.4476 17.8112 19.3933 17.6794 19.2934L16.1963 18.1758L16.196 18.1756L10.3846 13.7963C10.6536 13.6617 10.9523 13.5915 11.2555 13.5917H25.0283ZM9.72228 23.1269C9.48493 22.8149 9.35713 22.4381 9.35747 22.0513V15.4195C9.35717 15.0126 9.49861 14.6174 9.75915 14.2971L15.3262 18.4923L9.72228 23.1269ZM11.2555 23.8791C10.9277 23.8793 10.6056 23.7973 10.3208 23.6411L15.9647 18.9734L17.1893 19.8962C17.4609 20.1018 17.7963 20.2136 18.1418 20.2136C18.4872 20.2136 18.8227 20.1019 19.0943 19.8964L20.3191 18.9734L25.9631 23.6411C25.6783 23.7973 25.3561 23.8793 25.0283 23.8791H11.2555Z" fill="#2571B8"/>
</g>
<defs>
<clipPath id="clip0_2223_8909">
<rect width="19.44" height="12.24" fill="white" transform="translate(8.42188 12.5791)"/>
</clipPath>
</defs>
</svg>
