<svg width="16" height="10" viewBox="0 0 16 10" fill="none" xmlns="http://www.w3.org/2000/svg">
<g clip-path="url(#clip0_870_823)">
<path d="M14.7072 0.947408C14.6952 0.935158 14.6822 0.923903 14.6683 0.913766C14.2845 0.586497 13.7895 0.405954 13.2768 0.40625H2.5035C1.9908 0.405953 1.49574 0.586529 1.11188 0.913849C1.098 0.923979 1.08503 0.93522 1.07312 0.947453C0.859873 1.13697 0.689705 1.36697 0.573344 1.62296C0.456983 1.87895 0.396952 2.15538 0.397034 2.43482V7.62225C0.396948 7.89458 0.453978 8.16411 0.564702 8.41469C0.675426 8.66527 0.837564 8.89174 1.04139 9.0805C1.05287 9.09295 1.0654 9.10446 1.07886 9.1149C1.46681 9.45979 1.97552 9.65116 2.5035 9.65082H13.2768C13.8048 9.65116 14.3135 9.45981 14.7014 9.11496C14.7149 9.10449 14.7274 9.09296 14.7389 9.08049C14.9428 8.89173 15.1049 8.66527 15.2156 8.41469C15.3263 8.16411 15.3834 7.89457 15.3833 7.62225V2.43482C15.3834 2.15537 15.3233 1.87893 15.207 1.62293C15.0906 1.36693 14.9204 1.13692 14.7072 0.947408ZM10.0926 4.83836L14.4473 1.55683C14.6511 1.80739 14.7617 2.11654 14.7615 2.43482V7.62225C14.7617 7.9248 14.6618 8.21955 14.4761 8.46362L10.0926 4.83836ZM13.2768 1.00509C13.5139 1.00493 13.7476 1.05982 13.958 1.16511L8.25182 5.46512C8.14867 5.5432 8.02127 5.58564 7.89007 5.58562C7.75887 5.5856 7.63149 5.54312 7.52837 5.465L6.36831 4.59081L6.36807 4.59063L1.82233 1.16511C2.03273 1.05982 2.26639 1.00493 2.5035 1.00509H13.2768ZM1.30423 8.46365C1.11857 8.21957 1.0186 7.92481 1.01887 7.62225V2.43482C1.01863 2.11654 1.12927 1.80738 1.33307 1.55682L5.68772 4.83835L1.30423 8.46365ZM2.5035 9.05198C2.24713 9.05217 1.99514 8.98802 1.77236 8.86583L6.18712 5.21468L7.14502 5.93653C7.35746 6.09735 7.61984 6.18479 7.89007 6.18481C8.16029 6.18483 8.42268 6.09743 8.63515 5.93665L9.59321 5.21468L14.008 8.86582C13.7852 8.98801 13.5332 9.05217 13.2768 9.05198H2.5035Z" fill="white"/>
</g>
<defs>
<clipPath id="clip0_870_823">
<rect width="15.2062" height="9.57429" fill="white" transform="translate(0.286682 0.212891)"/>
</clipPath>
</defs>
</svg>
