<svg width="34" height="34" viewBox="0 0 34 34" fill="none" xmlns="http://www.w3.org/2000/svg">
<g clip-path="url(#clip0_738_168)">
<path d="M16.8672 0.34668C13.6038 0.34668 10.4137 1.31439 7.70029 3.12743C4.98688 4.94047 2.87203 7.51742 1.62318 10.5324C0.374337 13.5474 0.0475816 16.865 0.684238 20.0657C1.32089 23.2664 2.89237 26.2064 5.19993 28.5139C7.5075 30.8215 10.4475 32.393 13.6482 33.0296C16.8489 33.6663 20.1665 33.3395 23.1815 32.0907C26.1965 30.8418 28.7734 28.727 30.5864 26.0136C32.3995 23.3002 33.3672 20.1101 33.3672 16.8467C33.3672 12.4706 31.6288 8.27377 28.5345 5.17942C25.4401 2.08507 21.2433 0.34668 16.8672 0.34668ZM21.561 11.0847C21.561 11.3952 21.4307 11.5189 21.1268 11.5189C20.5428 11.5189 19.9588 11.5189 19.3769 11.5428C18.7951 11.5667 18.4781 11.8315 18.4781 12.4394C18.4651 13.0908 18.4781 13.729 18.4781 14.3934H20.977C21.333 14.3934 21.4546 14.515 21.4546 14.8732C21.4546 15.7416 21.4546 16.6144 21.4546 17.4915C21.4546 17.8454 21.3417 17.9561 20.9835 17.9583H18.4564V25.0229C18.4564 25.4006 18.3392 25.52 17.9657 25.52H15.2476C14.9198 25.52 14.7917 25.3919 14.7917 25.0641V17.9691H12.6336C12.295 17.9691 12.1734 17.8454 12.1734 17.5045C12.1734 16.626 12.1734 15.7481 12.1734 14.871C12.1734 14.5323 12.3015 14.4042 12.6358 14.4042H14.7917V12.5046C14.7661 11.6513 14.9708 10.8068 15.3844 10.06C15.8143 9.30598 16.5031 8.73358 17.3231 8.44905C17.8553 8.25542 18.4177 8.15837 18.984 8.16247H21.1181C21.4242 8.16247 21.5523 8.29707 21.5523 8.59668C21.5632 9.43253 21.5632 10.2597 21.561 11.0847Z" fill="white"/>
</g>
<defs>
<clipPath id="clip0_738_168">
<rect width="33" height="33" fill="white" transform="translate(0.367188 0.34668)"/>
</clipPath>
</defs>
</svg>
