<svg width="17" height="18" viewBox="0 0 17 18" fill="none" xmlns="http://www.w3.org/2000/svg">
<path d="M1.34189 2.96085H6.5362C6.75415 3.97974 7.66061 4.74636 8.74344 4.74636C9.82627 4.74636 10.733 3.97974 10.951 2.96085H16.145C16.761 2.95172 16.7699 2.027 16.145 2.01597H10.951C10.733 0.99708 9.82627 0.230469 8.74344 0.230469C7.66061 0.230469 6.75384 0.99708 6.5362 2.01597H1.34189C0.725834 2.02511 0.717015 2.94983 1.34189 2.96085ZM8.74344 1.17535C10.4729 1.22574 10.4726 3.7514 8.74344 3.80179C7.01463 3.7514 7.01494 1.22543 8.74344 1.17535ZM16.145 8.31516H14.1006C13.8826 7.29627 12.9759 6.52966 11.893 6.52966C10.8102 6.52966 9.90343 7.29627 9.6858 8.31516H1.34189C0.726779 8.32398 0.71607 9.24901 1.34189 9.26004H9.68548C9.90343 10.2789 10.8099 11.0455 11.8927 11.0455C12.9755 11.0455 13.8823 10.2789 14.1003 9.26004H16.1447C16.7623 9.25059 16.7689 8.32587 16.145 8.31516ZM11.893 10.1007C10.1639 10.0503 10.1645 7.5243 11.893 7.47422C13.6225 7.52493 13.6222 10.0506 11.893 10.1007ZM16.145 14.6143H7.8014C7.27541 12.2528 3.91228 12.2525 3.3863 14.6143H1.34158C1.08079 14.6143 0.869141 14.8257 0.869141 15.0868C0.869141 15.3479 1.08079 15.5592 1.34158 15.5592H3.3863C3.60425 16.5781 4.5107 17.3447 5.59353 17.3447C6.67636 17.3447 7.58313 16.5781 7.80108 15.5592H16.1447C16.7598 15.5504 16.7711 14.6254 16.145 14.6143ZM5.59385 16.3998C3.86472 16.3495 3.86535 13.8235 5.59385 13.7734C7.32329 13.8241 7.32297 16.3498 5.59385 16.3998Z" fill="white"/>
</svg>
