<svg width="25" height="26" viewBox="0 0 25 26" fill="none" xmlns="http://www.w3.org/2000/svg">
<path d="M20.6892 4.94671H17.8156V3.70861C17.8149 3.05212 17.5725 2.42272 17.1415 1.95851C16.7105 1.4943 16.1262 1.23317 15.5167 1.23242H3.44778C2.68594 1.23339 1.95556 1.5598 1.41685 2.14006C0.87815 2.72032 0.575113 3.50705 0.574219 4.32766V21.661C0.575113 22.4816 0.87815 23.2683 1.41685 23.8486C1.95556 24.4289 2.68594 24.7553 3.44778 24.7562H20.6892C21.451 24.7553 22.1814 24.4289 22.7201 23.8486C23.2588 23.2683 23.5618 22.4816 23.5627 21.661V8.04195C23.5618 7.22133 23.2588 6.43461 22.7201 5.85435C22.1814 5.27408 21.451 4.94767 20.6892 4.94671ZM1.72364 21.661V4.32766C1.72414 3.83528 1.90595 3.36322 2.22918 3.01506C2.55241 2.66689 2.99067 2.47105 3.44778 2.47052H15.5167C15.8215 2.47084 16.1137 2.60139 16.3292 2.83351C16.5447 3.06563 16.6659 3.38035 16.6662 3.70861V4.94671H8.6202C7.70596 4.94778 6.82946 5.33946 6.183 6.03579C5.53654 6.73212 5.17292 7.67623 5.17192 8.66099C5.17223 11.818 5.1717 18.5293 5.17192 21.661C5.16668 22.1498 4.98272 22.6167 4.65995 22.9604C4.33718 23.3041 3.90163 23.4968 3.44778 23.4968C2.99393 23.4968 2.55838 23.3041 2.23561 22.9604C1.91284 22.6167 1.72888 22.1498 1.72364 21.661ZM22.4133 21.661C22.4128 22.1534 22.231 22.6254 21.9078 22.9736C21.5845 23.3218 21.1463 23.5176 20.6892 23.5181H5.73194C6.11207 22.9854 6.31916 22.3329 6.32135 21.661V18.5658C6.31925 17.223 6.32285 9.82317 6.32135 8.66099C6.32204 8.0045 6.56447 7.37511 6.99543 6.91089C7.4264 6.44668 8.01072 6.18555 8.6202 6.1848H20.6892C21.1463 6.18534 21.5845 6.38118 21.9078 6.72934C22.231 7.07751 22.4128 7.54957 22.4133 8.04195V21.661ZM18.7012 12.981L16.241 12.5962L15.1402 10.1944C15.069 10.039 14.959 9.9081 14.8224 9.81659C14.6858 9.72509 14.5282 9.67659 14.3673 9.67659C14.2065 9.67659 14.0488 9.72509 13.9123 9.81659C13.7757 9.9081 13.6656 10.039 13.5945 10.1944L12.4936 12.5962L10.0326 12.9813C9.87343 13.0063 9.72396 13.0787 9.60106 13.1904C9.47815 13.3021 9.38671 13.4486 9.33708 13.6134C9.28744 13.7781 9.2816 13.9546 9.3202 14.1227C9.3588 14.2909 9.44031 14.444 9.55551 14.5649L11.3358 16.4341L10.9154 19.0747C10.8883 19.2455 10.906 19.4211 10.9667 19.5815C11.0273 19.742 11.1284 19.8809 11.2586 19.9827C11.3888 20.0845 11.5428 20.145 11.7032 20.1574C11.8636 20.1698 12.0241 20.1336 12.1664 20.0529L14.3673 18.807L16.5677 20.0529C16.7101 20.1337 16.8706 20.17 17.0311 20.1576C17.1917 20.1452 17.3458 20.0846 17.476 19.9828C17.6063 19.8809 17.7074 19.7418 17.7681 19.5813C17.8287 19.4207 17.8465 19.245 17.8192 19.0742L17.3989 16.4342L19.1791 14.5655C19.2925 14.4437 19.3722 14.2904 19.4097 14.1227C19.4471 13.955 19.4408 13.7794 19.3913 13.6154C19.3418 13.4514 19.2512 13.3053 19.1294 13.1933C19.0076 13.0814 18.8594 13.0079 18.7012 12.981ZM16.4871 15.6622C16.3875 15.7674 16.313 15.897 16.27 16.0399C16.227 16.1829 16.2167 16.335 16.2402 16.4831L16.5879 18.6655C16.2973 18.5427 14.6692 17.4661 14.3679 17.5289C14.0723 17.4626 12.4285 18.5475 12.1468 18.6655L12.4942 16.4831C12.5177 16.3348 12.5075 16.1825 12.4643 16.0394C12.4212 15.8963 12.3464 15.7666 12.2464 15.6615L10.7745 14.1164L12.8093 13.7978C12.9476 13.7761 13.0788 13.7186 13.1918 13.63C13.3047 13.5415 13.3959 13.4246 13.4576 13.2896L14.3673 11.3046L15.2765 13.289C15.3383 13.4243 15.4297 13.5413 15.5429 13.63C15.6561 13.7186 15.7876 13.7762 15.9262 13.7978L17.9601 14.1164L16.4871 15.6622Z" fill="white"/>
</svg>
