<svg width="25" height="26" viewBox="0 0 25 26" fill="none" xmlns="http://www.w3.org/2000/svg">
<g clip-path="url(#clip0_1468_474)">
<path d="M24.2024 12.9885C24.2411 13.1745 24.2126 13.3771 24.106 13.5509C23.9236 13.8503 19.5474 20.8908 12.5416 20.8908C10.7892 20.8908 9.21274 20.4698 7.82895 19.8311L8.9573 18.6616C10.0433 19.1001 11.2403 19.379 12.5416 19.379C18.0673 19.379 21.9063 14.1783 22.7142 12.9847C22.261 12.2984 20.8122 10.277 18.5811 8.69416L19.6459 7.59052C22.4376 9.64585 24.0053 12.256 24.1119 12.4352C24.2133 12.6083 24.2403 12.8056 24.2024 12.9885ZM20.0167 5.05518C20.3021 4.75962 20.3021 4.28188 20.0167 3.98632C19.7313 3.69076 19.2701 3.69076 18.9847 3.98632L16.9922 6.04921C15.6719 5.47774 14.1837 5.10885 12.5409 5.10885C5.53504 5.10885 1.15886 12.1487 0.9764 12.4488C0.869842 12.6226 0.840648 12.8252 0.88006 13.0112C0.842108 13.1941 0.869112 13.3914 0.970561 13.5638C1.0742 13.7384 2.56309 16.2185 5.21828 18.2444L3.54547 19.9769C3.2601 20.2725 3.2601 20.7502 3.54547 21.0458C3.68779 21.1932 3.87463 21.2673 4.06147 21.2673C4.24831 21.2673 4.43515 21.1932 4.57747 21.0458L20.0167 5.05518ZM9.83968 13.4572C9.81122 13.2947 9.79662 13.1261 9.79662 12.9552C9.79662 11.3882 11.0279 10.113 12.5409 10.113C12.7065 10.113 12.8686 10.1289 13.0262 10.1576L9.83968 13.4572ZM2.36822 13.015C3.17616 11.8206 7.01517 6.62068 12.5409 6.62068C13.7334 6.62068 14.8413 6.85199 15.8551 7.22844L14.191 8.95117C13.6845 8.72666 13.1269 8.60194 12.5409 8.60194C10.2229 8.60194 8.33693 10.5552 8.33693 12.956C8.33693 13.5622 8.45735 14.1398 8.67412 14.6651L6.27656 17.1483C4.17168 15.5904 2.80686 13.6771 2.36822 13.015ZM15.1793 12.2167L16.312 11.0443C16.5857 11.6226 16.7448 12.2689 16.7448 12.9552C16.7448 15.356 14.8589 17.3093 12.5409 17.3093C11.8782 17.3093 11.2534 17.1453 10.6958 16.8611L11.8278 15.6879C12.0562 15.7521 12.2927 15.7975 12.5409 15.7975C14.0538 15.7975 15.2851 14.5223 15.2851 12.9552C15.2851 12.699 15.2413 12.4533 15.1793 12.2167Z" fill="#4A4A4A"/>
</g>
<defs>
<clipPath id="clip0_1468_474">
<rect width="23.3552" height="24.1893" fill="white" transform="translate(0.863281 0.905273)"/>
</clipPath>
</defs>
</svg>
