<svg width="28" height="26" viewBox="0 0 28 26" fill="none" xmlns="http://www.w3.org/2000/svg">
<g clip-path="url(#clip0_1468_945)">
<path d="M27.1922 10.9408L14.9817 0.892025C14.7068 0.665314 14.3592 0.541016 14 0.541016C13.6409 0.541016 13.2933 0.665314 13.0184 0.892025L0.807666 10.9408C0.348369 11.3213 0.0611473 11.8645 0.00868923 12.452C-0.0437688 13.0395 0.142797 13.6235 0.527665 14.0765L0.659517 14.2307C1.04663 14.6823 1.60055 14.9649 2.19977 15.0164C2.79899 15.0679 3.39456 14.8841 3.85584 14.5054L4.52127 13.9577V23.9073C4.52175 24.319 4.68868 24.7137 4.98543 25.0048C5.28219 25.2959 5.68453 25.4597 6.1042 25.4602H10.8721C11.0461 25.4602 11.213 25.3923 11.3361 25.2716C11.4592 25.1509 11.5283 24.9871 11.5283 24.8164V17.7393H16.9156V24.8164C16.9156 24.9871 16.9847 25.1509 17.1078 25.2716C17.2309 25.3923 17.3978 25.4602 17.5718 25.4602H22.3398C22.7594 25.4597 23.1618 25.2959 23.4585 25.0048C23.7553 24.7137 23.9222 24.319 23.9226 23.9073V14.3232L24.144 14.5054C24.6053 14.8841 25.2009 15.0679 25.8001 15.0164C26.3993 14.9649 26.9532 14.6824 27.3403 14.2307L27.4722 14.0765C27.8571 13.6235 28.0436 13.0395 27.9912 12.452C27.9387 11.8645 27.6515 11.3213 27.1922 10.9408ZM22.6101 23.9075C22.6101 23.9779 22.5816 24.0453 22.5309 24.095C22.4802 24.1448 22.4115 24.1727 22.3398 24.1728H18.2281V17.4322C18.2277 17.1722 18.1223 16.9231 17.935 16.7393C17.7476 16.5555 17.4936 16.4521 17.2286 16.4517H11.2154C10.9504 16.4521 10.6964 16.5555 10.509 16.7392C10.3216 16.923 10.2162 17.1722 10.2158 17.4322V24.1726H6.1042C6.03251 24.1725 5.96377 24.1445 5.91308 24.0948C5.86238 24.0451 5.83386 23.9776 5.83377 23.9073V12.8776L13.9999 6.15732L22.6101 13.2431V23.9075ZM26.4667 13.2491L26.3349 13.4033C26.17 13.5911 25.9369 13.7082 25.6852 13.7299C25.4336 13.7515 25.1833 13.6759 24.9876 13.5192L14.5764 4.95157C14.4149 4.81846 14.2108 4.74548 13.9999 4.74548C13.789 4.74548 13.5849 4.81846 13.4234 4.95157L3.01228 13.519C2.81662 13.6757 2.56629 13.7513 2.31463 13.7297C2.06297 13.708 1.82987 13.5908 1.665 13.4031L1.53315 13.2489C1.37213 13.0575 1.2943 12.8117 1.31644 12.5644C1.33858 12.3172 1.45892 12.0884 1.65149 11.9274L13.8617 1.87861C13.9002 1.8462 13.9492 1.82838 13.9999 1.82838C14.0506 1.82838 14.0997 1.8462 14.1381 1.87861L26.3486 11.9274C26.5412 12.0884 26.6616 12.3173 26.6837 12.5645C26.7057 12.8118 26.6278 13.0577 26.4667 13.2491Z" fill="white"/>
</g>
<defs>
<clipPath id="clip0_1468_945">
<rect width="28" height="25" fill="white" transform="translate(0 0.5)"/>
</clipPath>
</defs>
</svg>
