<svg width="36" height="34" viewBox="0 0 36 34" fill="none" xmlns="http://www.w3.org/2000/svg">
<g clip-path="url(#clip0_738_164)">
<path d="M17.8664 20.3118C19.8961 20.3118 21.5414 18.7605 21.5414 16.8468C21.5414 14.9332 19.8961 13.3818 17.8664 13.3818C15.8368 13.3818 14.1914 14.9332 14.1914 16.8468C14.1914 18.7605 15.8368 20.3118 17.8664 20.3118Z" fill="white"/>
<path d="M17.8672 0.34668C8.20222 0.34668 0.367188 7.73399 0.367188 16.8467C0.367188 25.9594 8.20222 33.3467 17.8672 33.3467C27.5322 33.3467 35.3672 25.9594 35.3672 16.8467C35.3672 7.73399 27.5322 0.34668 17.8672 0.34668ZM28.6792 21.0403C28.5952 22.609 28.1277 24.1559 26.9152 25.287C25.691 26.4288 24.0426 26.8542 22.3628 26.9326H13.3716C11.6916 26.8542 10.0434 26.429 8.8192 25.287C7.60666 24.1559 7.1392 22.609 7.0552 21.0403V12.653C7.1392 11.0844 7.60673 9.53744 8.8192 8.40634C10.0434 7.26454 11.6919 6.8391 13.3716 6.76076H22.3627C24.0427 6.8391 25.6909 7.26434 26.9152 8.40634C28.1277 9.53744 28.5952 11.0844 28.6792 12.653L28.6792 21.0403Z" fill="white"/>
<path d="M22.2488 8.67138C20.0588 8.61475 15.6754 8.61475 13.4854 8.67138C12.3457 8.70088 11.0537 8.96838 10.2417 9.78612C9.39794 10.6361 9.07909 11.6631 9.04675 12.812C8.98991 14.8284 9.04675 20.8806 9.04675 20.8806C9.08378 22.0293 9.39794 23.0564 10.2417 23.9064C11.0537 24.7244 12.3457 24.9917 13.4854 25.0212C15.6754 25.0778 20.0588 25.0778 22.2488 25.0212C23.3885 24.9917 24.6805 24.7242 25.4925 23.9064C26.3363 23.0564 26.6551 22.0294 26.6874 20.8806V12.812C26.6551 11.6631 26.3363 10.6361 25.4925 9.78612C24.6802 8.96811 23.3882 8.70088 22.2488 8.67138ZM17.8668 22.217C16.7402 22.217 15.6389 21.902 14.7021 21.3119C13.7654 20.7217 13.0353 19.8829 12.6042 18.9016C12.173 17.9202 12.0602 16.8403 12.28 15.7985C12.4998 14.7567 13.0423 13.7997 13.839 13.0486C14.6356 12.2975 15.6506 11.7859 16.7555 11.5787C17.8605 11.3715 19.0058 11.4778 20.0467 11.8843C21.0875 12.2908 21.9772 12.9792 22.6031 13.8624C23.229 14.7457 23.5631 15.784 23.5631 16.8463C23.5631 18.2707 22.9629 19.6367 21.8947 20.644C20.8264 21.6512 19.3776 22.217 17.8668 22.217ZM23.5873 12.5841C23.362 12.5841 23.1417 12.521 22.9544 12.403C22.7671 12.2849 22.6211 12.1171 22.535 11.9208C22.4488 11.7246 22.4263 11.5086 22.4702 11.3003C22.5142 11.0919 22.6228 10.9005 22.7821 10.7503C22.9414 10.6001 23.1444 10.4979 23.3654 10.4564C23.5864 10.415 23.8154 10.4363 24.0236 10.5176C24.2318 10.5989 24.4097 10.7366 24.5348 10.9132C24.66 11.0899 24.7268 11.2975 24.7268 11.51C24.7268 11.6511 24.6973 11.7908 24.6401 11.9211C24.5828 12.0514 24.4989 12.1699 24.393 12.2696C24.2872 12.3693 24.1616 12.4485 24.0233 12.5024C23.8851 12.5564 23.7369 12.5842 23.5873 12.5841Z" fill="white"/>
</g>
<defs>
<clipPath id="clip0_738_164">
<rect width="35" height="33" fill="white" transform="translate(0.367188 0.34668)"/>
</clipPath>
</defs>
</svg>
