<svg width="24" height="24" viewBox="0 0 24 24" fill="none" xmlns="http://www.w3.org/2000/svg">
<path d="M12.7078 5.35891H6.44116C6.21479 5.35891 6.03125 5.18302 6.03125 4.96608C6.03125 4.74913 6.21479 4.57324 6.44116 4.57324H12.7078C12.9342 4.57324 13.1177 4.74913 13.1177 4.96608C13.1177 5.18302 12.9342 5.35891 12.7078 5.35891Z" fill="white"/>
<path d="M12.7078 8.10207H6.44116C6.21479 8.10207 6.03125 7.92618 6.03125 7.70924C6.03125 7.4923 6.21479 7.31641 6.44116 7.31641H12.7078C12.9342 7.31641 13.1177 7.4923 13.1177 7.70924C13.1177 7.92618 12.9342 8.10207 12.7078 8.10207Z" fill="white"/>
<path d="M9.49245 10.8443H6.44116C6.21479 10.8443 6.03125 10.6684 6.03125 10.4514C6.03125 10.2345 6.21479 10.0586 6.44116 10.0586H9.49245C9.71883 10.0586 9.90237 10.2345 9.90237 10.4514C9.90237 10.6684 9.71883 10.8443 9.49245 10.8443Z" fill="white"/>
<path d="M20.6491 7.82031C20.3666 7.82031 20.1367 8.04089 20.1367 8.31209C20.1367 8.58329 20.3666 8.80387 20.6491 8.80387C20.9316 8.80387 21.1615 8.58329 21.1615 8.31209C21.1615 8.04089 20.9316 7.82031 20.6491 7.82031Z" fill="white"/>
<path d="M17.2826 14.6711V18.8129H3.32882C2.83487 18.8129 2.38002 18.9753 2.01832 19.2467V16.1343H2.75381C2.97214 16.1343 3.16275 15.9764 3.17689 15.7676C3.19237 15.5389 3.00329 15.3486 2.76785 15.3486H2.01832V13.3914H2.75381C2.97214 13.3914 3.16275 13.2335 3.17689 13.0247C3.19237 12.796 3.00329 12.6057 2.76785 12.6057H2.01832V10.6485H2.75381C2.97214 10.6485 3.16275 10.4907 3.17689 10.2819C3.19237 10.0531 3.00329 9.86287 2.76785 9.86287H2.01832V7.92129H2.75381C2.97214 7.92129 3.16275 7.76342 3.17689 7.55463C3.19237 7.32585 3.00329 7.13563 2.76785 7.13563H2.01832V5.17833H2.75381C2.97214 5.17833 3.16275 5.02046 3.17689 4.81167C3.19237 4.5829 3.00329 4.39267 2.76785 4.39267H2.01832V2.46867C2.01832 2.14325 2.29363 1.87942 2.63319 1.87942H16.6677C17.0073 1.87942 17.2826 2.14325 17.2826 2.46867V3.94474C17.2826 4.15397 17.4473 4.33664 17.6652 4.35019C17.9039 4.36502 18.1024 4.18383 18.1024 3.95819V2.46867C18.1024 1.70932 17.4601 1.09375 16.6677 1.09375H2.63319C1.84083 1.09375 1.1985 1.70932 1.1985 2.46867V4.39272H0.424019C0.20569 4.39272 0.01508 4.55059 0.000937976 4.75938C-0.0145875 4.9881 0.174485 5.17833 0.409929 5.17833H1.1985V7.13553H0.423968C0.205638 7.13553 0.0150287 7.2934 0.000886737 7.50219C-0.0145875 7.73096 0.174485 7.92119 0.409929 7.92119H1.1985V9.86277H0.423968C0.205638 9.86277 0.0150287 10.0206 0.000886737 10.2294C-0.0145875 10.4582 0.174485 10.6484 0.409929 10.6484H1.1985V12.6056H0.423968C0.205638 12.6056 0.0150287 12.7635 0.000886737 12.9723C-0.0145875 13.2011 0.174485 13.3913 0.409929 13.3913H1.1985V15.3485H0.423968C0.205638 15.3485 0.0150287 15.5064 0.000886737 15.7152C-0.0145875 15.944 0.174485 16.1342 0.409929 16.1342H1.1985V20.8573C1.1985 20.8587 1.19865 20.8599 1.19865 20.8613C1.20255 21.9838 2.15657 22.896 3.32882 22.896H16.6677C17.4601 22.896 18.1024 22.2804 18.1024 21.521V14.671C18.1024 14.4541 17.9189 14.2782 17.6925 14.2782C17.4661 14.2782 17.2826 14.4541 17.2826 14.6711ZM17.2826 21.5211C17.2826 21.846 17.0067 22.1103 16.6677 22.1103H3.32882C2.60619 22.1103 2.01832 21.5469 2.01832 20.8544C2.01832 20.162 2.60624 19.5986 3.32882 19.5986H17.2826V21.5211Z" fill="white"/>
<path d="M23.8336 4.85896L21.0404 2.63007C20.8674 2.49194 20.6105 2.51345 20.4651 2.67829L11.5804 12.7477C11.5455 12.7872 11.5195 12.8341 11.5025 12.883L10.0815 17.1907C9.97401 17.5166 10.3436 17.8143 10.6599 17.6583L14.8741 15.5795C14.9212 15.556 14.9651 15.5228 14.9994 15.4839L20.0259 9.78725C20.1852 9.60669 20.1432 9.33308 19.9363 9.20423C19.7631 9.09635 19.5332 9.12881 19.3999 9.27995L14.636 14.6789L12.4729 12.9528L19.2263 5.29913L21.6008 7.23884C21.8168 7.41527 22.1413 7.38988 22.3245 7.18222L23.8843 5.41447C24.1349 5.1444 23.9176 4.92598 23.8336 4.85896ZM13.9484 15.1525L11.1599 16.5281L12.1002 13.6776L12.1133 13.688L13.9484 15.1525ZM21.9188 6.42523L19.7557 4.69917L20.8285 3.48335L22.9916 5.20941L21.9188 6.42523Z" fill="white"/>
</svg>
