<svg width="37" height="37" viewBox="0 0 37 37" fill="none" xmlns="http://www.w3.org/2000/svg">
<circle cx="18.1406" cy="18.6992" r="17.5" fill="white" fill-opacity="0.01" stroke="#2571B8"/>
<g clip-path="url(#clip0_2223_8918)">
<path d="M21.0242 15.8027C21.0242 14.1922 19.7325 12.8867 18.139 12.8867C16.5456 12.8867 15.2539 14.1922 15.2539 15.8027C15.2539 17.4132 16.5456 18.7187 18.139 18.7187C19.7317 18.717 21.0225 17.4124 21.0242 15.8027ZM15.895 15.8027C15.895 14.5501 16.8997 13.5347 18.139 13.5347C19.3784 13.5347 20.383 14.5501 20.383 15.8027C20.383 17.0554 19.3784 18.0707 18.139 18.0707C16.9003 18.0693 15.8965 17.0547 15.895 15.8027Z" fill="#2571B8"/>
<path d="M21.1967 23.4281C23.0758 21.2526 25.1916 18.3177 25.1916 16.127C25.1916 12.1903 22.0341 8.99902 18.139 8.99902C14.244 8.99902 11.0865 12.1903 11.0865 16.127C11.0865 18.3177 13.2023 21.2526 15.0814 23.4281C12.7392 23.7575 10.4453 24.5338 10.4453 25.8341C10.4453 27.526 14.4093 28.439 18.139 28.439C21.8688 28.439 25.8327 27.526 25.8327 25.8341C25.8327 24.5338 23.5388 23.7575 21.1967 23.4281ZM18.139 9.64702C21.6783 9.65114 24.5464 12.5499 24.5505 16.127C24.5505 19.3278 19.284 24.6132 18.139 25.7246C16.994 24.6135 11.7276 19.3291 11.7276 16.127C11.7317 12.5499 14.5997 9.65114 18.139 9.64702ZM18.139 27.791C13.7694 27.791 11.0865 26.6512 11.0865 25.8341C11.0865 25.1971 12.6784 24.3501 15.5968 24.0134C16.8077 25.362 17.8156 26.3104 17.9213 26.4088L18.139 26.6119L18.3568 26.4088C18.4621 26.3117 19.4697 25.3626 20.6795 24.0152C23.6096 24.3566 25.1916 25.199 25.1916 25.8341C25.1916 26.6512 22.5087 27.791 18.139 27.791Z" fill="#2571B8"/>
</g>
<defs>
<clipPath id="clip0_2223_8918">
<rect width="15.84" height="19.44" fill="white" transform="translate(10.2188 8.97949)"/>
</clipPath>
</defs>
</svg>
