<svg width="14" height="15" viewBox="0 0 14 15" fill="none" xmlns="http://www.w3.org/2000/svg">
<path d="M7.0127 0.395508C10.3679 0.395508 13.0879 3.11546 13.0879 6.4707C13.0879 10.764 8.7671 13.3714 7.41309 14.083C7.16117 14.2152 6.86422 14.2152 6.6123 14.083C5.25829 13.3714 0.9375 10.764 0.9375 6.4707C0.937512 3.11547 3.65746 0.395519 7.0127 0.395508ZM7.01172 3.86719C5.57387 3.86727 4.40828 5.03286 4.4082 6.4707C4.4082 7.90862 5.57382 9.07414 7.01172 9.07422C8.44968 9.07422 9.61523 7.90867 9.61523 6.4707C9.61515 5.03281 8.44963 3.86719 7.01172 3.86719Z" fill="#3A938C"/>
</svg>
