<svg width="14" height="17" viewBox="0 0 14 17" fill="none" xmlns="http://www.w3.org/2000/svg">
<g clip-path="url(#clip0_870_828)">
<path d="M9.40648 6.32732C9.40648 5.06756 8.39611 4.04639 7.14968 4.04639C5.90325 4.04639 4.89288 5.06756 4.89288 6.32732C4.89288 7.58708 5.90325 8.60825 7.14968 8.60825C8.3955 8.60689 9.40513 7.58646 9.40648 6.32732ZM5.39439 6.32732C5.39439 5.34748 6.18021 4.55326 7.14968 4.55326C8.11915 4.55326 8.90497 5.34748 8.90497 6.32732C8.90497 7.30716 8.11915 8.10138 7.14968 8.10138C6.1807 8.10026 5.3955 7.30667 5.39439 6.32732Z" fill="white"/>
<path d="M9.54138 12.2915C11.0113 10.5898 12.6663 8.29404 12.6663 6.5805C12.6663 3.50114 10.1964 1.00488 7.14965 1.00488C4.10288 1.00488 1.63304 3.50114 1.63304 6.5805C1.63304 8.29404 3.28805 10.5898 4.75793 12.2915C2.92587 12.5491 1.13153 13.1564 1.13153 14.1735C1.13153 15.497 4.23218 16.2111 7.14965 16.2111C10.0671 16.2111 13.1678 15.497 13.1678 14.1735C13.1678 13.1564 11.3734 12.5491 9.54138 12.2915ZM7.14965 1.51176C9.91812 1.51497 12.1616 3.78242 12.1648 6.5805C12.1648 9.08418 8.0453 13.2185 7.14965 14.0878C6.25401 13.2187 2.13455 9.08517 2.13455 6.5805C2.13773 3.78242 4.38119 1.51497 7.14965 1.51176ZM7.14965 15.7042C3.73165 15.7042 1.63304 14.8126 1.63304 14.1735C1.63304 13.6752 2.87825 13.0127 5.16112 12.7494C6.10831 13.8042 6.8967 14.5461 6.97934 14.623L7.14965 14.7819L7.31997 14.623C7.40237 14.5471 8.19051 13.8047 9.13684 12.7507C11.4288 13.0178 12.6663 13.6767 12.6663 14.1735C12.6663 14.8126 10.5677 15.7042 7.14965 15.7042Z" fill="white"/>
</g>
<defs>
<clipPath id="clip0_870_828">
<rect width="12.3903" height="15.2062" fill="white" transform="translate(0.95459 0.989746)"/>
</clipPath>
</defs>
</svg>
