<svg width="28" height="28" viewBox="0 0 28 28" fill="none" xmlns="http://www.w3.org/2000/svg">
<mask id="path-1-outside-1_1468_1034" maskUnits="userSpaceOnUse" x="0" y="0.548828" width="28" height="27" fill="black">
<rect fill="white" y="0.548828" width="28" height="27"/>
<path fill-rule="evenodd" clip-rule="evenodd" d="M3.15097 10.8052C1.18622 12.7076 1.18183 15.8427 3.14911 17.755L6.72298 21.229L10.2969 17.755C12.2619 15.8449 12.2619 12.7172 10.2969 10.807C8.33245 8.89746 5.11622 8.8968 3.15097 10.8052ZM14.3343 15.5303C15.3256 15.5303 15.8256 16.7009 15.1239 17.3831C14.422 18.0653 13.2178 17.5792 13.2178 16.6156C13.2177 16.0163 13.7178 15.5303 14.3343 15.5303ZM14.6463 16.3123C14.3693 16.043 13.8931 16.2343 13.8931 16.6156C13.8931 16.997 14.3693 17.1882 14.6463 16.9189C14.8186 16.7515 14.8186 16.4797 14.6463 16.3123ZM19.9478 19.7232C20.8023 19.7232 21.2335 20.7324 20.6284 21.3205C20.0233 21.9086 18.9852 21.4895 18.9852 20.6589C18.9852 20.1422 19.4163 19.7232 19.9478 19.7232ZM20.151 20.4614C19.9707 20.2862 19.6606 20.4105 19.6606 20.6589C19.6606 20.9073 19.9708 21.0315 20.151 20.8564C20.2631 20.7474 20.2631 20.5704 20.151 20.4614ZM17.132 9.42011C16.9455 9.42011 16.7944 9.27317 16.7944 9.09188C16.7944 8.91059 16.9455 8.76365 17.132 8.76365H18.3701C18.5566 8.76365 18.7078 8.91059 18.7078 9.09188C18.7078 9.27317 18.5566 9.42011 18.3701 9.42011H17.132ZM6.10394 18.5421C5.91743 18.5421 5.76627 18.3952 5.76627 18.2139C5.76627 18.0326 5.91743 17.8856 6.10394 17.8856H7.34203C7.52853 17.8856 7.67969 18.0326 7.67969 18.2139C7.67969 18.3952 7.52853 18.5421 7.34203 18.5421H6.10394ZM17.1946 14.9469C17.0081 14.9469 16.8569 14.8 16.8569 14.6187C16.8569 14.4374 17.0081 14.2905 17.1946 14.2905H17.7673C18.1449 14.2905 18.4551 13.989 18.4551 13.6219V13.4067C18.4551 13.2254 18.6062 13.0784 18.7927 13.0784C18.9792 13.0784 19.1304 13.2254 19.1304 13.4067V13.6219C19.1304 14.3513 18.5176 14.9469 17.7673 14.9469H17.1946ZM16.1655 14.2904C16.352 14.2904 16.5032 14.4373 16.5032 14.6186C16.5032 14.7999 16.352 14.9469 16.1655 14.9469C15.8075 14.9469 15.4746 15.0621 15.1993 15.2748C15.0536 15.3874 14.8416 15.3639 14.7258 15.2222C14.61 15.0806 14.6342 14.8745 14.7799 14.762C15.1702 14.4606 15.6602 14.2904 16.1655 14.2904ZM15.1119 18.3751C15.4341 18.5439 15.7957 18.634 16.1655 18.634H17.1456C17.3321 18.634 17.4833 18.4871 17.4833 18.3058C17.4833 18.1245 17.3321 17.9776 17.1456 17.9776H16.1655C15.905 17.9776 15.6563 17.9161 15.4311 17.7982C15.2672 17.7125 15.0628 17.7722 14.9747 17.9315C14.8866 18.0908 14.948 18.2894 15.1119 18.3751ZM18.601 4.85009C18.7328 4.72197 18.9466 4.72197 19.0784 4.85009C19.2103 4.97826 19.2103 5.18608 19.0784 5.3142L17.5532 6.7968C17.4214 6.92492 17.2076 6.92492 17.0758 6.7968L16.4238 6.16305C16.2919 6.03488 16.2919 5.82706 16.4238 5.69894C16.5556 5.57077 16.7694 5.57077 16.9013 5.69894L17.3145 6.10063L18.601 4.85009ZM19.3335 11.6592C19.1572 11.6019 19.0621 11.4164 19.1212 11.2451C19.1801 11.0738 19.3709 10.9813 19.5472 11.0387C19.9516 11.1704 20.4001 11.4088 20.4001 11.8288C20.4001 12.1842 20.0487 12.4683 19.4804 12.6404C18.5035 12.9361 16.9627 12.9361 15.9858 12.6404C15.4176 12.4683 15.0661 12.1842 15.0661 11.8288C15.0661 11.378 15.584 11.1338 16.0202 11.0069C16.1986 10.9552 16.3864 11.054 16.4396 11.2274C16.4928 11.4009 16.3912 11.5835 16.2128 11.6352C16.0251 11.6899 15.8794 11.7518 15.7875 11.8173C15.7579 11.8384 15.7414 11.8143 15.7414 11.8288C15.7414 11.8629 15.9114 11.9314 16.1863 12.0146C17.0285 12.2696 18.4377 12.2696 19.2799 12.0146C19.5547 11.9314 19.7247 11.8629 19.7247 11.8288C19.7247 11.8127 19.7132 11.8436 19.6923 11.8275C19.6154 11.7682 19.4927 11.7111 19.3335 11.6592ZM17.7511 3.23986C16.2833 3.23986 15.0932 4.39669 15.0932 5.82345C15.0932 7.2502 16.2833 8.40703 17.7511 8.40703C19.2189 8.40703 20.4089 7.25025 20.4089 5.82345C20.4089 4.39675 19.219 3.23986 17.7511 3.23986ZM19.153 4.46075C18.3788 3.70824 17.1234 3.70824 16.3492 4.46075C15.575 5.21333 15.575 6.43362 16.3492 7.18619C17.1234 7.93876 18.3789 7.93876 19.153 7.18619C19.9272 6.43367 19.9272 5.21333 19.153 4.46075ZM14.5948 2.81486C15.4631 1.97087 16.6073 1.54883 17.7511 1.54883C20.0487 1.54883 21.9587 3.22607 22.1872 5.44549H24.9464C26.0765 5.44549 27 6.34314 27 7.44172V24.4747C27 25.5733 26.0765 26.4709 24.9464 26.4709H8.4154C7.28525 26.4709 6.3618 25.5733 6.3618 24.4747V21.8061L2.67165 18.219C1.5572 17.1359 1 15.7083 1 14.281C1 11.3343 3.33606 8.9124 6.3618 8.72897V7.44177C6.3618 6.34319 7.2853 5.44555 8.4154 5.44555H13.315C13.414 4.48357 13.8406 3.54806 14.5948 2.81486ZM22.204 6.10195H24.9463C25.7038 6.10195 26.3246 6.7055 26.3246 7.44172V24.4747C26.3246 25.211 25.7038 25.8145 24.9463 25.8145H8.4154C7.65797 25.8145 7.03712 25.211 7.03712 24.4747V22.9369C7.09903 22.9348 7.16178 22.932 7.22531 22.9289C8.10982 22.8839 10.0811 22.6311 10.0811 21.6931C10.0811 21.1314 9.35816 20.8357 8.80861 20.6881C8.62942 20.6399 8.44399 20.7421 8.39447 20.9163C8.34494 21.0905 8.45007 21.2707 8.62925 21.3189C8.91362 21.3952 9.13884 21.4858 9.28567 21.5846C9.42783 21.6803 9.52654 21.7223 9.04807 21.9262C8.52514 22.149 7.72331 22.2592 7.03712 22.2813V21.8518L10.7743 18.219C11.8887 17.1358 12.446 15.7082 12.446 14.2809C12.446 11.3154 10.0815 8.88668 7.03712 8.72618V7.44161C7.03712 6.70534 7.65803 6.10184 8.4154 6.10184H13.2981C13.3514 7.13964 13.7837 8.16223 14.5948 8.9508L17.5124 11.7868C17.6442 11.9149 17.858 11.9149 17.9898 11.7868L20.9073 8.9508C21.7185 8.1624 22.1507 7.13975 22.204 6.10195ZM17.7511 2.20534C15.6525 2.20534 13.9678 3.84298 13.9678 5.88291C13.9678 6.82711 14.3359 7.77104 15.0723 8.48685L17.7511 11.0908L20.4299 8.48685C21.1662 7.77104 21.5344 6.82711 21.5344 5.88291C21.5344 3.84298 19.8497 2.20534 17.7511 2.20534ZM10.7803 22.3211H12.4004C12.5869 22.3211 12.7381 22.1742 12.7381 21.9929C12.7381 21.8116 12.5869 21.6646 12.4004 21.6646H10.7803C10.5938 21.6646 10.4426 21.8116 10.4426 21.9929C10.4426 22.1741 10.5938 22.3211 10.7803 22.3211ZM14.016 22.3211H15.9126C16.0991 22.3211 16.2503 22.1742 16.2503 21.9929C16.2503 21.8116 16.0991 21.6646 15.9126 21.6646H14.016C13.8295 21.6646 13.6784 21.8116 13.6784 21.9929C13.6784 22.1741 13.8296 22.3211 14.016 22.3211ZM17.2005 22.3211H18.1254C18.4281 22.3211 18.7309 22.2586 19.0084 22.1419C19.1788 22.0704 19.2574 21.878 19.1838 21.7123C19.1102 21.5466 18.9124 21.4703 18.7419 21.5418C18.5467 21.6239 18.3442 21.6646 18.1254 21.6646H17.2005C17.014 21.6646 16.8628 21.8116 16.8628 21.9929C16.8628 22.1741 17.014 22.3211 17.2005 22.3211ZM19.8923 18.825C19.4903 18.32 18.9208 18.0373 18.2726 17.9769C18.0875 17.9599 17.9234 18.0919 17.9059 18.2718C17.8884 18.4517 18.0242 18.6112 18.2092 18.6282C18.6696 18.6711 19.0747 18.867 19.3594 19.225C19.473 19.368 19.6844 19.3944 19.8316 19.2839C19.9787 19.1736 20.0059 18.968 19.8923 18.825ZM5.68653 22.2327C5.87157 22.2532 6.00444 22.4157 5.98328 22.5955C5.96217 22.7754 5.79503 22.9046 5.60999 22.884C4.81564 22.7957 3.31783 22.5041 3.31783 21.6931C3.31783 21.16 3.97075 20.8667 4.49053 20.7155C4.66898 20.6638 4.85678 20.7626 4.90996 20.936C4.96314 21.1095 4.86156 21.292 4.68311 21.3437C4.42677 21.4186 4.22558 21.5047 4.09586 21.5971C3.97655 21.6821 3.87778 21.7211 4.33802 21.921C4.65998 22.0608 5.12944 22.1707 5.68653 22.2327ZM6.72298 12.1108C5.75586 12.1108 5.16338 13.137 5.65085 13.937C5.09432 14.1092 4.69999 14.6157 4.69999 15.1989V15.9333C3.76084 14.8964 3.81278 13.3282 4.81772 12.3513C5.86988 11.3285 7.57609 11.3285 8.62824 12.3513C9.63318 13.3282 9.68513 14.8964 8.74597 15.9333V15.1989C8.74597 14.6162 8.35209 14.1094 7.79512 13.937C8.28259 13.137 7.69005 12.1108 6.72298 12.1108ZM7.12593 12.9295C7.34839 13.1458 7.34839 13.4967 7.12593 13.7129C6.76806 14.0608 6.15312 13.8135 6.15312 13.3213C6.15312 12.829 6.768 12.5817 7.12593 12.9295ZM6.80475 17.4779C4.91761 17.5222 3.35323 16.0487 3.35323 14.2034C3.35323 12.3945 4.86201 10.9278 6.72293 10.9278C8.5839 10.9278 10.0926 12.3945 10.0926 14.2034C10.0927 15.9826 8.63618 17.4314 6.80475 17.4779ZM8.07065 16.4718C7.23904 16.9396 6.20687 16.9396 5.37526 16.4718V15.199C5.37526 14.8325 5.6849 14.5316 6.06184 14.5316H7.38407C7.76107 14.5316 8.07065 14.8326 8.07065 15.199V16.4718Z"/>
</mask>
<path fill-rule="evenodd" clip-rule="evenodd" d="M3.15097 10.8052C1.18622 12.7076 1.18183 15.8427 3.14911 17.755L6.72298 21.229L10.2969 17.755C12.2619 15.8449 12.2619 12.7172 10.2969 10.807C8.33245 8.89746 5.11622 8.8968 3.15097 10.8052ZM14.3343 15.5303C15.3256 15.5303 15.8256 16.7009 15.1239 17.3831C14.422 18.0653 13.2178 17.5792 13.2178 16.6156C13.2177 16.0163 13.7178 15.5303 14.3343 15.5303ZM14.6463 16.3123C14.3693 16.043 13.8931 16.2343 13.8931 16.6156C13.8931 16.997 14.3693 17.1882 14.6463 16.9189C14.8186 16.7515 14.8186 16.4797 14.6463 16.3123ZM19.9478 19.7232C20.8023 19.7232 21.2335 20.7324 20.6284 21.3205C20.0233 21.9086 18.9852 21.4895 18.9852 20.6589C18.9852 20.1422 19.4163 19.7232 19.9478 19.7232ZM20.151 20.4614C19.9707 20.2862 19.6606 20.4105 19.6606 20.6589C19.6606 20.9073 19.9708 21.0315 20.151 20.8564C20.2631 20.7474 20.2631 20.5704 20.151 20.4614ZM17.132 9.42011C16.9455 9.42011 16.7944 9.27317 16.7944 9.09188C16.7944 8.91059 16.9455 8.76365 17.132 8.76365H18.3701C18.5566 8.76365 18.7078 8.91059 18.7078 9.09188C18.7078 9.27317 18.5566 9.42011 18.3701 9.42011H17.132ZM6.10394 18.5421C5.91743 18.5421 5.76627 18.3952 5.76627 18.2139C5.76627 18.0326 5.91743 17.8856 6.10394 17.8856H7.34203C7.52853 17.8856 7.67969 18.0326 7.67969 18.2139C7.67969 18.3952 7.52853 18.5421 7.34203 18.5421H6.10394ZM17.1946 14.9469C17.0081 14.9469 16.8569 14.8 16.8569 14.6187C16.8569 14.4374 17.0081 14.2905 17.1946 14.2905H17.7673C18.1449 14.2905 18.4551 13.989 18.4551 13.6219V13.4067C18.4551 13.2254 18.6062 13.0784 18.7927 13.0784C18.9792 13.0784 19.1304 13.2254 19.1304 13.4067V13.6219C19.1304 14.3513 18.5176 14.9469 17.7673 14.9469H17.1946ZM16.1655 14.2904C16.352 14.2904 16.5032 14.4373 16.5032 14.6186C16.5032 14.7999 16.352 14.9469 16.1655 14.9469C15.8075 14.9469 15.4746 15.0621 15.1993 15.2748C15.0536 15.3874 14.8416 15.3639 14.7258 15.2222C14.61 15.0806 14.6342 14.8745 14.7799 14.762C15.1702 14.4606 15.6602 14.2904 16.1655 14.2904ZM15.1119 18.3751C15.4341 18.5439 15.7957 18.634 16.1655 18.634H17.1456C17.3321 18.634 17.4833 18.4871 17.4833 18.3058C17.4833 18.1245 17.3321 17.9776 17.1456 17.9776H16.1655C15.905 17.9776 15.6563 17.9161 15.4311 17.7982C15.2672 17.7125 15.0628 17.7722 14.9747 17.9315C14.8866 18.0908 14.948 18.2894 15.1119 18.3751ZM18.601 4.85009C18.7328 4.72197 18.9466 4.72197 19.0784 4.85009C19.2103 4.97826 19.2103 5.18608 19.0784 5.3142L17.5532 6.7968C17.4214 6.92492 17.2076 6.92492 17.0758 6.7968L16.4238 6.16305C16.2919 6.03488 16.2919 5.82706 16.4238 5.69894C16.5556 5.57077 16.7694 5.57077 16.9013 5.69894L17.3145 6.10063L18.601 4.85009ZM19.3335 11.6592C19.1572 11.6019 19.0621 11.4164 19.1212 11.2451C19.1801 11.0738 19.3709 10.9813 19.5472 11.0387C19.9516 11.1704 20.4001 11.4088 20.4001 11.8288C20.4001 12.1842 20.0487 12.4683 19.4804 12.6404C18.5035 12.9361 16.9627 12.9361 15.9858 12.6404C15.4176 12.4683 15.0661 12.1842 15.0661 11.8288C15.0661 11.378 15.584 11.1338 16.0202 11.0069C16.1986 10.9552 16.3864 11.054 16.4396 11.2274C16.4928 11.4009 16.3912 11.5835 16.2128 11.6352C16.0251 11.6899 15.8794 11.7518 15.7875 11.8173C15.7579 11.8384 15.7414 11.8143 15.7414 11.8288C15.7414 11.8629 15.9114 11.9314 16.1863 12.0146C17.0285 12.2696 18.4377 12.2696 19.2799 12.0146C19.5547 11.9314 19.7247 11.8629 19.7247 11.8288C19.7247 11.8127 19.7132 11.8436 19.6923 11.8275C19.6154 11.7682 19.4927 11.7111 19.3335 11.6592ZM17.7511 3.23986C16.2833 3.23986 15.0932 4.39669 15.0932 5.82345C15.0932 7.2502 16.2833 8.40703 17.7511 8.40703C19.2189 8.40703 20.4089 7.25025 20.4089 5.82345C20.4089 4.39675 19.219 3.23986 17.7511 3.23986ZM19.153 4.46075C18.3788 3.70824 17.1234 3.70824 16.3492 4.46075C15.575 5.21333 15.575 6.43362 16.3492 7.18619C17.1234 7.93876 18.3789 7.93876 19.153 7.18619C19.9272 6.43367 19.9272 5.21333 19.153 4.46075ZM14.5948 2.81486C15.4631 1.97087 16.6073 1.54883 17.7511 1.54883C20.0487 1.54883 21.9587 3.22607 22.1872 5.44549H24.9464C26.0765 5.44549 27 6.34314 27 7.44172V24.4747C27 25.5733 26.0765 26.4709 24.9464 26.4709H8.4154C7.28525 26.4709 6.3618 25.5733 6.3618 24.4747V21.8061L2.67165 18.219C1.5572 17.1359 1 15.7083 1 14.281C1 11.3343 3.33606 8.9124 6.3618 8.72897V7.44177C6.3618 6.34319 7.2853 5.44555 8.4154 5.44555H13.315C13.414 4.48357 13.8406 3.54806 14.5948 2.81486ZM22.204 6.10195H24.9463C25.7038 6.10195 26.3246 6.7055 26.3246 7.44172V24.4747C26.3246 25.211 25.7038 25.8145 24.9463 25.8145H8.4154C7.65797 25.8145 7.03712 25.211 7.03712 24.4747V22.9369C7.09903 22.9348 7.16178 22.932 7.22531 22.9289C8.10982 22.8839 10.0811 22.6311 10.0811 21.6931C10.0811 21.1314 9.35816 20.8357 8.80861 20.6881C8.62942 20.6399 8.44399 20.7421 8.39447 20.9163C8.34494 21.0905 8.45007 21.2707 8.62925 21.3189C8.91362 21.3952 9.13884 21.4858 9.28567 21.5846C9.42783 21.6803 9.52654 21.7223 9.04807 21.9262C8.52514 22.149 7.72331 22.2592 7.03712 22.2813V21.8518L10.7743 18.219C11.8887 17.1358 12.446 15.7082 12.446 14.2809C12.446 11.3154 10.0815 8.88668 7.03712 8.72618V7.44161C7.03712 6.70534 7.65803 6.10184 8.4154 6.10184H13.2981C13.3514 7.13964 13.7837 8.16223 14.5948 8.9508L17.5124 11.7868C17.6442 11.9149 17.858 11.9149 17.9898 11.7868L20.9073 8.9508C21.7185 8.1624 22.1507 7.13975 22.204 6.10195ZM17.7511 2.20534C15.6525 2.20534 13.9678 3.84298 13.9678 5.88291C13.9678 6.82711 14.3359 7.77104 15.0723 8.48685L17.7511 11.0908L20.4299 8.48685C21.1662 7.77104 21.5344 6.82711 21.5344 5.88291C21.5344 3.84298 19.8497 2.20534 17.7511 2.20534ZM10.7803 22.3211H12.4004C12.5869 22.3211 12.7381 22.1742 12.7381 21.9929C12.7381 21.8116 12.5869 21.6646 12.4004 21.6646H10.7803C10.5938 21.6646 10.4426 21.8116 10.4426 21.9929C10.4426 22.1741 10.5938 22.3211 10.7803 22.3211ZM14.016 22.3211H15.9126C16.0991 22.3211 16.2503 22.1742 16.2503 21.9929C16.2503 21.8116 16.0991 21.6646 15.9126 21.6646H14.016C13.8295 21.6646 13.6784 21.8116 13.6784 21.9929C13.6784 22.1741 13.8296 22.3211 14.016 22.3211ZM17.2005 22.3211H18.1254C18.4281 22.3211 18.7309 22.2586 19.0084 22.1419C19.1788 22.0704 19.2574 21.878 19.1838 21.7123C19.1102 21.5466 18.9124 21.4703 18.7419 21.5418C18.5467 21.6239 18.3442 21.6646 18.1254 21.6646H17.2005C17.014 21.6646 16.8628 21.8116 16.8628 21.9929C16.8628 22.1741 17.014 22.3211 17.2005 22.3211ZM19.8923 18.825C19.4903 18.32 18.9208 18.0373 18.2726 17.9769C18.0875 17.9599 17.9234 18.0919 17.9059 18.2718C17.8884 18.4517 18.0242 18.6112 18.2092 18.6282C18.6696 18.6711 19.0747 18.867 19.3594 19.225C19.473 19.368 19.6844 19.3944 19.8316 19.2839C19.9787 19.1736 20.0059 18.968 19.8923 18.825ZM5.68653 22.2327C5.87157 22.2532 6.00444 22.4157 5.98328 22.5955C5.96217 22.7754 5.79503 22.9046 5.60999 22.884C4.81564 22.7957 3.31783 22.5041 3.31783 21.6931C3.31783 21.16 3.97075 20.8667 4.49053 20.7155C4.66898 20.6638 4.85678 20.7626 4.90996 20.936C4.96314 21.1095 4.86156 21.292 4.68311 21.3437C4.42677 21.4186 4.22558 21.5047 4.09586 21.5971C3.97655 21.6821 3.87778 21.7211 4.33802 21.921C4.65998 22.0608 5.12944 22.1707 5.68653 22.2327ZM6.72298 12.1108C5.75586 12.1108 5.16338 13.137 5.65085 13.937C5.09432 14.1092 4.69999 14.6157 4.69999 15.1989V15.9333C3.76084 14.8964 3.81278 13.3282 4.81772 12.3513C5.86988 11.3285 7.57609 11.3285 8.62824 12.3513C9.63318 13.3282 9.68513 14.8964 8.74597 15.9333V15.1989C8.74597 14.6162 8.35209 14.1094 7.79512 13.937C8.28259 13.137 7.69005 12.1108 6.72298 12.1108ZM7.12593 12.9295C7.34839 13.1458 7.34839 13.4967 7.12593 13.7129C6.76806 14.0608 6.15312 13.8135 6.15312 13.3213C6.15312 12.829 6.768 12.5817 7.12593 12.9295ZM6.80475 17.4779C4.91761 17.5222 3.35323 16.0487 3.35323 14.2034C3.35323 12.3945 4.86201 10.9278 6.72293 10.9278C8.5839 10.9278 10.0926 12.3945 10.0926 14.2034C10.0927 15.9826 8.63618 17.4314 6.80475 17.4779ZM8.07065 16.4718C7.23904 16.9396 6.20687 16.9396 5.37526 16.4718V15.199C5.37526 14.8325 5.6849 14.5316 6.06184 14.5316H7.38407C7.76107 14.5316 8.07065 14.8326 8.07065 15.199V16.4718Z" fill="white"/>
<path fill-rule="evenodd" clip-rule="evenodd" d="M3.15097 10.8052C1.18622 12.7076 1.18183 15.8427 3.14911 17.755L6.72298 21.229L10.2969 17.755C12.2619 15.8449 12.2619 12.7172 10.2969 10.807C8.33245 8.89746 5.11622 8.8968 3.15097 10.8052ZM14.3343 15.5303C15.3256 15.5303 15.8256 16.7009 15.1239 17.3831C14.422 18.0653 13.2178 17.5792 13.2178 16.6156C13.2177 16.0163 13.7178 15.5303 14.3343 15.5303ZM14.6463 16.3123C14.3693 16.043 13.8931 16.2343 13.8931 16.6156C13.8931 16.997 14.3693 17.1882 14.6463 16.9189C14.8186 16.7515 14.8186 16.4797 14.6463 16.3123ZM19.9478 19.7232C20.8023 19.7232 21.2335 20.7324 20.6284 21.3205C20.0233 21.9086 18.9852 21.4895 18.9852 20.6589C18.9852 20.1422 19.4163 19.7232 19.9478 19.7232ZM20.151 20.4614C19.9707 20.2862 19.6606 20.4105 19.6606 20.6589C19.6606 20.9073 19.9708 21.0315 20.151 20.8564C20.2631 20.7474 20.2631 20.5704 20.151 20.4614ZM17.132 9.42011C16.9455 9.42011 16.7944 9.27317 16.7944 9.09188C16.7944 8.91059 16.9455 8.76365 17.132 8.76365H18.3701C18.5566 8.76365 18.7078 8.91059 18.7078 9.09188C18.7078 9.27317 18.5566 9.42011 18.3701 9.42011H17.132ZM6.10394 18.5421C5.91743 18.5421 5.76627 18.3952 5.76627 18.2139C5.76627 18.0326 5.91743 17.8856 6.10394 17.8856H7.34203C7.52853 17.8856 7.67969 18.0326 7.67969 18.2139C7.67969 18.3952 7.52853 18.5421 7.34203 18.5421H6.10394ZM17.1946 14.9469C17.0081 14.9469 16.8569 14.8 16.8569 14.6187C16.8569 14.4374 17.0081 14.2905 17.1946 14.2905H17.7673C18.1449 14.2905 18.4551 13.989 18.4551 13.6219V13.4067C18.4551 13.2254 18.6062 13.0784 18.7927 13.0784C18.9792 13.0784 19.1304 13.2254 19.1304 13.4067V13.6219C19.1304 14.3513 18.5176 14.9469 17.7673 14.9469H17.1946ZM16.1655 14.2904C16.352 14.2904 16.5032 14.4373 16.5032 14.6186C16.5032 14.7999 16.352 14.9469 16.1655 14.9469C15.8075 14.9469 15.4746 15.0621 15.1993 15.2748C15.0536 15.3874 14.8416 15.3639 14.7258 15.2222C14.61 15.0806 14.6342 14.8745 14.7799 14.762C15.1702 14.4606 15.6602 14.2904 16.1655 14.2904ZM15.1119 18.3751C15.4341 18.5439 15.7957 18.634 16.1655 18.634H17.1456C17.3321 18.634 17.4833 18.4871 17.4833 18.3058C17.4833 18.1245 17.3321 17.9776 17.1456 17.9776H16.1655C15.905 17.9776 15.6563 17.9161 15.4311 17.7982C15.2672 17.7125 15.0628 17.7722 14.9747 17.9315C14.8866 18.0908 14.948 18.2894 15.1119 18.3751ZM18.601 4.85009C18.7328 4.72197 18.9466 4.72197 19.0784 4.85009C19.2103 4.97826 19.2103 5.18608 19.0784 5.3142L17.5532 6.7968C17.4214 6.92492 17.2076 6.92492 17.0758 6.7968L16.4238 6.16305C16.2919 6.03488 16.2919 5.82706 16.4238 5.69894C16.5556 5.57077 16.7694 5.57077 16.9013 5.69894L17.3145 6.10063L18.601 4.85009ZM19.3335 11.6592C19.1572 11.6019 19.0621 11.4164 19.1212 11.2451C19.1801 11.0738 19.3709 10.9813 19.5472 11.0387C19.9516 11.1704 20.4001 11.4088 20.4001 11.8288C20.4001 12.1842 20.0487 12.4683 19.4804 12.6404C18.5035 12.9361 16.9627 12.9361 15.9858 12.6404C15.4176 12.4683 15.0661 12.1842 15.0661 11.8288C15.0661 11.378 15.584 11.1338 16.0202 11.0069C16.1986 10.9552 16.3864 11.054 16.4396 11.2274C16.4928 11.4009 16.3912 11.5835 16.2128 11.6352C16.0251 11.6899 15.8794 11.7518 15.7875 11.8173C15.7579 11.8384 15.7414 11.8143 15.7414 11.8288C15.7414 11.8629 15.9114 11.9314 16.1863 12.0146C17.0285 12.2696 18.4377 12.2696 19.2799 12.0146C19.5547 11.9314 19.7247 11.8629 19.7247 11.8288C19.7247 11.8127 19.7132 11.8436 19.6923 11.8275C19.6154 11.7682 19.4927 11.7111 19.3335 11.6592ZM17.7511 3.23986C16.2833 3.23986 15.0932 4.39669 15.0932 5.82345C15.0932 7.2502 16.2833 8.40703 17.7511 8.40703C19.2189 8.40703 20.4089 7.25025 20.4089 5.82345C20.4089 4.39675 19.219 3.23986 17.7511 3.23986ZM19.153 4.46075C18.3788 3.70824 17.1234 3.70824 16.3492 4.46075C15.575 5.21333 15.575 6.43362 16.3492 7.18619C17.1234 7.93876 18.3789 7.93876 19.153 7.18619C19.9272 6.43367 19.9272 5.21333 19.153 4.46075ZM14.5948 2.81486C15.4631 1.97087 16.6073 1.54883 17.7511 1.54883C20.0487 1.54883 21.9587 3.22607 22.1872 5.44549H24.9464C26.0765 5.44549 27 6.34314 27 7.44172V24.4747C27 25.5733 26.0765 26.4709 24.9464 26.4709H8.4154C7.28525 26.4709 6.3618 25.5733 6.3618 24.4747V21.8061L2.67165 18.219C1.5572 17.1359 1 15.7083 1 14.281C1 11.3343 3.33606 8.9124 6.3618 8.72897V7.44177C6.3618 6.34319 7.2853 5.44555 8.4154 5.44555H13.315C13.414 4.48357 13.8406 3.54806 14.5948 2.81486ZM22.204 6.10195H24.9463C25.7038 6.10195 26.3246 6.7055 26.3246 7.44172V24.4747C26.3246 25.211 25.7038 25.8145 24.9463 25.8145H8.4154C7.65797 25.8145 7.03712 25.211 7.03712 24.4747V22.9369C7.09903 22.9348 7.16178 22.932 7.22531 22.9289C8.10982 22.8839 10.0811 22.6311 10.0811 21.6931C10.0811 21.1314 9.35816 20.8357 8.80861 20.6881C8.62942 20.6399 8.44399 20.7421 8.39447 20.9163C8.34494 21.0905 8.45007 21.2707 8.62925 21.3189C8.91362 21.3952 9.13884 21.4858 9.28567 21.5846C9.42783 21.6803 9.52654 21.7223 9.04807 21.9262C8.52514 22.149 7.72331 22.2592 7.03712 22.2813V21.8518L10.7743 18.219C11.8887 17.1358 12.446 15.7082 12.446 14.2809C12.446 11.3154 10.0815 8.88668 7.03712 8.72618V7.44161C7.03712 6.70534 7.65803 6.10184 8.4154 6.10184H13.2981C13.3514 7.13964 13.7837 8.16223 14.5948 8.9508L17.5124 11.7868C17.6442 11.9149 17.858 11.9149 17.9898 11.7868L20.9073 8.9508C21.7185 8.1624 22.1507 7.13975 22.204 6.10195ZM17.7511 2.20534C15.6525 2.20534 13.9678 3.84298 13.9678 5.88291C13.9678 6.82711 14.3359 7.77104 15.0723 8.48685L17.7511 11.0908L20.4299 8.48685C21.1662 7.77104 21.5344 6.82711 21.5344 5.88291C21.5344 3.84298 19.8497 2.20534 17.7511 2.20534ZM10.7803 22.3211H12.4004C12.5869 22.3211 12.7381 22.1742 12.7381 21.9929C12.7381 21.8116 12.5869 21.6646 12.4004 21.6646H10.7803C10.5938 21.6646 10.4426 21.8116 10.4426 21.9929C10.4426 22.1741 10.5938 22.3211 10.7803 22.3211ZM14.016 22.3211H15.9126C16.0991 22.3211 16.2503 22.1742 16.2503 21.9929C16.2503 21.8116 16.0991 21.6646 15.9126 21.6646H14.016C13.8295 21.6646 13.6784 21.8116 13.6784 21.9929C13.6784 22.1741 13.8296 22.3211 14.016 22.3211ZM17.2005 22.3211H18.1254C18.4281 22.3211 18.7309 22.2586 19.0084 22.1419C19.1788 22.0704 19.2574 21.878 19.1838 21.7123C19.1102 21.5466 18.9124 21.4703 18.7419 21.5418C18.5467 21.6239 18.3442 21.6646 18.1254 21.6646H17.2005C17.014 21.6646 16.8628 21.8116 16.8628 21.9929C16.8628 22.1741 17.014 22.3211 17.2005 22.3211ZM19.8923 18.825C19.4903 18.32 18.9208 18.0373 18.2726 17.9769C18.0875 17.9599 17.9234 18.0919 17.9059 18.2718C17.8884 18.4517 18.0242 18.6112 18.2092 18.6282C18.6696 18.6711 19.0747 18.867 19.3594 19.225C19.473 19.368 19.6844 19.3944 19.8316 19.2839C19.9787 19.1736 20.0059 18.968 19.8923 18.825ZM5.68653 22.2327C5.87157 22.2532 6.00444 22.4157 5.98328 22.5955C5.96217 22.7754 5.79503 22.9046 5.60999 22.884C4.81564 22.7957 3.31783 22.5041 3.31783 21.6931C3.31783 21.16 3.97075 20.8667 4.49053 20.7155C4.66898 20.6638 4.85678 20.7626 4.90996 20.936C4.96314 21.1095 4.86156 21.292 4.68311 21.3437C4.42677 21.4186 4.22558 21.5047 4.09586 21.5971C3.97655 21.6821 3.87778 21.7211 4.33802 21.921C4.65998 22.0608 5.12944 22.1707 5.68653 22.2327ZM6.72298 12.1108C5.75586 12.1108 5.16338 13.137 5.65085 13.937C5.09432 14.1092 4.69999 14.6157 4.69999 15.1989V15.9333C3.76084 14.8964 3.81278 13.3282 4.81772 12.3513C5.86988 11.3285 7.57609 11.3285 8.62824 12.3513C9.63318 13.3282 9.68513 14.8964 8.74597 15.9333V15.1989C8.74597 14.6162 8.35209 14.1094 7.79512 13.937C8.28259 13.137 7.69005 12.1108 6.72298 12.1108ZM7.12593 12.9295C7.34839 13.1458 7.34839 13.4967 7.12593 13.7129C6.76806 14.0608 6.15312 13.8135 6.15312 13.3213C6.15312 12.829 6.768 12.5817 7.12593 12.9295ZM6.80475 17.4779C4.91761 17.5222 3.35323 16.0487 3.35323 14.2034C3.35323 12.3945 4.86201 10.9278 6.72293 10.9278C8.5839 10.9278 10.0926 12.3945 10.0926 14.2034C10.0927 15.9826 8.63618 17.4314 6.80475 17.4779ZM8.07065 16.4718C7.23904 16.9396 6.20687 16.9396 5.37526 16.4718V15.199C5.37526 14.8325 5.6849 14.5316 6.06184 14.5316H7.38407C7.76107 14.5316 8.07065 14.8326 8.07065 15.199V16.4718Z" stroke="white" stroke-width="0.2" mask="url(#path-1-outside-1_1468_1034)"/>
</svg>
