<svg width="26" height="26" viewBox="0 0 26 26" fill="none" xmlns="http://www.w3.org/2000/svg">
<path d="M22.75 24.3701H6.5C6.06917 24.3696 5.65612 24.1983 5.35147 23.8936C5.04683 23.589 4.87547 23.176 4.875 22.7451V20.5785C4.875 20.4348 4.93207 20.297 5.03365 20.1954C5.13523 20.0939 5.27301 20.0368 5.41667 20.0368C5.56033 20.0368 5.6981 20.0939 5.79968 20.1954C5.90127 20.297 5.95833 20.4348 5.95833 20.5785V22.7451C5.95843 22.8887 6.01553 23.0265 6.11709 23.128C6.21865 23.2296 6.35637 23.2867 6.5 23.2868H22.75C22.8936 23.2867 23.0313 23.2296 23.1329 23.128C23.2345 23.0265 23.2916 22.8887 23.2917 22.7451V6.49512C23.2916 6.35149 23.2345 6.21377 23.1329 6.11221C23.0313 6.01065 22.8936 5.95355 22.75 5.95345H20.5833C20.4397 5.95345 20.3019 5.89638 20.2003 5.7948C20.0987 5.69322 20.0417 5.55544 20.0417 5.41178C20.0417 5.26812 20.0987 5.13035 20.2003 5.02877C20.3019 4.92719 20.4397 4.87012 20.5833 4.87012H22.75C23.1808 4.87059 23.5939 5.04194 23.8985 5.34659C24.2032 5.65123 24.3745 6.06428 24.375 6.49512V22.7451C24.3745 23.176 24.2032 23.589 23.8985 23.8936C23.5939 24.1983 23.1808 24.3696 22.75 24.3701Z" fill="white"/>
<path d="M19.5 21.1201H3.25C2.81917 21.1197 2.40612 20.9483 2.10148 20.6437C1.79683 20.339 1.62547 19.926 1.625 19.4951V6.94369C1.62449 6.73022 1.6663 6.51877 1.74801 6.32156C1.82973 6.12435 1.94973 5.9453 2.10108 5.79476L5.79963 2.0962C5.95017 1.94485 6.12923 1.82484 6.32644 1.74313C6.52365 1.66141 6.7351 1.6196 6.94858 1.62012H19.5C19.9308 1.62059 20.3439 1.79195 20.6485 2.09659C20.9532 2.40124 21.1245 2.81429 21.125 3.24512V19.4951C21.1245 19.926 20.9532 20.339 20.6485 20.6437C20.3439 20.9483 19.9308 21.1197 19.5 21.1201ZM6.94858 2.70346C6.80501 2.70389 6.66741 2.76092 6.56562 2.86216L2.86705 6.56071C2.7658 6.6625 2.70877 6.8001 2.70834 6.94367V19.4951C2.70843 19.6388 2.76553 19.7765 2.86709 19.878C2.96866 19.9796 3.10638 20.0367 3.25 20.0368H19.5C19.6436 20.0367 19.7814 19.9796 19.8829 19.878C19.9845 19.7765 20.0416 19.6388 20.0417 19.4951V3.24512C20.0416 3.10149 19.9845 2.96377 19.8829 2.86221C19.7814 2.76065 19.6436 2.70355 19.5 2.70346H6.94858Z" fill="white"/>
<path d="M5.92202 7.297H2.1901C2.04645 7.297 1.90867 7.23993 1.80709 7.13835C1.70551 7.03677 1.64844 6.89899 1.64844 6.75533C1.64844 6.61167 1.70551 6.4739 1.80709 6.37232C1.90867 6.27073 2.04645 6.21367 2.1901 6.21367H5.922C5.95146 6.21436 5.97999 6.20333 6.00132 6.18299C6.02265 6.16266 6.03503 6.13469 6.03575 6.10522V2.2321C6.03575 2.08844 6.09282 1.95066 6.1944 1.84908C6.29598 1.7475 6.43376 1.69043 6.57741 1.69043C6.72107 1.69043 6.85885 1.7475 6.96043 1.84908C7.06201 1.95066 7.11908 2.08844 7.11908 2.2321V6.10522C7.11801 6.42189 6.99138 6.7252 6.76697 6.94862C6.54255 7.17204 6.23869 7.29733 5.92202 7.297Z" fill="white"/>
<path d="M17.3359 9.47396H6.5026C6.35895 9.47396 6.22117 9.41689 6.11959 9.31531C6.01801 9.21373 5.96094 9.07595 5.96094 8.93229C5.96094 8.78863 6.01801 8.65086 6.11959 8.54928C6.22117 8.44769 6.35895 8.39062 6.5026 8.39062H17.3359C17.4796 8.39062 17.6174 8.44769 17.719 8.54928C17.8205 8.65086 17.8776 8.78863 17.8776 8.93229C17.8776 9.07595 17.8205 9.21373 17.719 9.31531C17.6174 9.41689 17.4796 9.47396 17.3359 9.47396Z" fill="white"/>
<path d="M17.3359 11.9115H6.5026C6.35895 11.9115 6.22117 11.8544 6.11959 11.7528C6.01801 11.6512 5.96094 11.5135 5.96094 11.3698C5.96094 11.2261 6.01801 11.0884 6.11959 10.9868C6.22117 10.8852 6.35895 10.8281 6.5026 10.8281H17.3359C17.4796 10.8281 17.6174 10.8852 17.719 10.9868C17.8205 11.0884 17.8776 11.2261 17.8776 11.3698C17.8776 11.5135 17.8205 11.6512 17.719 11.7528C17.6174 11.8544 17.4796 11.9115 17.3359 11.9115Z" fill="white"/>
<path d="M17.3359 14.349H6.5026C6.35895 14.349 6.22117 14.2919 6.11959 14.1903C6.01801 14.0887 5.96094 13.951 5.96094 13.8073C5.96094 13.6636 6.01801 13.5259 6.11959 13.4243C6.22117 13.3227 6.35895 13.2656 6.5026 13.2656H17.3359C17.4796 13.2656 17.6174 13.3227 17.719 13.4243C17.8205 13.5259 17.8776 13.6636 17.8776 13.8073C17.8776 13.951 17.8205 14.0887 17.719 14.1903C17.6174 14.2919 17.4796 14.349 17.3359 14.349Z" fill="white"/>
<path d="M11.9193 16.7865H6.5026C6.35895 16.7865 6.22117 16.7294 6.11959 16.6278C6.01801 16.5262 5.96094 16.3885 5.96094 16.2448C5.96094 16.1011 6.01801 15.9634 6.11959 15.8618C6.22117 15.7602 6.35895 15.7031 6.5026 15.7031H11.9193C12.0629 15.7031 12.2007 15.7602 12.3023 15.8618C12.4039 15.9634 12.4609 16.1011 12.4609 16.2448C12.4609 16.3885 12.4039 16.5262 12.3023 16.6278C12.2007 16.7294 12.0629 16.7865 11.9193 16.7865Z" fill="white"/>
</svg>
