<svg width="37" height="37" viewBox="0 0 37 37" fill="none" xmlns="http://www.w3.org/2000/svg">
<circle cx="18.1426" cy="18.6992" r="17.502" fill="white" fill-opacity="0.01" stroke="#2571B8"/>
<g clip-path="url(#clip0_2223_8897)">
<path d="M21.9622 28.8529C21.9468 28.8529 21.9314 28.852 21.9161 28.8505C18.8576 28.522 15.5659 26.796 12.8849 24.1151C9.9284 21.1586 8.13734 17.4422 8.09378 14.1736C8.09315 14.1216 8.10222 14.0693 8.11973 14.0202C8.20981 13.7619 8.31972 13.5053 8.44661 13.2574C9.01093 12.1671 9.90045 11.2917 10.952 10.7908C11.4186 10.5665 11.9101 10.4214 12.4114 10.3601C12.5446 10.344 12.677 10.3902 12.771 10.4851C14.0837 11.8121 14.9634 12.8719 16.1289 14.9816C16.2096 15.1276 16.1991 15.307 16.1017 15.4426C15.3552 16.4823 14.6409 17.2687 13.7608 18.0133C14.4181 19.0286 15.205 19.9969 16.1041 20.896C16.879 21.6709 17.7096 22.3653 18.577 22.964C19.3465 22.118 20.1522 21.4364 21.2111 20.7299C21.3499 20.6371 21.5295 20.6328 21.6728 20.7185C23.7417 21.9568 24.7704 22.8734 26.0509 24.2325C26.1425 24.3297 26.1841 24.4637 26.1634 24.5957C26.0847 25.0978 25.9188 25.5923 25.6702 26.0653C25.1285 27.0881 24.2271 27.9369 23.1312 28.4563C22.797 28.6158 22.4393 28.7449 22.0692 28.8394C22.0342 28.8483 21.9982 28.8529 21.9622 28.8529ZM8.95914 14.2388C9.02475 17.265 10.7167 20.7249 13.4958 23.5042C16.0167 26.0249 19.0861 27.6537 21.93 27.9826C22.2192 27.904 22.4981 27.801 22.7602 27.6759C23.6898 27.2353 24.4514 26.5203 24.9058 25.662C25.0756 25.3391 25.1983 25.0049 25.2715 24.6663C24.1619 23.5021 23.2125 22.6698 21.4641 21.6022C20.4704 22.287 19.7161 22.9596 18.9765 23.8161C18.8349 23.9802 18.5935 24.0139 18.4122 23.8948C17.3834 23.2186 16.4013 22.4152 15.4931 21.5069C14.453 20.4669 13.5551 19.3369 12.8243 18.1482C12.7101 17.9628 12.752 17.7213 12.9218 17.5851C13.812 16.8704 14.5158 16.135 15.2387 15.1596C14.2325 13.376 13.4342 12.3985 12.3102 11.249C11.9737 11.3095 11.6431 11.4173 11.3249 11.5703C10.4411 11.9912 9.69223 12.7307 9.21493 13.6529C9.11768 13.8428 9.0315 14.0401 8.95914 14.2388Z" fill="#2571B8"/>
<path d="M27.3645 19.7573C27.3193 19.7573 27.2734 19.7502 27.2281 19.7352C27.0017 19.6599 26.8791 19.4153 26.9544 19.1889C27.8494 16.4975 27.1627 13.583 25.1626 11.5829C23.1625 9.58282 20.2481 8.89635 17.5568 9.79125C17.3309 9.86582 17.0857 9.74399 17.0105 9.51753C16.9352 9.29117 17.0577 9.04656 17.2842 8.97124C20.2876 7.97266 23.5408 8.73919 25.7736 10.972C28.0065 13.2048 28.7732 16.4578 27.7744 19.4615C27.7142 19.6427 27.5455 19.7573 27.3645 19.7573Z" fill="#2571B8"/>
<path d="M24.3899 18.7635C24.3446 18.7635 24.2986 18.7563 24.2532 18.7412C24.0269 18.6658 23.9046 18.4211 23.98 18.1948C24.4979 16.6409 24.1017 14.9577 22.9461 13.8019C21.7903 12.6462 20.1071 12.2497 18.5531 12.768C18.3275 12.8435 18.0822 12.7213 18.0066 12.4947C17.9312 12.2684 18.0536 12.0237 18.2799 11.9483C20.1467 11.3263 22.1685 11.8024 23.5569 13.191C24.9455 14.5796 25.4217 16.6017 24.7997 18.4679C24.7393 18.649 24.5707 18.7635 24.3899 18.7635Z" fill="#2571B8"/>
<path d="M21.4156 17.7719C21.3699 17.7719 21.3233 17.7646 21.2775 17.7491C21.0514 17.6728 20.9301 17.4277 21.0063 17.2016C21.1447 16.7917 21.0354 16.328 20.7279 16.0205C20.4205 15.713 19.9567 15.6039 19.5467 15.742C19.3206 15.8185 19.0755 15.6968 18.9993 15.4708C18.9231 15.2447 19.0445 14.9996 19.2706 14.9234C20 14.6769 20.7927 14.8635 21.3389 15.4096C21.885 15.9557 22.0712 16.7483 21.825 17.4779C21.7641 17.6582 21.596 17.7719 21.4156 17.7719Z" fill="#2571B8"/>
</g>
<defs>
<clipPath id="clip0_2223_8897">
<rect width="21.6023" height="21.6023" fill="white" transform="translate(7.34375 7.89795)"/>
</clipPath>
</defs>
</svg>
