<svg width="18" height="18" viewBox="0 0 18 18" fill="none" xmlns="http://www.w3.org/2000/svg">
<g clip-path="url(#clip0_870_814)">
<path d="M12.1337 16.9413C12.1217 16.9413 12.1096 16.9406 12.0977 16.9394C9.70552 16.6825 7.13098 15.3326 5.0341 13.2358C2.72173 10.9234 1.3209 8.01672 1.28683 5.46024C1.28633 5.41957 1.29343 5.37865 1.30712 5.34021C1.37758 5.13825 1.46354 4.93753 1.56279 4.74366C2.00416 3.89086 2.69987 3.2062 3.5223 2.81442C3.88728 2.63902 4.27164 2.5255 4.66376 2.47757C4.76796 2.46495 4.87149 2.50108 4.945 2.57533C5.9717 3.61325 6.65974 4.44212 7.57136 6.09218C7.63447 6.20636 7.62622 6.34669 7.55007 6.45271C6.96623 7.2659 6.40754 7.88101 5.71917 8.46337C6.23322 9.25743 6.84875 10.0148 7.55189 10.718C8.15801 11.3241 8.80761 11.8672 9.48608 12.3355C10.0879 11.6737 10.718 11.1406 11.5462 10.5881C11.6548 10.5155 11.7953 10.5122 11.9073 10.5791C13.5255 11.5477 14.3301 12.2646 15.3316 13.3276C15.4032 13.4036 15.4357 13.5084 15.4196 13.6116C15.358 14.0043 15.2283 14.3911 15.0338 14.761C14.6102 15.561 13.9051 16.2249 13.0481 16.6311C12.7866 16.7558 12.5069 16.8568 12.2174 16.9307C12.19 16.9378 12.1619 16.9413 12.1337 16.9413ZM1.96365 5.51123C2.01496 7.87812 3.33825 10.5842 5.51193 12.7579C7.48358 14.7294 9.88422 16.0034 12.1086 16.2606C12.3347 16.1991 12.5528 16.1186 12.7578 16.0208C13.4849 15.6762 14.0806 15.1169 14.436 14.4456C14.5688 14.1931 14.6648 13.9317 14.722 13.6668C13.8542 12.7563 13.1116 12.1054 11.7442 11.2703C10.9669 11.8059 10.377 12.332 9.7985 13.0019C9.68779 13.1303 9.49895 13.1566 9.35713 13.0634C8.55252 12.5345 7.78437 11.9062 7.07405 11.1958C6.26053 10.3824 5.5583 9.49857 4.98666 8.56889C4.8974 8.42385 4.93015 8.23501 5.06297 8.12843C5.75918 7.56949 6.3097 6.99431 6.87507 6.23136C6.08811 4.83638 5.46375 4.07187 4.58464 3.17279C4.32139 3.22015 4.06284 3.30446 3.81394 3.42408C3.12276 3.75334 2.53702 4.33166 2.16371 5.05294C2.08765 5.20153 2.02024 5.3558 1.96365 5.51123Z" fill="white"/>
<path d="M16.3594 9.82767C16.324 9.82767 16.2881 9.82206 16.2527 9.81034C16.0756 9.75144 15.9797 9.56012 16.0386 9.38308C16.7386 7.27803 16.2016 4.99859 14.6372 3.43424C13.0729 1.86989 10.7934 1.33299 8.68846 2.03291C8.51183 2.09124 8.32002 1.99595 8.26119 1.81883C8.20229 1.64178 8.29815 1.45047 8.47528 1.39156C10.8244 0.610545 13.3687 1.21007 15.115 2.95641C16.8615 4.70274 17.4612 7.24701 16.68 9.59626C16.6329 9.73799 16.5009 9.82767 16.3594 9.82767Z" fill="white"/>
<path d="M14.0315 9.05078C13.996 9.05078 13.9601 9.04517 13.9246 9.03337C13.7475 8.97439 13.6518 8.78299 13.7108 8.60595C14.116 7.39049 13.806 6.07388 12.9021 5.16978C11.9981 4.26575 10.6814 3.95564 9.46584 4.36104C9.28937 4.42011 9.09748 4.32449 9.03841 4.14728C8.97943 3.97024 9.07512 3.77884 9.25217 3.71986C10.7124 3.23336 12.2939 3.60576 13.3799 4.69194C14.4661 5.77813 14.8386 7.3598 14.352 8.81962C14.3048 8.96127 14.1729 9.05078 14.0315 9.05078Z" fill="white"/>
<path d="M11.7046 8.27519C11.6688 8.27519 11.6324 8.2695 11.5965 8.25737C11.4197 8.19772 11.3247 8.006 11.3844 7.82912C11.4926 7.50844 11.4072 7.14578 11.1666 6.90521C10.9262 6.66473 10.5634 6.57934 10.2427 6.68741C10.0658 6.74723 9.87408 6.65202 9.81451 6.47523C9.75486 6.29843 9.84982 6.1067 10.0267 6.04706C10.5973 5.85426 11.2173 6.0002 11.6445 6.42738C12.0717 6.85456 12.2174 7.47454 12.0247 8.04526C11.9771 8.18626 11.8456 8.27519 11.7046 8.27519Z" fill="white"/>
</g>
<defs>
<clipPath id="clip0_870_814">
<rect width="16.8958" height="16.8958" fill="white" transform="translate(0.701721 0.552246)"/>
</clipPath>
</defs>
</svg>
