<svg width="34" height="33" viewBox="0 0 34 33" fill="none" xmlns="http://www.w3.org/2000/svg">
<g clip-path="url(#clip0_1590_169)">
<path d="M31.0894 7.76387C31.0894 6.16487 29.7364 4.86402 28.0735 4.86402H22.8653V4.3041C22.8653 2.43274 21.2818 0.910156 19.3354 0.910156H14.1954C12.249 0.910156 10.6655 2.43274 10.6655 4.30416V4.86408H5.45718C3.79429 4.86408 2.44141 6.16494 2.44141 7.76393C2.44141 9.04023 3.30379 10.1258 4.49742 10.5122V29.0161C4.49742 30.8876 6.0809 32.4102 8.02724 32.4102H25.5035C27.4498 32.4102 29.0333 30.8876 29.0333 29.0161V10.5122C30.227 10.1258 31.0894 9.04023 31.0894 7.76387ZM12.585 4.30416C12.585 3.45046 13.3075 2.75586 14.1954 2.75586H19.3354C20.2234 2.75586 20.9458 3.45046 20.9458 4.30416V4.86408H12.585V4.30416ZM25.5035 30.5645H8.02731C7.1394 30.5645 6.41701 29.8699 6.41701 29.0161V10.6637H27.1138V29.0161C27.1137 29.8699 26.3914 30.5645 25.5035 30.5645ZM28.0735 8.81795H5.45718C4.85272 8.81795 4.36094 8.34508 4.36094 7.76387C4.36094 7.1826 4.85272 6.70973 5.45718 6.70973H28.0735C28.678 6.70973 29.1699 7.1826 29.1699 7.76387C29.1699 8.34514 28.6781 8.81795 28.0735 8.81795Z" fill="#DD0000"/>
<path d="M11.1121 12.7715C10.5821 12.7715 10.1523 13.1847 10.1523 13.6943V27.5331C10.1523 28.0427 10.5821 28.4559 11.1121 28.4559C11.6422 28.4559 12.0719 28.0427 12.0719 27.5331V13.6943C12.0719 13.1847 11.6422 12.7715 11.1121 12.7715Z" fill="#DD0000"/>
<path d="M16.7645 12.7715C16.2344 12.7715 15.8047 13.1847 15.8047 13.6943V27.5331C15.8047 28.0427 16.2344 28.4559 16.7645 28.4559C17.2945 28.4559 17.7242 28.0427 17.7242 27.5331V13.6943C17.7242 13.1847 17.2945 12.7715 16.7645 12.7715Z" fill="#DD0000"/>
<path d="M22.4207 12.7715C21.8907 12.7715 21.4609 13.1847 21.4609 13.6943V27.5331C21.4609 28.0427 21.8907 28.4559 22.4207 28.4559C22.9508 28.4559 23.3805 28.0427 23.3805 27.5331V13.6943C23.3805 13.1847 22.9508 12.7715 22.4207 12.7715Z" fill="#DD0000"/>
</g>
<defs>
<clipPath id="clip0_1590_169">
<rect width="32.76" height="31.5" fill="white" transform="translate(0.386719 0.910156)"/>
</clipPath>
</defs>
</svg>
