<svg width="33" height="33" viewBox="0 0 33 33" fill="none" xmlns="http://www.w3.org/2000/svg">
<g clip-path="url(#clip0_1590_159)">
<rect width="32.3281" height="32.3281" transform="translate(0.351562 0.335938)" fill="#F5F5F5"/>
<path d="M0.351562 16.564C0.351562 10.4936 0.351562 7.45834 1.65091 5.19753C2.50213 3.71645 3.72642 2.48655 5.20078 1.63145C7.4513 0.326172 10.4727 0.326172 16.5156 0.326172C22.5585 0.326172 25.5799 0.326172 27.8305 1.63145C29.3048 2.48655 30.529 3.71645 31.3804 5.19753C32.6797 7.45834 32.6797 10.4936 32.6797 16.564C32.6797 22.6345 32.6797 25.6697 31.3804 27.9305C30.529 29.4116 29.3048 30.6416 27.8305 31.4967C25.5799 32.8019 22.5585 32.8019 16.5156 32.8019C10.4727 32.8019 7.4513 32.8019 5.20078 31.4967C3.72642 30.6416 2.50213 29.4116 1.65091 27.9305C0.351562 25.6697 0.351562 22.6345 0.351562 16.564Z" fill="#F5F5F5"/>
<path fill-rule="evenodd" clip-rule="evenodd" d="M2.92869 9.67201C2.7785 11.3368 2.77617 13.484 2.77617 16.564C2.77617 19.6442 2.7785 21.7913 2.92869 23.456C3.07587 25.0873 3.34957 26.0148 3.75069 26.7127C4.38908 27.8235 5.30732 28.746 6.41308 29.3872C7.10781 29.7902 8.03106 30.0651 9.65493 30.2131C11.3121 30.3639 13.4496 30.3662 16.5156 30.3662C19.5816 30.3662 21.7191 30.3639 23.3763 30.2131C25.0001 30.0651 25.9234 29.7902 26.6181 29.3872C27.7239 28.746 28.6422 27.8235 29.2805 26.7127C29.6817 26.0148 29.9554 25.0873 30.1025 23.456C30.2528 21.7913 30.2551 19.6442 30.2551 16.564C30.2551 13.484 30.2528 11.3368 30.1025 9.67201C29.9554 8.04073 29.6817 7.11328 29.2805 6.41536C28.6422 5.30456 27.7239 4.38214 26.6181 3.74081C25.9234 3.33787 25.0001 3.06291 23.3763 2.91507C21.7191 2.76418 19.5816 2.76185 16.5156 2.76185C13.4496 2.76185 11.3121 2.76418 9.65493 2.91507C8.03106 3.06291 7.10781 3.33787 6.41308 3.74081C5.30732 4.38214 4.38908 5.30456 3.75069 6.41536C3.34957 7.11328 3.07587 8.04073 2.92869 9.67201ZM1.65091 5.19753C0.351562 7.45834 0.351562 10.4936 0.351562 16.564C0.351562 22.6345 0.351562 25.6697 1.65091 27.9305C2.50213 29.4116 3.72642 30.6416 5.20078 31.4967C7.4513 32.8019 10.4727 32.8019 16.5156 32.8019C22.5585 32.8019 25.5799 32.8019 27.8305 31.4967C29.3048 30.6416 30.529 29.4116 31.3804 27.9305C32.6797 25.6697 32.6797 22.6345 32.6797 16.564C32.6797 10.4936 32.6797 7.45834 31.3804 5.19753C30.529 3.71645 29.3048 2.48655 27.8305 1.63145C25.5799 0.326172 22.5585 0.326172 16.5156 0.326172C10.4727 0.326172 7.4513 0.326172 5.20078 1.63145C3.72642 2.48655 2.50213 3.71645 1.65091 5.19753Z" fill="#2571B8"/>
<path fill-rule="evenodd" clip-rule="evenodd" d="M9.19101 20.6737C9.66444 21.1493 10.432 21.1493 10.9055 20.6737L16.5139 15.0397L22.1223 20.6737C22.5957 21.1493 23.3632 21.1493 23.8367 20.6737C24.3101 20.1981 24.3101 19.4271 23.8367 18.9515L17.371 12.4563C16.8976 11.9807 16.1301 11.9807 15.6566 12.4563L9.19101 18.9515C8.71758 19.4271 8.71758 20.1981 9.19101 20.6737Z" fill="#2571B8"/>
</g>
<defs>
<clipPath id="clip0_1590_159">
<rect width="32.3281" height="32.3281" fill="white" transform="translate(0.351562 0.335938)"/>
</clipPath>
</defs>
</svg>
