<svg width="23" height="23" viewBox="0 0 23 23" fill="none" xmlns="http://www.w3.org/2000/svg">
<path d="M19.4255 3.37007C15.1291 -0.925046 8.1642 -0.924015 3.86909 3.37243C-0.426023 7.66888 -0.424991 14.6337 3.87145 18.9288C8.1679 23.2239 15.1327 23.2229 19.4278 18.9264C21.4906 16.863 22.6491 14.0647 22.6485 11.1471C22.6479 8.22992 21.4885 5.43248 19.4255 3.37007ZM17.3076 15.4723C17.3071 15.4728 17.3066 15.4733 17.3061 15.4738V15.4701L16.7488 16.0238C16.028 16.7537 14.9782 17.054 13.9804 16.8158C12.9752 16.5467 12.0195 16.1184 11.1498 15.5471C10.3417 15.0307 9.59283 14.427 8.91676 13.7468C8.2947 13.1293 7.73585 12.4512 7.24841 11.7228C6.71525 10.9389 6.29326 10.0851 5.99441 9.18542C5.65182 8.12856 5.93572 6.96887 6.72776 6.18976L7.38041 5.53711C7.56187 5.35484 7.85672 5.35419 8.03895 5.53565C8.03942 5.53612 8.03994 5.53659 8.04041 5.53711L10.1011 7.59776C10.2833 7.77922 10.284 8.07407 10.1025 8.2563C10.1021 8.25677 10.1016 8.25725 10.1011 8.25776L8.89106 9.46776C8.54388 9.81117 8.50022 10.3569 8.78841 10.7511C9.22605 11.3517 9.71035 11.9169 10.2368 12.4415C10.8237 13.0309 11.4617 13.5671 12.1434 14.0438C12.5373 14.3185 13.0713 14.2722 13.4121 13.9338L14.5817 12.7458C14.7632 12.5635 15.058 12.5629 15.2403 12.7443C15.2407 12.7448 15.2412 12.7453 15.2417 12.7458L17.3061 14.8138C17.4884 14.9952 17.489 15.29 17.3076 15.4723Z" fill="#262626"/>
</svg>
