<svg width="26" height="27" viewBox="0 0 26 27" fill="none" xmlns="http://www.w3.org/2000/svg">
<rect x="0.576172" y="0.875977" width="24.719" height="24.719" rx="1" fill="#FFC507"/>
<path d="M11.9825 4.46416C12.2819 3.54285 13.5853 3.54285 13.8846 4.46416L15.4843 9.38758C15.6182 9.7996 16.0022 10.0786 16.4354 10.0786H21.6122C22.5809 10.0786 22.9837 11.3182 22.2 11.8876L18.0119 14.9304C17.6614 15.1851 17.5147 15.6364 17.6486 16.0484L19.2483 20.9719C19.5477 21.8932 18.4932 22.6593 17.7095 22.0899L13.5214 19.0471C13.1709 18.7924 12.6963 18.7924 12.3458 19.0471L8.15767 22.0899C7.37396 22.6593 6.31948 21.8932 6.61883 20.9719L8.21855 16.0484C8.35242 15.6364 8.20576 15.1851 7.85528 14.9304L3.66717 11.8876C2.88345 11.3182 3.28623 10.0786 4.25495 10.0786H9.43174C9.86497 10.0786 10.2489 9.7996 10.3828 9.38758L11.9825 4.46416Z" fill="white"/>
</svg>
